<?xml version="1.0" encoding="utf-8"?>
<!-- Generator: Adobe Illustrator 22.0.0, SVG Export Plug-In . SVG Version: 6.00 Build 0)  -->
<svg version="1.1" id="Capa_1" xmlns="http://www.w3.org/2000/svg" xmlns:xlink="http://www.w3.org/1999/xlink" x="0px" y="0px"
	 viewBox="0 0 500 500" style="enable-background:new 0 0 500 500;" xml:space="preserve">
<style type="text/css">
	.st0{fill:#6D6D70;}
	.st1{fill:#808184;}
	.st2{fill:#43626D;}
	.st3{fill:#E3B73E;}
	.st4{fill:#D28F3D;}
	.st5{fill:#96692D;}
	.st6{fill:#4E707A;}
	.st7{fill:#696965;}
	.st8{fill:#41403E;}
	.st9{fill:#8E8E89;}
	.st10{fill:#363636;}
	.st11{fill:#CBCACA;}
	.st12{fill:#C3DEE3;}
	.st13{fill:#B78B2A;}
	.st14{fill:#A98025;}
	.st15{fill:#C9A338;}
	.st16{fill:#2E333B;}
	.st17{fill:#C6A037;}
	.st18{fill:#C85A34;}
	.st19{fill:#3D4A5D;}
	.st20{fill:#FFFFFF;}
	.st21{fill:#343D4D;}
	.st22{fill:#E6E6E7;}
	.st23{fill:#D1A93A;}
	.st24{fill:#539183;}
</style>
<g>
	<path class="st0" d="M76.5,160.4c0.1,1.7,0.4,3.1,0.9,4c0.8,1.3,2,2.3,3.8,3.1s3.9,1.1,6.4,1.1c3.7,0,6.6-0.8,8.5-2.3
		c1.4-1.1,2.1-2.5,2.1-4.3c0-1.1-0.3-2.1-0.9-2.9s-1.6-1.4-2.8-1.9c-1.2-0.5-3.1-1-5.6-1.6l-5.6-1.3c-3.5-0.8-6.1-1.6-7.8-2.2
		c-2.2-0.9-3.8-1.9-5-3s-2-2.4-2.7-4.1c-0.6-1.6-1-3.5-1-5.6c0-3.8,0.9-6.9,2.8-9.3s4.3-4.2,7.3-5.3s6.2-1.6,9.6-1.6
		c2.6,0,5.1,0.3,7.4,0.9c2.3,0.6,4.3,1.4,5.9,2.4s2.9,2.2,4,3.6s1.8,2.8,2.3,4.2s0.7,3.3,0.8,5.7H96.7c-0.1-1.6-0.4-3-1.1-4.1
		s-1.8-2-3.4-2.7c-1.6-0.7-3.6-1.1-5.9-1.1c-3.2,0-5.6,0.6-7.1,1.8s-2.3,2.8-2.3,4.6c0,1.7,0.6,2.9,1.8,3.8c0.7,0.5,2.6,1.1,5.8,1.8
		l10.6,2.5c2.7,0.6,5,1.4,6.6,2.4c2.3,1.3,4,2.9,5.2,4.8c1.1,1.9,1.7,4.3,1.7,7c0,2.3-0.4,4.4-1.1,6.2s-1.7,3.3-2.8,4.5
		s-2.5,2.2-4.2,3.1s-3.7,1.6-6.2,2.1s-4.9,0.8-7.4,0.8c-3.1,0-6.1-0.4-9-1.3c-2-0.6-3.7-1.4-5.2-2.4s-2.7-2.2-3.7-3.6
		s-1.7-2.8-2.2-4.3s-0.7-3.4-0.9-5.7H76.5z"/>
	<path class="st0" d="M116.1,176.3v-51.7h10.8v51.7H116.1z"/>
	<path class="st0" d="M130.3,133.5v-8.9h42.3v8.9h-15.8v42.8H146v-42.8H130.3z"/>
	<path class="st0" d="M178,176.3v-51.7h10.8v51.7H178z"/>
	<path class="st0" d="M196.6,150.5c0-5.4,1-10.2,3-14.4s4.9-7.4,8.8-9.5c3.8-2.1,8.1-3.2,12.8-3.2c5.1,0,9.6,1.2,13.4,3.5
		c3.9,2.3,6.8,5.6,8.8,9.9s3,8.8,3,13.7c0,5.2-1.1,9.9-3.2,14.2s-5.1,7.5-9.1,9.7s-8.2,3.2-12.9,3.2c-4.8,0-9.1-1.1-13-3.3
		s-6.7-5.4-8.6-9.7S196.6,155.7,196.6,150.5z M221.5,168.3c2.6,0,5-0.7,7.2-2.1s3.9-3.5,5.1-6.3s1.8-6,1.8-9.4
		c0-3.4-0.6-6.5-1.7-9.4c-1.2-2.8-2.8-4.9-5-6.3s-4.6-2.1-7.2-2.1c-2.6,0-5.1,0.7-7.3,2.1s-3.9,3.5-5,6.3c-1.2,2.8-1.7,5.9-1.7,9.4
		c0,3.3,0.6,6.4,1.7,9.2s2.8,5,5,6.4S218.7,168.3,221.5,168.3z"/>
	<path class="st0" d="M270.5,124.7H282l8.3,37.8l7.3-37.8h11.4l7.8,37.8l8.5-37.8h11l-14.6,51.7h-10.3l-8.1-40.3l-8.1,40.3h-10.1
		L270.5,124.7z"/>
	<path class="st0" d="M342.9,176.3v-51.7h38.4v8.9h-27.6V145H379v8.9h-25.3v13.5h28.8v8.9H342.9z"/>
	<path class="st0" d="M390.5,176.3v-51.7h25.3c3.7,0,6.7,0.5,9,1.5c2.3,1,4.1,2.6,5.4,4.7s1.9,4.5,1.9,7.1c0,2.6-0.5,4.7-1.5,6.3
		c-1,1.6-2.6,3-4.9,4.1c2,0.9,3.5,1.8,4.6,2.7c1,1,1.9,2.3,2.5,3.9c0.6,1.6,0.9,3.5,0.9,5.7c0,3.1-0.6,5.7-1.7,7.8s-2.6,3.8-4.3,4.9
		s-3.9,1.9-6.3,2.4c-1.8,0.4-4.5,0.6-8,0.6L390.5,176.3z M401.3,133.5V145h12.9c2.7,0,4.6-0.5,5.8-1.6c1.2-1.1,1.8-2.5,1.8-4.4
		c0-1.7-0.5-3-1.6-4s-3-1.4-5.7-1.4H401.3z M401.3,153.5v13.9h13c1.4,0,2.4-0.1,3.2-0.2c1.1-0.2,2.1-0.6,2.8-1.1s1.4-1.3,1.9-2.4
		s0.8-2.3,0.8-3.6c0-1.4-0.3-2.6-1-3.7c-0.6-1.1-1.5-1.8-2.5-2.3s-2.9-0.6-5.5-0.6H401.3z"/>
</g>
<g>
	<g>
		<rect x="306" y="134.5" class="st1" width="0.8" height="39.2"/>
		<rect x="331.1" y="134.5" class="st1" width="0.8" height="39.2"/>
		<rect x="318.6" y="134.5" class="st1" width="0.8" height="39.2"/>
		<rect x="293.5" y="134.5" class="st1" width="0.8" height="39.2"/>
		<rect x="280.9" y="134.5" class="st1" width="0.8" height="39.2"/>
	</g>
	<g>
		<rect x="271" y="137.3" class="st1" width="70.9" height="0.8"/>
		<rect x="271" y="148.2" class="st1" width="70.9" height="0.8"/>
		<rect x="271" y="159.1" class="st1" width="70.9" height="0.8"/>
		<rect x="271" y="170" class="st1" width="70.9" height="0.8"/>
	</g>
</g>
<rect x="60" y="200.1" class="st0" width="337.7" height="1"/>
<g>
	<g>
		<g>
			<path class="st2" d="M446.1,74.3c0.1,0,0.2-0.1,0.3-0.2c0.1-0.2,0-0.4-0.1-0.5l-27.5-14c-0.1,0-0.1,0-0.2,0l-48.6,7.9
				c-0.2,0-0.3,0.2-0.3,0.4c0,0.2,0.2,0.3,0.4,0.3l48.5-7.9l27.4,13.9C446,74.3,446,74.3,446.1,74.3z"/>
		</g>
	</g>
	
		<rect x="419.1" y="73.5" transform="matrix(-1 -1.224647e-16 1.224647e-16 -1 861.7607 150.2122)" class="st3" width="23.5" height="3.2"/>
	<path class="st4" d="M441.1,78.4h11.8c2,0,3.5-1.6,3.5-3.5v-1.3c0-0.6-0.5-1-1-1h-16.8c-0.6,0-1,0.5-1,1v1.3
		C437.6,76.8,439.2,78.4,441.1,78.4z"/>
	<path class="st3" d="M419,62c-0.1-0.4-0.6-0.4-0.7,0l-2.2,12.3h-0.8l2.8-14.6c0.1-0.6,0.9-0.6,1,0l2.8,14.6h-0.8L419,62z"/>
	<path class="st3" d="M415.2,75.5v9.2h7.8v-9.2H415.2z M415.9,76.3h6.4v7.5h-6.4V76.3z"/>
	<g>
		<g>
			<path class="st4" d="M415.9,100.3C415.9,100.2,416,100.2,415.9,100.3l5.6-2l-5.5-1.9c0,0-0.1,0-0.1-0.1c0,0,0-0.1,0.1-0.1l5.7-2
				c0.1,0,0.2,0,0.2,0c0.1,0,0,0.1,0,0.1l-5.5,1.9l5.5,1.9c0,0,0,0,0,0c0,0,0,0,0,0c0,0,0,0,0,0c0,0,0,0,0,0c0,0,0,0,0,0
				c0,0,0,0,0,0c0,0,0,0,0,0c0,0,0,0.1-0.1,0.1l-5.5,1.9l5.5,1.9c0,0,0,0,0,0c0,0,0,0,0,0c0,0,0,0,0,0c0,0,0,0,0,0c0,0,0,0,0,0
				c0,0,0,0,0,0c0,0,0,0,0,0c0,0,0,0,0,0v0c0,0,0,0,0,0c0,0,0,0,0,0l-5.5,1.9l5.5,1.9c0,0,0,0,0,0c0,0,0,0,0,0c0,0,0,0,0,0
				c0,0,0,0,0,0c0,0,0,0,0,0c0,0,0,0,0,0c0,0,0,0,0,0c0,0,0,0,0,0c0,0,0,0,0,0c0,0,0,0,0,0c0,0,0,0,0,0l-5.5,1.9l5.5,1.9
				c0,0,0,0,0,0c0,0,0,0,0,0c0,0,0,0,0,0c0,0,0,0,0,0c0,0,0,0,0,0c0,0,0,0,0,0c0,0,0,0,0,0c0,0,0,0,0,0v0c0,0,0,0,0,0c0,0,0,0,0,0
				l-5.5,1.9l5.5,1.9c0,0,0,0,0,0c0,0,0,0,0,0c0,0,0,0,0,0c0,0,0,0,0,0c0,0,0,0,0,0c0,0,0,0,0,0c0,0,0,0,0,0c0,0,0,0,0,0v0
				c0,0,0,0,0,0c0,0,0,0,0,0l-5.5,1.9l5.5,1.9c0,0,0,0,0,0c0,0,0,0,0,0c0,0,0,0,0,0c0,0,0,0,0,0c0,0,0,0,0,0c0,0,0,0,0,0
				c0,0,0,0,0,0c0,0,0,0,0,0v0c0,0,0,0,0,0c0,0,0,0,0,0l-5.5,1.9l5.5,1.9c0,0,0.1,0,0.1,0.1c0,0,0,0,0,0c-0.1,0-0.2,0.1-0.2,0
				l-5.7-2c0,0-0.1,0-0.1-0.1c0,0,0-0.1,0.1-0.1l5.5-1.9l-5.5-1.9c0,0-0.1,0-0.1-0.1c0,0,0-0.1,0.1-0.1l5.5-1.9l-5.5-1.9
				c0,0-0.1,0-0.1-0.1s0-0.1,0.1-0.1l5.5-1.9l-5.5-1.9c0,0-0.1,0-0.1-0.1c0,0,0-0.1,0.1-0.1l5.5-1.9l-5.5-1.9c0,0-0.1,0-0.1-0.1
				c0,0,0-0.1,0.1-0.1l5.5-1.9L415.9,100.3C416,100.3,415.9,100.3,415.9,100.3z"/>
			<path class="st4" d="M415.9,124.1C415.9,124.1,416,124.1,415.9,124.1l5.8-2c0.1,0,0.2,0,0.2,0c0.1,0,0,0.1,0,0.1l-5.5,1.9
				l5.5,1.9c0,0,0,0,0,0c0,0,0,0,0,0c0,0,0,0,0,0c0,0,0,0,0,0c0,0,0,0,0,0c0,0,0,0,0,0c0,0,0,0,0,0c0,0,0,0.1-0.1,0.1l-5.5,1.9
				l5.5,1.9c0,0,0,0,0,0c0,0,0,0,0,0c0,0,0,0,0,0c0,0,0,0,0,0c0,0,0,0,0,0c0,0,0,0,0,0c0,0,0,0,0,0c0,0,0,0,0,0l0,0c0,0,0,0,0,0
				c0,0,0,0,0,0l-5.5,1.9l5.5,1.9c0,0,0,0,0,0c0,0,0,0,0,0c0,0,0,0,0,0c0,0,0,0,0,0c0,0,0,0,0,0c0,0,0,0,0,0c0,0,0,0,0,0
				c0,0,0,0,0,0l0,0c0,0,0,0,0,0c0,0,0,0,0,0l-5.5,1.9l5.5,1.9c0,0,0,0,0,0c0,0,0,0,0,0c0,0,0,0,0,0c0,0,0,0,0,0c0,0,0,0,0,0
				c0,0,0,0,0,0c0,0,0,0,0,0c0,0,0,0,0,0l0,0c0,0,0,0,0,0c0,0,0,0,0,0l-5.5,1.9l5.5,1.9c0,0,0,0,0,0c0,0,0,0,0,0c0,0,0,0,0,0
				c0,0,0,0,0,0c0,0,0,0,0,0c0,0,0,0,0,0c0,0,0,0,0,0c0,0,0,0,0,0l0,0c0,0,0,0,0,0c0,0,0,0,0,0l-5.5,1.9l5.5,1.9c0,0,0,0,0,0
				c0,0,0,0,0,0c0,0,0,0,0,0c0,0,0,0,0,0c0,0,0,0,0,0c0,0,0,0,0,0c0,0,0,0,0,0c0,0,0,0,0,0l0,0c0,0,0,0,0,0c0,0,0,0,0,0l-5.5,1.9
				l5.5,1.9c0,0,0.1,0,0.1,0.1c0,0,0,0,0,0c0,0,0,0.1-0.1,0.1l-5.5,1.9l5.5,1.9c0,0,0,0,0,0c0,0,0,0,0,0c0,0,0,0,0,0c0,0,0,0,0,0
				c0,0,0,0,0,0c0,0,0,0,0,0c0,0,0,0,0,0c0,0,0,0,0,0v0c0,0,0,0,0,0c0,0,0,0,0,0l-5.5,1.9l5.5,1.9c0,0,0,0,0,0c0,0,0,0,0,0
				c0,0,0,0,0,0c0,0,0,0,0,0c0,0,0,0,0,0c0,0,0,0,0,0c0,0,0,0,0,0c0,0,0,0,0,0l0,0c0,0,0,0,0,0c0,0,0,0,0,0l-5.5,1.9l5.5,1.9
				c0,0,0,0,0,0c0,0,0,0,0,0c0,0,0,0,0,0c0,0,0,0,0,0c0,0,0,0,0,0c0,0,0,0,0,0c0,0,0,0,0,0c0,0,0,0,0,0v0c0,0,0,0,0,0c0,0,0,0,0,0
				l-5.5,1.9l5.5,1.9c0,0,0.1,0,0.1,0.1c0,0,0,0,0,0.1c-0.1,0-0.2,0.1-0.2,0l-5.7-2c0,0-0.1,0-0.1-0.1s0-0.1,0.1-0.1l5.5-1.9
				l-5.5-1.9c0,0-0.1,0-0.1-0.1s0-0.1,0.1-0.1l5.5-1.9l-5.5-1.9c0,0-0.1,0-0.1-0.1s0-0.1,0.1-0.1l5.5-1.9l-5.5-1.9
				c0,0-0.1,0-0.1-0.1c0,0,0-0.1,0.1-0.1l5.5-1.9l-5.5-1.9c0,0-0.1,0-0.1-0.1c0,0,0-0.1,0.1-0.1l5.5-1.9L416,144c0,0-0.1,0-0.1-0.1
				c0,0,0-0.1,0.1-0.1l5.5-1.9L416,140c0,0-0.1,0-0.1-0.1c0,0,0-0.1,0.1-0.1l5.5-1.9l-5.5-1.9c0,0-0.1,0-0.1-0.1s0-0.1,0.1-0.1
				l5.5-1.9l-5.5-1.9c0,0-0.1,0-0.1-0.1c0,0,0-0.1,0.1-0.1l5.5-1.9l-5.5-1.9c0,0-0.1,0-0.1-0.1c0,0,0-0.1,0.1-0.1l5.5-1.9
				L415.9,124.1C416,124.2,415.9,124.2,415.9,124.1z"/>
		</g>
	</g>
	<g>
		<g>
			<path class="st5" d="M349.7,68.3C349.7,68.3,349.7,68.4,349.7,68.3l-2,5.6l-1.9-5.5c0,0,0-0.1-0.1-0.1s-0.1,0-0.1,0.1l-2,5.7
				c0,0.1,0,0.2,0,0.2c0,0.1,0.1,0,0.1,0l1.9-5.5l1.9,5.5c0,0,0,0,0,0c0,0,0,0,0,0c0,0,0,0,0,0c0,0,0,0,0,0c0,0,0,0,0,0c0,0,0,0,0,0
				c0,0,0,0,0,0c0,0,0.1,0,0.1-0.1l1.9-5.5l1.9,5.5c0,0,0,0,0,0c0,0,0,0,0,0c0,0,0,0,0,0c0,0,0,0,0,0c0,0,0,0,0,0c0,0,0,0,0,0
				c0,0,0,0,0,0c0,0,0,0,0,0c0,0,0,0,0,0c0,0,0,0,0,0c0,0,0,0,0,0l1.9-5.5l1.9,5.5c0,0,0,0,0,0c0,0,0,0,0,0c0,0,0,0,0,0c0,0,0,0,0,0
				c0,0,0,0,0,0c0,0,0,0,0,0c0,0,0,0,0,0c0,0,0,0,0,0c0,0,0,0,0,0c0,0,0,0,0,0c0,0,0,0,0,0l1.9-5.5l1.9,5.5c0,0,0,0,0,0c0,0,0,0,0,0
				c0,0,0,0,0,0c0,0,0,0,0,0c0,0,0,0,0,0c0,0,0,0,0,0c0,0,0,0,0,0c0,0,0,0,0,0c0,0,0,0,0,0c0,0,0,0,0,0c0,0,0,0,0,0l1.9-5.5l1.9,5.5
				c0,0,0,0,0,0c0,0,0,0,0,0c0,0,0,0,0,0c0,0,0,0,0,0c0,0,0,0,0,0c0,0,0,0,0,0c0,0,0,0,0,0c0,0,0,0,0,0c0,0,0,0,0,0c0,0,0,0,0,0
				c0,0,0,0,0,0l1.9-5.5l1.9,5.5c0,0,0,0,0,0c0,0,0,0,0,0c0,0,0,0,0,0c0,0,0,0,0,0c0,0,0,0,0,0c0,0,0,0,0,0c0,0,0,0,0,0c0,0,0,0,0,0
				c0,0,0,0,0,0c0,0,0,0,0,0c0,0,0,0,0,0l1.9-5.5l1.9,5.5c0,0,0,0.1,0.1,0.1c0,0,0,0,0,0c0-0.1,0.1-0.2,0-0.2l-2-5.7
				c0,0,0-0.1-0.1-0.1s-0.1,0-0.1,0.1l-1.9,5.5l-1.9-5.5c0,0,0-0.1-0.1-0.1s-0.1,0-0.1,0.1l-1.9,5.5l-1.9-5.5c0,0,0-0.1-0.1-0.1
				s-0.1,0-0.1,0.1l-1.9,5.5l-1.9-5.5c0,0,0-0.1-0.1-0.1s-0.1,0-0.1,0.1l-1.9,5.5l-1.9-5.5c0,0,0-0.1-0.1-0.1s-0.1,0-0.1,0.1
				l-1.9,5.5L349.7,68.3C349.8,68.4,349.8,68.3,349.7,68.3z"/>
			<path class="st5" d="M373.6,68.3C373.6,68.3,373.6,68.4,373.6,68.3l-2,5.8c0,0.1,0,0.2,0,0.2c0,0.1,0.1,0,0.1,0l1.9-5.5l1.9,5.5
				c0,0,0,0,0,0c0,0,0,0,0,0c0,0,0,0,0,0c0,0,0,0,0,0c0,0,0,0,0,0c0,0,0,0,0,0c0,0,0,0,0,0c0,0,0.1,0,0.1-0.1l1.9-5.5l1.9,5.5
				c0,0,0,0,0,0c0,0,0,0,0,0c0,0,0,0,0,0c0,0,0,0,0,0c0,0,0,0,0,0c0,0,0,0,0,0c0,0,0,0,0,0c0,0,0,0,0,0c0,0,0,0,0,0c0,0,0,0,0,0
				c0,0,0,0,0,0l1.9-5.5l1.9,5.5c0,0,0,0,0,0c0,0,0,0,0,0c0,0,0,0,0,0c0,0,0,0,0,0c0,0,0,0,0,0c0,0,0,0,0,0c0,0,0,0,0,0c0,0,0,0,0,0
				c0,0,0,0,0,0c0,0,0,0,0,0c0,0,0,0,0,0l1.9-5.5l1.9,5.5c0,0,0,0,0,0c0,0,0,0,0,0c0,0,0,0,0,0c0,0,0,0,0,0c0,0,0,0,0,0c0,0,0,0,0,0
				c0,0,0,0,0,0c0,0,0,0,0,0c0,0,0,0,0,0c0,0,0,0,0,0c0,0,0,0,0,0l1.9-5.5l1.9,5.5c0,0,0,0,0,0c0,0,0,0,0,0c0,0,0,0,0,0c0,0,0,0,0,0
				c0,0,0,0,0,0c0,0,0,0,0,0c0,0,0,0,0,0c0,0,0,0,0,0c0,0,0,0,0,0c0,0,0,0,0,0c0,0,0,0,0,0l1.9-5.5l1.9,5.5c0,0,0,0,0,0c0,0,0,0,0,0
				c0,0,0,0,0,0c0,0,0,0,0,0c0,0,0,0,0,0c0,0,0,0,0,0c0,0,0,0,0,0c0,0,0,0,0,0c0,0,0,0,0,0c0,0,0,0,0,0c0,0,0,0,0,0l1.9-5.5l1.9,5.5
				c0,0,0,0.1,0.1,0.1c0,0,0,0,0,0c0,0,0.1,0,0.1-0.1l1.9-5.5l1.9,5.5c0,0,0,0,0,0c0,0,0,0,0,0c0,0,0,0,0,0c0,0,0,0,0,0c0,0,0,0,0,0
				c0,0,0,0,0,0c0,0,0,0,0,0c0,0,0,0,0,0c0,0,0,0,0,0c0,0,0,0,0,0c0,0,0,0,0,0l1.9-5.5l1.9,5.5c0,0,0,0,0,0c0,0,0,0,0,0c0,0,0,0,0,0
				c0,0,0,0,0,0c0,0,0,0,0,0c0,0,0,0,0,0c0,0,0,0,0,0c0,0,0,0,0,0c0,0,0,0,0,0c0,0,0,0,0,0c0,0,0,0,0,0l1.9-5.5l1.9,5.5c0,0,0,0,0,0
				c0,0,0,0,0,0c0,0,0,0,0,0c0,0,0,0,0,0c0,0,0,0,0,0c0,0,0,0,0,0c0,0,0,0,0,0c0,0,0,0,0,0c0,0,0,0,0,0c0,0,0,0,0,0c0,0,0,0,0,0
				l1.9-5.5l1.9,5.5c0,0,0,0.1,0.1,0.1c0,0,0,0,0,0c0-0.1,0.1-0.2,0-0.2l-2-5.7c0,0,0-0.1-0.1-0.1s-0.1,0-0.1,0.1l-1.9,5.5l-1.9-5.5
				c0,0,0-0.1-0.1-0.1c0,0-0.1,0-0.1,0.1l-1.9,5.5l-1.9-5.5c0,0,0-0.1-0.1-0.1c0,0-0.1,0-0.1,0.1l-1.9,5.5l-1.9-5.5
				c0,0,0-0.1-0.1-0.1c0,0-0.1,0-0.1,0.1l-1.9,5.5l-1.9-5.5c0,0,0-0.1-0.1-0.1c0,0-0.1,0-0.1,0.1l-1.9,5.5l-1.9-5.5
				c0,0,0-0.1-0.1-0.1s-0.1,0-0.1,0.1l-1.9,5.5l-1.9-5.5c0,0,0-0.1-0.1-0.1c0,0-0.1,0-0.1,0.1l-1.9,5.5l-1.9-5.5c0,0,0-0.1-0.1-0.1
				c0,0-0.1,0-0.1,0.1l-1.9,5.5l-1.9-5.5c0,0,0-0.1-0.1-0.1c0,0-0.1,0-0.1,0.1l-1.9,5.5l-1.9-5.5c0,0,0-0.1-0.1-0.1s-0.1,0-0.1,0.1
				l-1.9,5.5L373.6,68.3C373.7,68.4,373.6,68.3,373.6,68.3z"/>
		</g>
	</g>
	<path class="st3" d="M415.2,93.7v72.7h7.5V93.7H415.2z M416.1,95.1h5.6v69.7h-5.6V95.1z"/>
	
		<rect x="415.8" y="98.1" transform="matrix(-1 -1.224647e-16 1.224647e-16 -1 837.7813 196.4514)" class="st3" width="6.2" height="0.3"/>
	
		<rect x="415.8" y="102.1" transform="matrix(-1 -1.224647e-16 1.224647e-16 -1 837.7813 204.3869)" class="st3" width="6.2" height="0.3"/>
	
		<rect x="415.8" y="106" transform="matrix(-1 -1.224647e-16 1.224647e-16 -1 837.7813 212.3195)" class="st3" width="6.2" height="0.3"/>
	
		<rect x="415.8" y="110" transform="matrix(-1 -1.224647e-16 1.224647e-16 -1 837.7813 220.2551)" class="st3" width="6.2" height="0.3"/>
	
		<rect x="415.8" y="114" transform="matrix(-1 -1.224647e-16 1.224647e-16 -1 837.7813 228.1887)" class="st3" width="6.2" height="0.3"/>
	
		<rect x="415.8" y="117.9" transform="matrix(-1 -1.224647e-16 1.224647e-16 -1 837.7813 236.1243)" class="st3" width="6.2" height="0.3"/>
	
		<rect x="415.8" y="121.9" transform="matrix(-1 -1.224647e-16 1.224647e-16 -1 837.7813 244.0578)" class="st3" width="6.2" height="0.3"/>
	
		<rect x="415.8" y="125.9" transform="matrix(-1 -1.224647e-16 1.224647e-16 -1 837.7813 251.9924)" class="st3" width="6.2" height="0.3"/>
	
		<rect x="415.8" y="129.8" transform="matrix(-1 -1.224647e-16 1.224647e-16 -1 837.7813 259.926)" class="st3" width="6.2" height="0.3"/>
	
		<rect x="415.8" y="133.8" transform="matrix(-1 -1.224647e-16 1.224647e-16 -1 837.7813 267.8615)" class="st3" width="6.2" height="0.3"/>
	
		<rect x="415.8" y="137.8" transform="matrix(-1 -1.224647e-16 1.224647e-16 -1 837.7813 275.7951)" class="st3" width="6.2" height="0.3"/>
	
		<rect x="415.8" y="141.7" transform="matrix(-1 -1.224647e-16 1.224647e-16 -1 837.7813 283.7307)" class="st3" width="6.2" height="0.3"/>
	
		<rect x="415.8" y="145.7" transform="matrix(-1 -1.224647e-16 1.224647e-16 -1 837.7813 291.6643)" class="st3" width="6.2" height="0.3"/>
	
		<rect x="415.8" y="149.7" transform="matrix(-1 -1.224647e-16 1.224647e-16 -1 837.7813 299.5989)" class="st3" width="6.2" height="0.3"/>
	
		<rect x="415.8" y="153.6" transform="matrix(-1 -1.224647e-16 1.224647e-16 -1 837.7813 307.5335)" class="st3" width="6.2" height="0.3"/>
	
		<rect x="415.8" y="157.6" transform="matrix(-1 -1.224647e-16 1.224647e-16 -1 837.7813 315.468)" class="st3" width="6.2" height="0.3"/>
	
		<rect x="415.8" y="161.6" transform="matrix(-1 -1.224647e-16 1.224647e-16 -1 837.7813 323.4025)" class="st3" width="6.2" height="0.3"/>
	
		<rect x="343.1" y="74" transform="matrix(-1 -1.224647e-16 1.224647e-16 -1 758.2813 149.4475)" class="st3" width="72.1" height="1.5"/>
	<path class="st3" d="M345.7,68.6h67.6l0,0c0-0.8-0.7-1.5-1.5-1.5h-66.1V68.6z"/>
	<path class="st4" d="M414,93.7h10c0.8,0,1.5-0.7,1.5-1.5l0,0c0-0.8-0.7-1.5-1.5-1.5h-10c-0.8,0-1.5,0.7-1.5,1.5l0,0
		C412.5,93,413.1,93.7,414,93.7z"/>
	<path class="st3" d="M423.6,85.1v5.5h-9.9V85c0-0.6,0.5-1.2,1.2-1.2h7.5C423,83.8,423.6,84.4,423.6,85.1z"/>
	<polygon class="st3" points="415.6,83.6 422.7,76.6 422,76 415.3,82.7 	"/>
	<path class="st6" d="M416,85v3.7c0,0.5-0.4,0.8-0.8,0.8h-2.6c-0.7,0-1.2-0.5-1.2-1.2v-1c0-1.9,1.6-3.5,3.5-3.5l0,0
		C415.5,83.8,416,84.4,416,85z"/>
	<path class="st4" d="M415,76.7h8.3c0.9,0,1.6-0.7,1.6-1.6l0,0c0-0.9-0.7-1.6-1.6-1.6H415c-0.9,0-1.6,0.7-1.6,1.6l0,0
		C413.4,76,414.1,76.7,415,76.7z"/>
	
		<rect x="416.4" y="69.9" transform="matrix(-1 -1.224647e-16 1.224647e-16 -1 837.2324 140.5793)" class="st3" width="4.4" height="0.7"/>
	
		<rect x="417.3" y="65.9" transform="matrix(-1 -1.224647e-16 1.224647e-16 -1 837.2324 132.4494)" class="st3" width="2.7" height="0.7"/>
	<path class="st4" d="M363.8,77.3h8.3c0.7,0,1.3-0.6,1.3-1.3l0,0c0-0.7-0.6-1.3-1.3-1.3h-8.3c-0.7,0-1.3,0.6-1.3,1.3l0,0
		C362.5,76.7,363.1,77.3,363.8,77.3z"/>
	<path class="st7" d="M412.4,170.7h13v-2.3c0-1.1-0.9-2-2-2h-8.9c-1.1,0-2,0.9-2,2V170.7z"/>
	<path class="st8" d="M411,173.2h15.8c0.5,0,0.8-0.4,0.8-0.8v-0.8c0-0.6-0.5-1.1-1.1-1.1h-15.4c-0.6,0-1.1,0.5-1.1,1.1v0.8
		C410.2,172.9,410.5,173.2,411,173.2z"/>
	<path class="st3" d="M353.6,126.2c0.1,0,0.1,0,0.2-0.1l14.3-10.9c0.1-0.1,0.2-0.3,0.1-0.5c-0.1-0.1-0.3-0.2-0.5-0.1l-14.3,10.9
		c-0.1,0.1-0.2,0.3-0.1,0.5C353.4,126.1,353.5,126.2,353.6,126.2z"/>
	<path class="st6" d="M366.8,112.1c0.2-0.1,0.3-0.3,0.3-0.6v-2h1.6v2c0,0.9-0.4,1.6-1.1,2c-0.3,0.1-0.4,0.4-0.4,0.7
		c0,0.4,0.3,0.8,0.8,0.8c0.4,0,0.8-0.3,0.8-0.8c0-0.4,0.3-0.8,0.8-0.8c0.4,0,0.8,0.3,0.8,0.8c0,1.3-1,2.3-2.3,2.3
		c-1.3,0-2.3-1-2.3-2.3C365.6,113.3,366.1,112.5,366.8,112.1L366.8,112.1z"/>
	
		<rect x="367.1" y="77.3" transform="matrix(-1 -1.224647e-16 1.224647e-16 -1 735.8379 182.6252)" class="st6" width="1.6" height="28.1"/>
	<path class="st3" d="M367.9,110.5L367.9,110.5c1,0,1.9-0.8,1.9-1.9v-3.3c0-1-0.8-1.9-1.9-1.9l0,0c-1,0-1.9,0.8-1.9,1.9v3.3
		C366,109.7,366.9,110.5,367.9,110.5z"/>
	<path class="st3" d="M382.2,126.2c0.1,0,0.2,0,0.3-0.1c0.1-0.1,0.1-0.4-0.1-0.5l-14.3-10.9c-0.1-0.1-0.4-0.1-0.5,0.1
		c-0.1,0.1-0.1,0.4,0.1,0.5l14.3,10.9C382.1,126.2,382.2,126.2,382.2,126.2z"/>
	<path class="st9" d="M352.9,127.3h29.3c0.5,0,0.8-0.4,0.8-0.8v-0.6c0-0.5-0.4-0.8-0.8-0.8h-29.3c-0.5,0-0.8,0.4-0.8,0.8v0.6
		C352.1,127,352.5,127.3,352.9,127.3z"/>
</g>
<g>
	<path class="st10" d="M66.5,169.4l0.2-0.1c0.1-0.1,0.1-0.2,0-0.2l-1-1.4c-0.1-0.1-0.2-0.1-0.2,0l-0.2,0.1c-0.1,0.1-0.1,0.2,0,0.2
		l1,1.4C66.3,169.4,66.4,169.4,66.5,169.4z"/>
	
		<rect x="64.9" y="166.6" transform="matrix(-0.8111 0.585 -0.585 -0.8111 215.5381 264.7172)" class="st11" width="0.2" height="1.1"/>
	<path class="st10" d="M54.9,166.3c0.3,0,0.6,0.2,0.7,0.5l0.7,3.6H53v-4.2L54.9,166.3z"/>
	<path class="st3" d="M45,167.7l0.5-0.5l1.2-3c0.1-0.3,0.4-0.5,0.8-0.5h4.7c0.4,0,0.7,0.3,0.7,0.7v7.9h-7.4h-0.5
		c-0.3,0-0.6-0.3-0.6-0.6v-2.8C44.5,168.4,44.7,168,45,167.7z"/>
	<path class="st12" d="M52,164.8v1.6c0,0.2-0.2,0.4-0.4,0.4H47c-0.3,0-0.5-0.3-0.4-0.6l0.6-1.6c0.1-0.2,0.2-0.3,0.4-0.3h3.9
		C51.8,164.4,52,164.5,52,164.8z"/>
	<path class="st13" d="M52.9,172.3H74v-0.7c0-0.2-0.1-0.3-0.3-0.3H52.9V172.3z"/>
	<path class="st10" d="M45.7,173.6h27.5c0.4,0,0.8-0.4,0.8-0.8v-0.6h-29v0.7C45.1,173.4,45.4,173.6,45.7,173.6z"/>
	<path class="st14" d="M73.6,170.7v0.6H53v-1h19.9C73.3,170.3,73.6,170.3,73.6,170.7z"/>
	<path class="st13" d="M45,167.7l0.3-0.2H53v0.3L45,167.7C45,167.7,45,167.7,45,167.7z"/>
	<path class="st15" d="M51.4,171c-1.5,0-2.7,1-3.1,2.4c-0.1,0.4-0.5,0.7-0.9,0.7l0,0c0,0-0.1,0-0.1-0.1c0-2.2,1.8-4,4.1-4
		c2.2,0,4,1.8,4.1,4c0,0,0,0.1-0.1,0.1l0,0c-0.4,0-0.8-0.3-0.9-0.7C54.1,172.1,52.9,171,51.4,171z"/>
	<path class="st13" d="M48.3,173.5c0.3-1.4,1.6-2.4,3.1-2.4c1.5,0,2.7,1,3.1,2.4c0,0.1,0,0.1,0.1,0.2h-6.3
		C48.2,173.6,48.3,173.5,48.3,173.5z"/>
	<path class="st16" d="M48.5,174.2c0,1.6,1.3,2.9,2.9,2.9c1.6,0,2.9-1.3,2.9-2.9s-1.3-2.9-2.9-2.9C49.8,171.3,48.5,172.6,48.5,174.2
		z"/>
	<path class="st3" d="M50.4,174.2c0,0.6,0.4,1,1,1c0.6,0,1-0.4,1-1c0-0.6-0.4-1-1-1C50.8,173.2,50.4,173.7,50.4,174.2z"/>
	<path class="st11" d="M46,172.2v0.9c0,0.5-0.4,0.9-0.9,0.9h-0.7c-0.5,0-0.9-0.4-0.9-0.9v-0.6c0-0.5,0.4-0.9,0.9-0.9h1
		C45.7,171.6,46,171.9,46,172.2z"/>
	<path class="st15" d="M63.6,170.1h6.9c2.2,0,4,1.8,4.1,4c0,0,0,0.1-0.1,0.1c-0.4,0-0.8-0.3-0.9-0.7c-0.3-1.4-1.6-2.4-3.1-2.4v0
		h-6.9v0c-1.5,0-2.7,1-3.1,2.4c-0.1,0.4-0.5,0.7-0.9,0.7c0,0-0.1,0-0.1-0.1C59.6,171.9,61.4,170.1,63.6,170.1z"/>
	<path class="st14" d="M60.5,173.5c0.3-1.4,1.6-2.4,3.1-2.4v0h6.9v0c1.5,0,2.7,1,3.1,2.4c0,0.1,0,0.1,0.1,0.2H60.5
		C60.5,173.6,60.5,173.5,60.5,173.5z"/>
	<path class="st16" d="M60.9,174.2c0,1.6,1.3,2.9,2.9,2.9c1.6,0,2.9-1.3,2.9-2.9s-1.3-2.9-2.9-2.9C62.2,171.3,60.9,172.6,60.9,174.2
		z"/>
	<path class="st3" d="M62.8,174.2c0,0.6,0.4,1,1,1c0.6,0,1-0.4,1-1c0-0.6-0.4-1-1-1C63.3,173.2,62.8,173.7,62.8,174.2z"/>
	<path class="st16" d="M67.5,174.2c0,1.6,1.3,2.9,2.9,2.9c1.6,0,2.9-1.3,2.9-2.9s-1.3-2.9-2.9-2.9C68.8,171.3,67.5,172.6,67.5,174.2
		z"/>
	<path class="st3" d="M69.4,174.2c0,0.6,0.4,1,1,1c0.6,0,1-0.4,1-1c0-0.6-0.4-1-1-1C69.8,173.2,69.4,173.7,69.4,174.2z"/>
	<path class="st14" d="M66.2,170.1h4.5v-0.6c0-0.3-0.2-0.6-0.6-0.6h-3.4c-0.3,0-0.6,0.2-0.6,0.6V170.1z"/>
	<g>
		<path class="st3" d="M71.7,169.7l-15.3-6.3c-0.4-0.2-0.7-0.6-0.6-1.1l0.7-7.3c0-0.5-0.2-1-0.7-1.2l-3.1-1.3
			c-0.2-0.1-0.4-0.3-0.4-0.6l0,0c0-0.4,0.3-0.7,0.7-0.6l4.2,0.5c0.2,0,0.3,0.1,0.5,0.2L78,164.3c0.4,0.2,0.5,0.8,0.3,1.2l-1.9,2.9
			l-3.1,1.4C72.8,169.9,72.2,169.9,71.7,169.7z"/>
		<path class="st17" d="M57.4,162.6l2.3-5.5c0.1-0.1,0-0.3-0.1-0.3l0,0c-0.1,0-0.3,0-0.3,0.1l-2.3,5.5c-0.1,0.1,0,0.3,0.1,0.3l0,0
			C57.2,162.8,57.4,162.8,57.4,162.6z"/>
		<path class="st17" d="M60.1,163.7l2.3-5.5c0.1-0.1,0-0.3-0.1-0.3l0,0c-0.1-0.1-0.3,0-0.3,0.1l-2.3,5.5c-0.1,0.1,0,0.3,0.1,0.3l0,0
			C59.9,163.9,60,163.8,60.1,163.7z"/>
		<path class="st17" d="M62.7,164.8l2.3-5.5c0.1-0.1,0-0.3-0.1-0.3l0,0c-0.1-0.1-0.3,0-0.3,0.1l-2.3,5.5c-0.1,0.1,0,0.3,0.1,0.3l0,0
			C62.5,165,62.7,164.9,62.7,164.8z"/>
		<path class="st17" d="M65.3,165.9l2.3-5.5c0.1-0.1,0-0.3-0.1-0.3l0,0c-0.1-0.1-0.3,0-0.3,0.1l-2.3,5.5c-0.1,0.1,0,0.3,0.1,0.3l0,0
			C65.2,166.1,65.3,166,65.3,165.9z"/>
		<path class="st17" d="M68,167l2.3-5.5c0.1-0.1,0-0.3-0.1-0.3l0,0c-0.1-0.1-0.3,0-0.3,0.1l-2.3,5.5c-0.1,0.1,0,0.3,0.1,0.3l0,0
			C67.8,167.2,67.9,167.1,68,167z"/>
		<path class="st17" d="M70.6,168.1l2.3-5.5c0.1-0.1,0-0.3-0.1-0.3l0,0c-0.1,0-0.3,0-0.3,0.1l-2.3,5.5c0,0.1,0,0.3,0.1,0.3l0,0
			C70.4,168.3,70.6,168.2,70.6,168.1z"/>
		<path class="st17" d="M73.3,169.2l2.3-5.5c0.1-0.1,0-0.3-0.1-0.3l0,0c-0.1-0.1-0.3,0-0.3,0.1l-2.3,5.5c-0.1,0.1,0,0.3,0.1,0.3l0,0
			C73.1,169.4,73.2,169.3,73.3,169.2z"/>
	</g>
	<path class="st13" d="M50.3,168.6H51c0.1,0,0.2-0.1,0.2-0.2l0,0c0-0.1-0.1-0.2-0.2-0.2h-0.7c-0.1,0-0.2,0.1-0.2,0.2l0,0
		C50.1,168.5,50.2,168.6,50.3,168.6z"/>
</g>
<g>
	<path class="st18" d="M147.6,168.9h-1.4v-1c0-0.4,0.3-0.7,0.7-0.7h0c0.4,0,0.7,0.3,0.7,0.7L147.6,168.9L147.6,168.9L147.6,168.9z"
		/>
	<path class="st19" d="M147.8,169.1h-1.7v-0.2c0-0.1,0.1-0.1,0.2-0.1h1.4c0.1,0,0.1,0.1,0.1,0.1L147.8,169.1L147.8,169.1
		L147.8,169.1z"/>
	<path class="st20" d="M146.7,167.7c-0.1,0.1-0.2,0.1-0.3,0.1c-0.1-0.1,0-0.2,0.1-0.3c0.1-0.1,0.2-0.1,0.3-0.1
		C146.9,167.5,146.8,167.6,146.7,167.7L146.7,167.7z"/>
	<path class="st18" d="M157.1,168.9h-1.4v-1c0-0.4,0.3-0.7,0.7-0.7h0c0.4,0,0.7,0.3,0.7,0.7L157.1,168.9L157.1,168.9L157.1,168.9z"
		/>
	<path class="st19" d="M157.2,169.1h-1.7v-0.2c0-0.1,0.1-0.1,0.1-0.1h1.4c0.1,0,0.2,0.1,0.2,0.1L157.2,169.1L157.2,169.1
		L157.2,169.1z"/>
	<path class="st20" d="M156.2,167.7c-0.1,0.1-0.2,0.1-0.3,0.1c-0.1-0.1,0-0.2,0.1-0.3c0.1-0.1,0.2-0.1,0.3-0.1
		C156.4,167.5,156.3,167.6,156.2,167.7L156.2,167.7z"/>
	<polygon class="st21" points="155.4,173.2 156.4,173.2 156.4,177.1 155.4,177.1 155.4,173.2 	"/>
	<path class="st19" d="M157.1,177.1v-0.3c0-0.2-0.1-0.3-0.3-0.3H155c-0.2,0-0.3,0.1-0.3,0.3v0.3H157.1L157.1,177.1z"/>
	<polygon class="st21" points="146.9,173.2 148,173.2 148,177.1 146.9,177.1 146.9,173.2 	"/>
	<path class="st22" d="M157.8,169.1h-12.3c-0.1,0-0.2,0.1-0.2,0.2v3.8c0,0.1,0.1,0.2,0.2,0.2h12.3c0.1,0,0.2-0.1,0.2-0.2v-3.8
		C158,169.1,157.9,169.1,157.8,169.1L157.8,169.1z"/>
	<polygon class="st18" points="157.2,173.2 156,173.2 155.1,169.1 156.4,169.1 157.2,173.2 	"/>
	<polygon class="st18" points="154.2,173.2 153,173.2 152.1,169.1 153.4,169.1 154.2,173.2 	"/>
	<polygon class="st18" points="151.2,173.2 149.9,173.2 149.1,169.1 150.3,169.1 151.2,173.2 	"/>
	<polygon class="st18" points="148.2,173.2 146.9,173.2 146.1,169.1 147.3,169.1 148.2,173.2 	"/>
	<path class="st19" d="M148.6,177.1v-0.3c0-0.2-0.1-0.3-0.3-0.3h-1.7c-0.2,0-0.3,0.1-0.3,0.3v0.3H148.6L148.6,177.1z"/>
</g>
<g>
	<g>
		<rect x="102.5" y="137.3" class="st1" width="39.2" height="0.8"/>
		<rect x="102.5" y="112.2" class="st1" width="39.2" height="0.8"/>
		<rect x="102.5" y="124.8" class="st1" width="39.2" height="0.8"/>
		<rect x="102.5" y="149.9" class="st1" width="39.2" height="0.8"/>
		<rect x="102.5" y="162.5" class="st1" width="39.2" height="0.8"/>
	</g>
	<g>
		<rect x="105.4" y="102.3" class="st1" width="0.8" height="70.9"/>
		<rect x="116.2" y="102.3" class="st1" width="0.8" height="70.9"/>
		<rect x="127.1" y="102.3" class="st1" width="0.8" height="70.9"/>
		<rect x="138" y="102.3" class="st1" width="0.8" height="70.9"/>
	</g>
</g>
<g>
	<path class="st11" d="M391.5,172c0,2.8,2.3,5.1,5.1,5.1c2.8,0,5.1-2.3,5.1-5.1c0-2.8-2.3-5.1-5.1-5.1
		C393.8,166.8,391.5,169.1,391.5,172z"/>
	<path class="st3" d="M370.2,173.9v-5.8c0,0-0.5-3.4,12-3.4h9.8c0.4,0,0.7,0.2,0.9,0.5l0.3,0.4c0.2,0.4,0.2,0.8-0.1,1.2l-3.3,3.7
		v3.4H370.2z"/>
	<path class="st10" d="M392,164.7l-1-7.2c-0.1-0.6-0.6-1.1-1.3-1.1h-6.7c-0.7,0-1.3,0.6-1.3,1.3v7H392z"/>
	<path class="st12" d="M390.2,157.7l0.8,5.4c0.1,0.3-0.2,0.7-0.6,0.7h-2.2v-6.5h1.4C389.9,157.2,390.1,157.4,390.2,157.7z"/>
	<path class="st12" d="M383.3,163.8h4.3v-6.5h-4.3c-0.4,0-0.6,0.3-0.6,0.6v5.2C382.7,163.5,383,163.8,383.3,163.8z"/>
	<path class="st13" d="M392.3,172c0,2.4,1.9,4.3,4.3,4.3c2.4,0,4.3-1.9,4.3-4.3c0-2.4-1.9-4.3-4.3-4.3
		C394.2,167.7,392.3,169.6,392.3,172z"/>
	<path class="st13" d="M373.3,170.5c0.8-1.5,2.5-2.6,4.3-2.6c1.9,0,3.5,1,4.3,2.6h7.8v3.4h-7.3h-9.6h-2.5v-3.4H373.3z"/>
	<path class="st10" d="M372.5,171.3v2c0,0.6-0.5,1.1-1.1,1.1h-1.3c-0.2,0-0.5-0.1-0.7-0.2l-1.3-0.8c-0.2-0.2-0.4-0.4-0.4-0.7v-1.3
		c0-0.5,0.4-0.8,0.8-0.8h3.2C372.2,170.5,372.5,170.9,372.5,171.3z"/>
	<path class="st3" d="M387.7,174.2l15.6-0.4c0.4,0,0.7-0.3,0.7-0.7V172c0-0.4-0.3-0.7-0.7-0.7l-15.6-0.4c-0.3,0-0.6,0.2-0.6,0.6v2.3
		C387.1,174,387.4,174.3,387.7,174.2z"/>
	<path class="st13" d="M396.1,172.5c0,0.3,0.2,0.5,0.5,0.5c0.3,0,0.5-0.2,0.5-0.5s-0.2-0.5-0.5-0.5
		C396.3,172,396.1,172.2,396.1,172.5z"/>
	<path class="st16" d="M373.4,172.9c0,2.3,1.9,4.2,4.2,4.2c2.3,0,4.2-1.9,4.2-4.2c0-2.3-1.9-4.2-4.2-4.2
		C375.3,168.6,373.4,170.5,373.4,172.9z"/>
	<path class="st3" d="M375.5,172.9c0,1.2,0.9,2.1,2.1,2.1c1.2,0,2.1-0.9,2.1-2.1c0-1.2-0.9-2.1-2.1-2.1
		C376.4,170.8,375.5,171.7,375.5,172.9z"/>
	<path class="st13" d="M384.8,169.7h2.6c0.2,0,0.3-0.1,0.4-0.3l0.2-0.6c0.1-0.3-0.1-0.6-0.4-0.6h-2.9c-0.3,0-0.5,0.3-0.4,0.6
		l0.2,0.6C384.4,169.6,384.6,169.7,384.8,169.7z"/>
	<path class="st23" d="M381.7,167.9L381.7,167.9c0.1,0,0.1,0,0.1-0.1v-2.5c0-0.1-0.1-0.1-0.1-0.1l0,0c-0.1,0-0.1,0.1-0.1,0.1v2.5
		C381.6,167.9,381.6,167.9,381.7,167.9z"/>
	<path class="st23" d="M381.2,167.9L381.2,167.9c0.1,0,0.1,0,0.1-0.1v-2.5c0-0.1-0.1-0.1-0.1-0.1l0,0c-0.1,0-0.1,0.1-0.1,0.1v2.5
		C381.1,167.9,381.2,167.9,381.2,167.9z"/>
	<path class="st23" d="M380.8,167.9L380.8,167.9c0.1,0,0.1,0,0.1-0.1v-2.5c0-0.1,0-0.1-0.1-0.1l0,0c-0.1,0-0.1,0.1-0.1,0.1v2.5
		C380.7,167.9,380.8,167.9,380.8,167.9z"/>
	<path class="st23" d="M380.4,167.9L380.4,167.9c0.1,0,0.1,0,0.1-0.1v-2.5c0-0.1,0-0.1-0.1-0.1l0,0c-0.1,0-0.1,0.1-0.1,0.1v2.5
		C380.3,167.9,380.3,167.9,380.4,167.9z"/>
</g>
<g>
	<path class="st18" d="M349.2,168.9h-1.4v-1c0-0.4,0.3-0.7,0.7-0.7h0c0.4,0,0.7,0.3,0.7,0.7L349.2,168.9L349.2,168.9L349.2,168.9z"
		/>
	<path class="st19" d="M349.4,169.1h-1.7v-0.2c0-0.1,0.1-0.1,0.2-0.1h1.4c0.1,0,0.1,0.1,0.1,0.1L349.4,169.1L349.4,169.1
		L349.4,169.1z"/>
	<path class="st20" d="M348.3,167.7c-0.1,0.1-0.2,0.1-0.3,0.1c-0.1-0.1,0-0.2,0.1-0.3c0.1-0.1,0.2-0.1,0.3-0.1
		C348.5,167.5,348.4,167.6,348.3,167.7L348.3,167.7z"/>
	<path class="st18" d="M358.7,168.9h-1.4v-1c0-0.4,0.3-0.7,0.7-0.7h0c0.4,0,0.7,0.3,0.7,0.7L358.7,168.9L358.7,168.9L358.7,168.9z"
		/>
	<path class="st19" d="M358.9,169.1h-1.7v-0.2c0-0.1,0.1-0.1,0.1-0.1h1.4c0.1,0,0.2,0.1,0.2,0.1L358.9,169.1L358.9,169.1
		L358.9,169.1z"/>
	<path class="st20" d="M357.8,167.7c-0.1,0.1-0.2,0.1-0.3,0.1c-0.1-0.1,0-0.2,0.1-0.3c0.1-0.1,0.2-0.1,0.3-0.1
		C358,167.5,357.9,167.6,357.8,167.7L357.8,167.7z"/>
	<polygon class="st21" points="357,173.2 358,173.2 358,177.1 357,177.1 357,173.2 	"/>
	<path class="st19" d="M358.7,177.1v-0.3c0-0.2-0.1-0.3-0.3-0.3h-1.7c-0.2,0-0.3,0.1-0.3,0.3v0.3H358.7L358.7,177.1z"/>
	<polygon class="st21" points="348.5,173.2 349.6,173.2 349.6,177.1 348.5,177.1 348.5,173.2 	"/>
	<path class="st22" d="M359.4,169.1h-12.3c-0.1,0-0.2,0.1-0.2,0.2v3.8c0,0.1,0.1,0.2,0.2,0.2h12.3c0.1,0,0.2-0.1,0.2-0.2v-3.8
		C359.6,169.1,359.5,169.1,359.4,169.1L359.4,169.1z"/>
	<polygon class="st18" points="358.9,173.2 357.6,173.2 356.7,169.1 358,169.1 358.9,173.2 	"/>
	<polygon class="st18" points="355.8,173.2 354.6,173.2 353.7,169.1 355,169.1 355.8,173.2 	"/>
	<polygon class="st18" points="352.8,173.2 351.6,173.2 350.7,169.1 352,169.1 352.8,173.2 	"/>
	<polygon class="st18" points="349.8,173.2 348.5,173.2 347.7,169.1 349,169.1 349.8,173.2 	"/>
	<path class="st19" d="M350.2,177.1v-0.3c0-0.2-0.1-0.3-0.3-0.3h-1.7c-0.2,0-0.3,0.1-0.3,0.3v0.3H350.2L350.2,177.1z"/>
</g>
<g>
	<path class="st0" d="M135.6,230.6v-17.2h12.8v3h-9.2v3.8h8.4v3h-8.4v4.5h9.6v3H135.6z"/>
	<path class="st0" d="M151.4,230.6v-17.2h3.8l6.9,12v-12h3.4v17.2h-3.6l-7.1-12.3v12.3H151.4z"/>
	<path class="st0" d="M186.6,219c-0.3-1-0.7-1.7-1.1-2.1c-0.7-0.6-1.5-0.9-2.6-0.9c-0.9,0-1.7,0.2-2.3,0.6s-1.2,1.1-1.6,2.1
		s-0.6,2-0.6,3.3s0.2,2.3,0.6,3.3s0.9,1.6,1.5,2s1.4,0.6,2.2,0.6c0.6,0,1.2-0.1,1.8-0.4s1-0.6,1.3-1s0.6-1.1,0.8-1.8h3.6
		c-0.2,0.9-0.4,1.7-0.6,2.2c-0.3,0.7-0.8,1.4-1.4,2.1s-1.4,1.2-2.3,1.5s-1.9,0.5-2.9,0.5c-1.2,0-2.3-0.2-3.3-0.6s-1.9-1-2.6-1.7
		s-1.3-1.8-1.6-2.9s-0.6-2.4-0.6-3.7c0-1.6,0.3-3.1,0.8-4.4c0.4-1,0.8-1.8,1.5-2.4s1.3-1.2,2.2-1.6c1.1-0.5,2.3-0.8,3.6-0.8
		c1.1,0,2.2,0.2,3.1,0.6s1.7,0.9,2.3,1.5s1.1,1.3,1.4,2.1c0.2,0.5,0.4,1.2,0.5,1.9H186.6z"/>
	<path class="st0" d="M191.5,222c0-1.8,0.3-3.4,1-4.8s1.6-2.5,2.9-3.2s2.7-1.1,4.3-1.1c1.7,0,3.2,0.4,4.5,1.2s2.3,1.9,2.9,3.3
		s1,2.9,1,4.6c0,1.7-0.4,3.3-1.1,4.7s-1.7,2.5-3,3.2s-2.7,1.1-4.3,1.1c-1.6,0-3-0.4-4.3-1.1s-2.2-1.8-2.9-3.2S191.5,223.7,191.5,222
		z M199.8,227.9c0.9,0,1.7-0.2,2.4-0.7s1.3-1.2,1.7-2.1s0.6-2,0.6-3.1c0-1.1-0.2-2.2-0.6-3.1s-0.9-1.6-1.7-2.1s-1.5-0.7-2.4-0.7
		c-0.9,0-1.7,0.2-2.4,0.7s-1.3,1.2-1.7,2.1s-0.6,2-0.6,3.1c0,1.1,0.2,2.1,0.6,3.1s0.9,1.7,1.7,2.1S198.9,227.9,199.8,227.9z"/>
	<path class="st0" d="M210.8,230.6v-17.2h3.8l6.9,12v-12h3.4v17.2h-3.6l-7.1-12.3v12.3H210.8z"/>
	<path class="st0" d="M230.9,225.3c0,0.6,0.1,1,0.3,1.3c0.3,0.4,0.7,0.8,1.3,1s1.3,0.4,2.1,0.4c1.2,0,2.2-0.3,2.8-0.8
		c0.5-0.4,0.7-0.8,0.7-1.4c0-0.4-0.1-0.7-0.3-1s-0.5-0.5-0.9-0.6c-0.4-0.2-1-0.3-1.9-0.5l-1.9-0.4c-1.2-0.3-2-0.5-2.6-0.7
		c-0.7-0.3-1.3-0.6-1.7-1s-0.7-0.8-0.9-1.4s-0.3-1.2-0.3-1.9c0-1.3,0.3-2.3,0.9-3.1s1.4-1.4,2.4-1.8s2.1-0.5,3.2-0.5
		c0.9,0,1.7,0.1,2.5,0.3s1.4,0.5,2,0.8s1,0.7,1.3,1.2s0.6,0.9,0.8,1.4s0.2,1.1,0.3,1.9h-3.5c0-0.5-0.1-1-0.4-1.4s-0.6-0.7-1.1-0.9
		s-1.2-0.4-2-0.4c-1.1,0-1.9,0.2-2.4,0.6s-0.8,0.9-0.8,1.5c0,0.6,0.2,1,0.6,1.3c0.2,0.2,0.9,0.4,1.9,0.6l3.5,0.8
		c0.9,0.2,1.7,0.5,2.2,0.8c0.8,0.4,1.3,1,1.7,1.6s0.6,1.4,0.6,2.3c0,0.8-0.1,1.5-0.4,2.1s-0.6,1.1-0.9,1.5s-0.8,0.7-1.4,1
		s-1.2,0.5-2.1,0.7s-1.6,0.3-2.5,0.3c-1,0-2-0.1-3-0.4c-0.7-0.2-1.2-0.5-1.7-0.8s-0.9-0.7-1.2-1.2s-0.6-0.9-0.7-1.4
		s-0.2-1.1-0.3-1.9H230.9z"/>
	<path class="st0" d="M241.8,216.3v-3h14.1v3h-5.3v14.3H247v-14.3H241.8z"/>
	<path class="st0" d="M257.8,213.3h8.5c1.3,0,2.4,0.2,3.1,0.6s1.4,1,1.8,1.7s0.7,1.6,0.7,2.6c0,1-0.2,1.9-0.7,2.6s-1.1,1.2-2,1.5
		c0.9,0.3,1.5,0.8,1.8,1.5c0.2,0.5,0.4,1.3,0.4,2.5v1.2c0,1,0.1,1.7,0.2,2c0.1,0.2,0.3,0.4,0.6,0.6v0.4h-4c-0.3-0.8-0.4-1.6-0.4-2.4
		v-1.6c0-0.8-0.1-1.4-0.3-1.7s-0.4-0.6-0.8-0.8s-0.9-0.2-1.7-0.2h-3.7v6.8h-3.6V213.3z M261.4,216.3v4.6h4.1c0.9,0,1.6-0.1,2-0.4
		c0.6-0.4,0.9-1,0.9-1.9c0-0.9-0.3-1.5-0.9-1.9c-0.4-0.3-1-0.4-1.9-0.4H261.4z"/>
	<path class="st0" d="M284.4,213.3h3.6v10.6c0,1-0.1,1.8-0.2,2.4c-0.2,0.8-0.4,1.5-0.8,2.1s-0.8,1-1.4,1.4s-1.2,0.6-2,0.9
		s-1.6,0.3-2.6,0.3c-1,0-1.9-0.1-2.8-0.4s-1.5-0.6-2.1-1s-1-0.9-1.3-1.5s-0.5-1.2-0.7-2.1c-0.1-0.5-0.1-1.2-0.1-2.1v-10.6h3.6v10.9
		c0,0.8,0.1,1.5,0.2,1.9c0.1,0.4,0.5,0.8,1,1.2s1.2,0.5,2.1,0.5c0.9,0,1.6-0.1,2-0.4s0.8-0.6,1-1.1s0.3-1.2,0.3-2.1V213.3z"/>
	<path class="st0" d="M301.5,219c-0.3-1-0.7-1.7-1.1-2.1c-0.7-0.6-1.5-0.9-2.6-0.9c-0.9,0-1.7,0.2-2.3,0.6s-1.2,1.1-1.6,2.1
		s-0.6,2-0.6,3.3s0.2,2.3,0.6,3.3s0.9,1.6,1.5,2s1.4,0.6,2.2,0.6c0.6,0,1.2-0.1,1.8-0.4s1-0.6,1.3-1s0.6-1.1,0.8-1.8h3.6
		c-0.2,0.9-0.4,1.7-0.6,2.2c-0.3,0.7-0.8,1.4-1.4,2.1s-1.4,1.2-2.3,1.5s-1.9,0.5-2.9,0.5c-1.2,0-2.3-0.2-3.3-0.6s-1.9-1-2.6-1.7
		s-1.3-1.8-1.6-2.9s-0.6-2.4-0.6-3.7c0-1.6,0.3-3.1,0.8-4.4c0.4-1,0.8-1.8,1.5-2.4s1.3-1.2,2.2-1.6c1.1-0.5,2.3-0.8,3.6-0.8
		c1.1,0,2.2,0.2,3.1,0.6s1.7,0.9,2.3,1.5s1.1,1.3,1.4,2.1c0.2,0.5,0.4,1.2,0.5,1.9H301.5z"/>
	<path class="st0" d="M318.9,219c-0.3-1-0.7-1.7-1.1-2.1c-0.7-0.6-1.5-0.9-2.6-0.9c-0.9,0-1.7,0.2-2.3,0.6s-1.2,1.1-1.6,2.1
		s-0.6,2-0.6,3.3s0.2,2.3,0.6,3.3s0.9,1.6,1.5,2s1.4,0.6,2.2,0.6c0.6,0,1.2-0.1,1.8-0.4s1-0.6,1.3-1s0.6-1.1,0.8-1.8h3.6
		c-0.2,0.9-0.4,1.7-0.6,2.2c-0.3,0.7-0.8,1.4-1.4,2.1s-1.4,1.2-2.3,1.5s-1.9,0.5-2.9,0.5c-1.2,0-2.3-0.2-3.3-0.6s-1.9-1-2.6-1.7
		s-1.3-1.8-1.6-2.9s-0.6-2.4-0.6-3.7c0-1.6,0.3-3.1,0.8-4.4c0.4-1,0.8-1.8,1.5-2.4s1.3-1.2,2.2-1.6c1.1-0.5,2.3-0.8,3.6-0.8
		c1.1,0,2.2,0.2,3.1,0.6s1.7,0.9,2.3,1.5s1.1,1.3,1.4,2.1c0.2,0.5,0.4,1.2,0.5,1.9H318.9z"/>
	<path class="st0" d="M324.9,230.6v-17.2h3.6v17.2H324.9z"/>
	<path class="st0" d="M331.1,222c0-1.8,0.3-3.4,1-4.8s1.6-2.5,2.9-3.2s2.7-1.1,4.3-1.1c1.7,0,3.2,0.4,4.5,1.2s2.3,1.9,2.9,3.3
		s1,2.9,1,4.6c0,1.7-0.4,3.3-1.1,4.7s-1.7,2.5-3,3.2s-2.7,1.1-4.3,1.1c-1.6,0-3-0.4-4.3-1.1s-2.2-1.8-2.9-3.2S331.1,223.7,331.1,222
		z M339.4,227.9c0.9,0,1.7-0.2,2.4-0.7s1.3-1.2,1.7-2.1s0.6-2,0.6-3.1c0-1.1-0.2-2.2-0.6-3.1s-0.9-1.6-1.7-2.1s-1.5-0.7-2.4-0.7
		c-0.9,0-1.7,0.2-2.4,0.7s-1.3,1.2-1.7,2.1s-0.6,2-0.6,3.1c0,1.1,0.2,2.1,0.6,3.1s0.9,1.7,1.7,2.1S338.5,227.9,339.4,227.9z
		 M337.8,212.1l2.2-3.5h3.7l-3.6,3.5H337.8z"/>
	<path class="st0" d="M350.4,230.6v-17.2h3.8l6.9,12v-12h3.4v17.2h-3.6l-7.1-12.3v12.3H350.4z"/>
</g>
<g>
	<path class="st0" d="M144.5,256.6V248h3.8c0.5,0,0.9,0,1.2,0.1s0.5,0.2,0.7,0.3s0.3,0.3,0.5,0.5s0.2,0.4,0.3,0.6
		c0.1,0.4,0.2,0.8,0.2,1.2c0,0.5-0.1,1-0.2,1.4s-0.4,0.7-0.6,0.9s-0.6,0.4-1,0.5c-0.3,0.1-0.7,0.1-1.1,0.1h-1.8v3.1H144.5z
		 M146.3,249.4v2.5h1.7c0.3,0,0.6-0.1,0.8-0.2s0.3-0.3,0.4-0.5s0.1-0.4,0.1-0.7c0-0.4-0.1-0.7-0.3-0.9s-0.5-0.3-1-0.3H146.3z"/>
	<path class="st0" d="M152.5,248h4.3c0.7,0,1.2,0.1,1.6,0.3s0.7,0.5,0.9,0.9s0.3,0.8,0.3,1.3c0,0.5-0.1,0.9-0.4,1.3s-0.6,0.6-1,0.8
		c0.4,0.2,0.7,0.4,0.9,0.8c0.1,0.2,0.2,0.7,0.2,1.3v0.6c0,0.5,0,0.8,0.1,1c0,0.1,0.1,0.2,0.3,0.3v0.2h-2c-0.1-0.4-0.2-0.8-0.2-1.2
		v-0.8c0-0.4,0-0.7-0.1-0.9s-0.2-0.3-0.4-0.4s-0.5-0.1-0.9-0.1h-1.9v3.4h-1.8V248z M154.3,249.4v2.3h2c0.5,0,0.8-0.1,1-0.2
		c0.3-0.2,0.5-0.5,0.5-1c0-0.4-0.1-0.8-0.4-0.9c-0.2-0.1-0.5-0.2-1-0.2H154.3z"/>
	<path class="st0" d="M160.5,252.3c0-0.9,0.2-1.7,0.5-2.4s0.8-1.2,1.5-1.6s1.3-0.5,2.1-0.5c0.8,0,1.6,0.2,2.2,0.6s1.1,0.9,1.5,1.6
		s0.5,1.5,0.5,2.3c0,0.9-0.2,1.6-0.5,2.4s-0.9,1.3-1.5,1.6c-0.7,0.4-1.4,0.5-2.2,0.5c-0.8,0-1.5-0.2-2.2-0.6
		c-0.6-0.4-1.1-0.9-1.4-1.6S160.5,253.1,160.5,252.3z M164.7,255.2c0.4,0,0.8-0.1,1.2-0.3s0.6-0.6,0.8-1.1s0.3-1,0.3-1.6
		c0-0.6-0.1-1.1-0.3-1.6s-0.5-0.8-0.8-1.1s-0.8-0.4-1.2-0.4c-0.4,0-0.8,0.1-1.2,0.4s-0.6,0.6-0.8,1.1s-0.3,1-0.3,1.6
		c0,0.6,0.1,1.1,0.3,1.5s0.5,0.8,0.8,1.1S164.2,255.2,164.7,255.2z"/>
	<path class="st0" d="M170.1,256.6V248h1.9l3.4,6v-6h1.7v8.6h-1.8l-3.5-6.1v6.1H170.1z"/>
	<path class="st0" d="M177.8,249.4V248h7.1v1.5h-2.6v7.1h-1.8v-7.1H177.8z"/>
	<path class="st0" d="M184.8,252.3c0-0.9,0.2-1.7,0.5-2.4s0.8-1.2,1.5-1.6s1.3-0.5,2.1-0.5c0.8,0,1.6,0.2,2.2,0.6s1.1,0.9,1.5,1.6
		s0.5,1.5,0.5,2.3c0,0.9-0.2,1.6-0.5,2.4s-0.9,1.3-1.5,1.6c-0.7,0.4-1.4,0.5-2.2,0.5c-0.8,0-1.5-0.2-2.2-0.6
		c-0.6-0.4-1.1-0.9-1.4-1.6S184.8,253.1,184.8,252.3z M188.9,255.2c0.4,0,0.8-0.1,1.2-0.3s0.6-0.6,0.8-1.1s0.3-1,0.3-1.6
		c0-0.6-0.1-1.1-0.3-1.6s-0.5-0.8-0.8-1.1s-0.8-0.4-1.2-0.4c-0.4,0-0.8,0.1-1.2,0.4s-0.6,0.6-0.8,1.1s-0.3,1-0.3,1.6
		c0,0.6,0.1,1.1,0.3,1.5s0.5,0.8,0.8,1.1S188.5,255.2,188.9,255.2z"/>
	<path class="st0" d="M197.1,249.4V248h7.1v1.5h-2.6v7.1h-1.8v-7.1H197.1z"/>
	<path class="st0" d="M205.2,256.6V248h6.4v1.5H207v1.9h4.2v1.5H207v2.2h4.8v1.5H205.2z"/>
	<path class="st0" d="M213.1,256.6V248h1.9l3.4,6v-6h1.7v8.6h-1.8l-3.5-6.1v6.1H213.1z"/>
	<path class="st0" d="M221.8,256.6V248h3.8c1.1,0,2,0.3,2.5,0.9c0.7,0.8,1,1.8,1,3.2c0,0.7-0.1,1.3-0.2,1.8s-0.3,1-0.6,1.4
		s-0.5,0.6-0.8,0.8c-0.3,0.2-0.6,0.3-0.9,0.4s-0.9,0.1-1.6,0.1H221.8z M223.6,249.4v5.6h1.6c0.4,0,0.7,0,0.9-0.1s0.5-0.2,0.6-0.4
		s0.3-0.4,0.4-0.7c0.2-0.5,0.2-1.1,0.2-1.7c0-0.4,0-0.8-0.1-1.2s-0.2-0.7-0.4-0.9s-0.4-0.4-0.6-0.5s-0.6-0.1-1-0.1H223.6z"/>
	<path class="st0" d="M230.4,248h4.3c0.7,0,1.2,0.1,1.6,0.3s0.7,0.5,0.9,0.9s0.3,0.8,0.3,1.3c0,0.5-0.1,0.9-0.4,1.3s-0.6,0.6-1,0.8
		c0.4,0.2,0.7,0.4,0.9,0.8c0.1,0.2,0.2,0.7,0.2,1.3v0.6c0,0.5,0,0.8,0.1,1c0,0.1,0.1,0.2,0.3,0.3v0.2h-2c-0.1-0.4-0.2-0.8-0.2-1.2
		v-0.8c0-0.4,0-0.7-0.1-0.9s-0.2-0.3-0.4-0.4s-0.5-0.1-0.9-0.1h-1.9v3.4h-1.8V248z M232.2,249.4v2.3h2c0.5,0,0.8-0.1,1-0.2
		c0.3-0.2,0.5-0.5,0.5-1c0-0.4-0.1-0.8-0.4-0.9c-0.2-0.1-0.5-0.2-1-0.2H232.2z"/>
	<path class="st0" d="M239.2,256.6V248h6.4v1.5H241v1.9h4.2v1.5H241v2.2h4.8v1.5H239.2z"/>
	<path class="st0" d="M247.1,256.6V248h2.6l1.6,6.7h0l1.5-6.7h2.6v8.6h-1.7v-7.2h0l-1.6,7.2h-1.8l-1.6-7.2h0v7.2H247.1z"/>
	<path class="st0" d="M256.8,252.3c0-0.9,0.2-1.7,0.5-2.4s0.8-1.2,1.5-1.6s1.3-0.5,2.1-0.5c0.8,0,1.6,0.2,2.2,0.6s1.1,0.9,1.5,1.6
		s0.5,1.5,0.5,2.3c0,0.9-0.2,1.6-0.5,2.4s-0.9,1.3-1.5,1.6c-0.7,0.4-1.4,0.5-2.2,0.5c-0.8,0-1.5-0.2-2.2-0.6
		c-0.6-0.4-1.1-0.9-1.4-1.6S256.8,253.1,256.8,252.3z M260.9,255.2c0.4,0,0.8-0.1,1.2-0.3s0.6-0.6,0.8-1.1s0.3-1,0.3-1.6
		c0-0.6-0.1-1.1-0.3-1.6s-0.5-0.8-0.8-1.1s-0.8-0.4-1.2-0.4c-0.4,0-0.8,0.1-1.2,0.4s-0.6,0.6-0.8,1.1s-0.3,1-0.3,1.6
		c0,0.6,0.1,1.1,0.3,1.5s0.5,0.8,0.8,1.1S260.5,255.2,260.9,255.2z"/>
	<path class="st0" d="M267.8,253.9c0,0.3,0.1,0.5,0.2,0.7c0.1,0.2,0.3,0.4,0.6,0.5s0.7,0.2,1.1,0.2c0.6,0,1.1-0.1,1.4-0.4
		c0.2-0.2,0.4-0.4,0.4-0.7c0-0.2-0.1-0.4-0.2-0.5s-0.3-0.2-0.5-0.3c-0.2-0.1-0.5-0.2-0.9-0.3l-0.9-0.2c-0.6-0.1-1-0.3-1.3-0.4
		c-0.4-0.1-0.6-0.3-0.8-0.5s-0.3-0.4-0.4-0.7s-0.2-0.6-0.2-0.9c0-0.6,0.2-1.1,0.5-1.5s0.7-0.7,1.2-0.9s1-0.3,1.6-0.3
		c0.4,0,0.9,0,1.2,0.1s0.7,0.2,1,0.4s0.5,0.4,0.7,0.6s0.3,0.5,0.4,0.7s0.1,0.6,0.1,0.9h-1.7c0-0.3-0.1-0.5-0.2-0.7s-0.3-0.3-0.6-0.5
		s-0.6-0.2-1-0.2c-0.5,0-0.9,0.1-1.2,0.3s-0.4,0.5-0.4,0.8c0,0.3,0.1,0.5,0.3,0.6c0.1,0.1,0.4,0.2,1,0.3l1.8,0.4
		c0.5,0.1,0.8,0.2,1.1,0.4c0.4,0.2,0.7,0.5,0.9,0.8s0.3,0.7,0.3,1.2c0,0.4-0.1,0.7-0.2,1s-0.3,0.6-0.5,0.8s-0.4,0.4-0.7,0.5
		s-0.6,0.3-1,0.3s-0.8,0.1-1.2,0.1c-0.5,0-1-0.1-1.5-0.2c-0.3-0.1-0.6-0.2-0.9-0.4s-0.4-0.4-0.6-0.6s-0.3-0.5-0.4-0.7
		s-0.1-0.6-0.1-0.9H267.8z"/>
	<path class="st0" d="M283.3,250.8c-0.1-0.5-0.3-0.8-0.6-1c-0.3-0.3-0.8-0.4-1.3-0.4c-0.4,0-0.8,0.1-1.2,0.3s-0.6,0.6-0.8,1
		s-0.3,1-0.3,1.6s0.1,1.2,0.3,1.6s0.4,0.8,0.8,1s0.7,0.3,1.1,0.3c0.3,0,0.6-0.1,0.9-0.2s0.5-0.3,0.6-0.5s0.3-0.5,0.4-0.9h1.8
		c-0.1,0.5-0.2,0.8-0.3,1.1c-0.2,0.4-0.4,0.7-0.7,1c-0.3,0.3-0.7,0.6-1.2,0.8s-0.9,0.3-1.4,0.3c-0.6,0-1.1-0.1-1.6-0.3
		s-0.9-0.5-1.3-0.9c-0.4-0.4-0.6-0.9-0.8-1.5s-0.3-1.2-0.3-1.8c0-0.8,0.1-1.5,0.4-2.2c0.2-0.5,0.4-0.9,0.7-1.2s0.7-0.6,1.1-0.8
		c0.5-0.3,1.1-0.4,1.8-0.4c0.6,0,1.1,0.1,1.6,0.3s0.9,0.4,1.2,0.7s0.5,0.7,0.7,1.1c0.1,0.3,0.2,0.6,0.2,1H283.3z"/>
	<path class="st0" d="M285.8,252.3c0-0.9,0.2-1.7,0.5-2.4s0.8-1.2,1.5-1.6s1.3-0.5,2.1-0.5c0.8,0,1.6,0.2,2.2,0.6s1.1,0.9,1.5,1.6
		s0.5,1.5,0.5,2.3c0,0.9-0.2,1.6-0.5,2.4s-0.9,1.3-1.5,1.6c-0.7,0.4-1.4,0.5-2.2,0.5c-0.8,0-1.5-0.2-2.2-0.6
		c-0.6-0.4-1.1-0.9-1.4-1.6S285.8,253.1,285.8,252.3z M289.9,255.2c0.4,0,0.8-0.1,1.2-0.3s0.6-0.6,0.8-1.1s0.3-1,0.3-1.6
		c0-0.6-0.1-1.1-0.3-1.6s-0.5-0.8-0.8-1.1s-0.8-0.4-1.2-0.4c-0.4,0-0.8,0.1-1.2,0.4s-0.6,0.6-0.8,1.1s-0.3,1-0.3,1.6
		c0,0.6,0.1,1.1,0.3,1.5s0.5,0.8,0.8,1.1S289.5,255.2,289.9,255.2z"/>
	<path class="st0" d="M295.4,256.6V248h1.9l3.4,6v-6h1.7v8.6h-1.8l-3.5-6.1v6.1H295.4z"/>
	<path class="st0" d="M303.1,249.4V248h7.1v1.5h-2.6v7.1h-1.8v-7.1H303.1z"/>
	<path class="st0" d="M311.2,256.6V248h6.4v1.5H313v1.9h4.2v1.5H313v2.2h4.8v1.5H311.2z"/>
	<path class="st0" d="M319.1,256.6V248h1.9l3.4,6v-6h1.7v8.6h-1.8l-3.5-6.1v6.1H319.1z"/>
	<path class="st0" d="M327.7,256.6V248h1.8v8.6H327.7z"/>
	<path class="st0" d="M331.1,256.6V248h3.8c1.1,0,2,0.3,2.5,0.9c0.7,0.8,1,1.8,1,3.2c0,0.7-0.1,1.3-0.2,1.8s-0.3,1-0.6,1.4
		s-0.5,0.6-0.8,0.8c-0.3,0.2-0.6,0.3-0.9,0.4s-0.9,0.1-1.6,0.1H331.1z M332.9,249.4v5.6h1.6c0.4,0,0.7,0,0.9-0.1s0.5-0.2,0.6-0.4
		s0.3-0.4,0.4-0.7c0.2-0.5,0.2-1.1,0.2-1.7c0-0.4,0-0.8-0.1-1.2s-0.2-0.7-0.4-0.9s-0.4-0.4-0.6-0.5s-0.6-0.1-1-0.1H332.9z"/>
	<path class="st0" d="M339.5,252.3c0-0.9,0.2-1.7,0.5-2.4s0.8-1.2,1.5-1.6s1.3-0.5,2.1-0.5c0.8,0,1.6,0.2,2.2,0.6s1.1,0.9,1.5,1.6
		s0.5,1.5,0.5,2.3c0,0.9-0.2,1.6-0.5,2.4s-0.9,1.3-1.5,1.6c-0.7,0.4-1.4,0.5-2.2,0.5c-0.8,0-1.5-0.2-2.2-0.6
		c-0.6-0.4-1.1-0.9-1.4-1.6S339.5,253.1,339.5,252.3z M343.6,255.2c0.4,0,0.8-0.1,1.2-0.3s0.6-0.6,0.8-1.1s0.3-1,0.3-1.6
		c0-0.6-0.1-1.1-0.3-1.6s-0.5-0.8-0.8-1.1s-0.8-0.4-1.2-0.4c-0.4,0-0.8,0.1-1.2,0.4s-0.6,0.6-0.8,1.1s-0.3,1-0.3,1.6
		c0,0.6,0.1,1.1,0.3,1.5s0.5,0.8,0.8,1.1S343.2,255.2,343.6,255.2z"/>
	<path class="st0" d="M350.5,253.9c0,0.3,0.1,0.5,0.2,0.7c0.1,0.2,0.3,0.4,0.6,0.5s0.7,0.2,1.1,0.2c0.6,0,1.1-0.1,1.4-0.4
		c0.2-0.2,0.4-0.4,0.4-0.7c0-0.2-0.1-0.4-0.2-0.5s-0.3-0.2-0.5-0.3c-0.2-0.1-0.5-0.2-0.9-0.3l-0.9-0.2c-0.6-0.1-1-0.3-1.3-0.4
		c-0.4-0.1-0.6-0.3-0.8-0.5s-0.3-0.4-0.4-0.7s-0.2-0.6-0.2-0.9c0-0.6,0.2-1.1,0.5-1.5s0.7-0.7,1.2-0.9s1-0.3,1.6-0.3
		c0.4,0,0.9,0,1.2,0.1s0.7,0.2,1,0.4s0.5,0.4,0.7,0.6s0.3,0.5,0.4,0.7s0.1,0.6,0.1,0.9h-1.7c0-0.3-0.1-0.5-0.2-0.7s-0.3-0.3-0.6-0.5
		s-0.6-0.2-1-0.2c-0.5,0-0.9,0.1-1.2,0.3s-0.4,0.5-0.4,0.8c0,0.3,0.1,0.5,0.3,0.6c0.1,0.1,0.4,0.2,1,0.3l1.8,0.4
		c0.5,0.1,0.8,0.2,1.1,0.4c0.4,0.2,0.7,0.5,0.9,0.8s0.3,0.7,0.3,1.2c0,0.4-0.1,0.7-0.2,1s-0.3,0.6-0.5,0.8s-0.4,0.4-0.7,0.5
		s-0.6,0.3-1,0.3s-0.8,0.1-1.2,0.1c-0.5,0-1-0.1-1.5-0.2c-0.3-0.1-0.6-0.2-0.9-0.4s-0.4-0.4-0.6-0.6s-0.3-0.5-0.4-0.7
		s-0.1-0.6-0.1-0.9H350.5z"/>
	<path class="st0" d="M133.2,271v-8.6h3.8c1.1,0,2,0.3,2.5,0.9c0.7,0.8,1,1.8,1,3.2c0,0.7-0.1,1.3-0.2,1.8s-0.3,1-0.6,1.4
		s-0.5,0.6-0.8,0.8s-0.6,0.3-0.9,0.4s-0.9,0.1-1.6,0.1H133.2z M135,263.8v5.6h1.6c0.4,0,0.7,0,0.9-0.1s0.5-0.2,0.6-0.4
		s0.3-0.4,0.4-0.7c0.2-0.5,0.2-1.1,0.2-1.7c0-0.4,0-0.8-0.1-1.2s-0.2-0.7-0.4-0.9s-0.4-0.4-0.6-0.5s-0.6-0.1-1-0.1H135z"/>
	<path class="st0" d="M142,271v-8.6h6.4v1.5h-4.6v1.9h4.2v1.5h-4.2v2.2h4.8v1.5H142z"/>
	<path class="st0" d="M153.2,271v-8.6h2.6l1.6,6.7h0l1.5-6.7h2.6v8.6h-1.7v-7.2h0l-1.6,7.2h-1.8l-1.6-7.2h0v7.2H153.2z"/>
	<path class="st0" d="M168.4,262.4h1.8v5.3c0,0.5,0,0.9-0.1,1.2c-0.1,0.4-0.2,0.8-0.4,1.1s-0.4,0.5-0.7,0.7s-0.6,0.3-1,0.4
		s-0.8,0.2-1.3,0.2c-0.5,0-1-0.1-1.4-0.2s-0.8-0.3-1-0.5s-0.5-0.5-0.6-0.7s-0.3-0.6-0.3-1c0-0.2-0.1-0.6-0.1-1.1v-5.3h1.8v5.5
		c0,0.4,0,0.7,0.1,1c0.1,0.2,0.2,0.4,0.5,0.6s0.6,0.3,1.1,0.3c0.4,0,0.8-0.1,1-0.2s0.4-0.3,0.5-0.5s0.2-0.6,0.2-1.1V262.4z"/>
	<path class="st0" d="M177,265.2c-0.1-0.5-0.3-0.8-0.6-1c-0.3-0.3-0.8-0.4-1.3-0.4c-0.4,0-0.8,0.1-1.2,0.3s-0.6,0.6-0.8,1
		s-0.3,1-0.3,1.6s0.1,1.2,0.3,1.6s0.4,0.8,0.8,1s0.7,0.3,1.1,0.3c0.3,0,0.6-0.1,0.9-0.2s0.5-0.3,0.6-0.5s0.3-0.5,0.4-0.9h1.8
		c-0.1,0.5-0.2,0.8-0.3,1.1c-0.2,0.4-0.4,0.7-0.7,1s-0.7,0.6-1.2,0.8s-0.9,0.3-1.4,0.3c-0.6,0-1.1-0.1-1.6-0.3s-0.9-0.5-1.3-0.9
		s-0.6-0.9-0.8-1.5s-0.3-1.2-0.3-1.8c0-0.8,0.1-1.5,0.4-2.2c0.2-0.5,0.4-0.9,0.7-1.2s0.7-0.6,1.1-0.8c0.5-0.3,1.1-0.4,1.8-0.4
		c0.6,0,1.1,0.1,1.6,0.3s0.9,0.4,1.2,0.7s0.5,0.7,0.7,1.1c0.1,0.3,0.2,0.6,0.2,1H177z"/>
	<path class="st0" d="M180.1,271v-8.6h1.8v3.3h3.4v-3.3h1.8v8.6h-1.8v-3.8h-3.4v3.8H180.1z"/>
	<path class="st0" d="M188.1,271l3.1-8.6h2.1l3,8.6h-2l-0.6-1.8h-3.2L190,271H188.1z M191.1,267.7h2.2l-1.1-3.4h0L191.1,267.7z"/>
	<path class="st0" d="M205.9,262.4h1.8v5.3c0,0.5,0,0.9-0.1,1.2c-0.1,0.4-0.2,0.8-0.4,1.1s-0.4,0.5-0.7,0.7s-0.6,0.3-1,0.4
		s-0.8,0.2-1.3,0.2c-0.5,0-1-0.1-1.4-0.2s-0.8-0.3-1-0.5s-0.5-0.5-0.6-0.7s-0.3-0.6-0.3-1c0-0.2-0.1-0.6-0.1-1.1v-5.3h1.8v5.5
		c0,0.4,0,0.7,0.1,1c0.1,0.2,0.2,0.4,0.5,0.6s0.6,0.3,1.1,0.3c0.4,0,0.8-0.1,1-0.2s0.4-0.3,0.5-0.5s0.2-0.6,0.2-1.1V262.4z"/>
	<path class="st0" d="M208.3,263.8v-1.5h7.1v1.5h-2.6v7.1h-1.8v-7.1H208.3z"/>
	<path class="st0" d="M216.3,271v-8.6h1.8v8.6H216.3z"/>
	<path class="st0" d="M219.7,271v-8.6h1.8v7.1h4.3v1.6H219.7z"/>
	<path class="st0" d="M226.9,271v-8.6h1.8v8.6H226.9z"/>
	<path class="st0" d="M230.3,271v-8.6h3.8c1.1,0,2,0.3,2.5,0.9c0.7,0.8,1,1.8,1,3.2c0,0.7-0.1,1.3-0.2,1.8s-0.3,1-0.6,1.4
		s-0.5,0.6-0.8,0.8s-0.6,0.3-0.9,0.4s-0.9,0.1-1.6,0.1H230.3z M232.1,263.8v5.6h1.6c0.4,0,0.7,0,0.9-0.1s0.5-0.2,0.6-0.4
		s0.3-0.4,0.4-0.7c0.2-0.5,0.2-1.1,0.2-1.7c0-0.4,0-0.8-0.1-1.2s-0.2-0.7-0.4-0.9s-0.4-0.4-0.6-0.5s-0.6-0.1-1-0.1H232.1z"/>
	<path class="st0" d="M237.4,271l3.1-8.6h2.1l3,8.6h-2l-0.6-1.8h-3.2l-0.6,1.8H237.4z M240.4,267.7h2.2l-1.1-3.4h0L240.4,267.7z"/>
	<path class="st0" d="M246.7,271v-8.6h3.8c1.1,0,2,0.3,2.5,0.9c0.7,0.8,1,1.8,1,3.2c0,0.7-0.1,1.3-0.2,1.8s-0.3,1-0.6,1.4
		s-0.5,0.6-0.8,0.8s-0.6,0.3-0.9,0.4s-0.9,0.1-1.6,0.1H246.7z M248.5,263.8v5.6h1.6c0.4,0,0.7,0,0.9-0.1s0.5-0.2,0.6-0.4
		s0.3-0.4,0.4-0.7c0.2-0.5,0.2-1.1,0.2-1.7c0-0.4,0-0.8-0.1-1.2s-0.2-0.7-0.4-0.9s-0.4-0.4-0.6-0.5s-0.6-0.1-1-0.1H248.5z"/>
	<path class="st0" d="M258.1,271l3.1-8.6h2.1l3,8.6h-2l-0.6-1.8h-3.2L260,271H258.1z M261,267.7h2.2l-1.1-3.4h0L261,267.7z"/>
	<path class="st0" d="M272,268.3c0,0.3,0.1,0.5,0.2,0.7c0.1,0.2,0.3,0.4,0.6,0.5s0.7,0.2,1.1,0.2c0.6,0,1.1-0.1,1.4-0.4
		c0.2-0.2,0.4-0.4,0.4-0.7c0-0.2-0.1-0.4-0.2-0.5s-0.3-0.2-0.5-0.3c-0.2-0.1-0.5-0.2-0.9-0.3l-0.9-0.2c-0.6-0.1-1-0.3-1.3-0.4
		c-0.4-0.1-0.6-0.3-0.8-0.5s-0.3-0.4-0.4-0.7s-0.2-0.6-0.2-0.9c0-0.6,0.2-1.1,0.5-1.5s0.7-0.7,1.2-0.9s1-0.3,1.6-0.3
		c0.4,0,0.9,0,1.2,0.1s0.7,0.2,1,0.4s0.5,0.4,0.7,0.6s0.3,0.5,0.4,0.7s0.1,0.6,0.1,0.9h-1.7c0-0.3-0.1-0.5-0.2-0.7s-0.3-0.3-0.6-0.5
		s-0.6-0.2-1-0.2c-0.5,0-0.9,0.1-1.2,0.3s-0.4,0.5-0.4,0.8c0,0.3,0.1,0.5,0.3,0.6c0.1,0.1,0.4,0.2,1,0.3l1.8,0.4
		c0.5,0.1,0.8,0.2,1.1,0.4c0.4,0.2,0.7,0.5,0.9,0.8s0.3,0.7,0.3,1.2c0,0.4-0.1,0.7-0.2,1s-0.3,0.6-0.5,0.8s-0.4,0.4-0.7,0.5
		s-0.6,0.3-1,0.3s-0.8,0.1-1.2,0.1c-0.5,0-1-0.1-1.5-0.2c-0.3-0.1-0.6-0.2-0.9-0.4s-0.4-0.4-0.6-0.6s-0.3-0.5-0.4-0.7
		s-0.1-0.6-0.1-0.9H272z"/>
	<path class="st0" d="M283.8,262.4h1.8v5.3c0,0.5,0,0.9-0.1,1.2c-0.1,0.4-0.2,0.8-0.4,1.1s-0.4,0.5-0.7,0.7s-0.6,0.3-1,0.4
		s-0.8,0.2-1.3,0.2c-0.5,0-1-0.1-1.4-0.2s-0.8-0.3-1-0.5s-0.5-0.5-0.6-0.7s-0.3-0.6-0.3-1c0-0.2-0.1-0.6-0.1-1.1v-5.3h1.8v5.5
		c0,0.4,0,0.7,0.1,1c0.1,0.2,0.2,0.4,0.5,0.6s0.6,0.3,1.1,0.3c0.4,0,0.8-0.1,1-0.2s0.4-0.3,0.5-0.5s0.2-0.6,0.2-1.1V262.4z"/>
	<path class="st0" d="M290.7,271v-8.6h3.8c1.1,0,2,0.3,2.5,0.9c0.7,0.8,1,1.8,1,3.2c0,0.7-0.1,1.3-0.2,1.8s-0.3,1-0.6,1.4
		s-0.5,0.6-0.8,0.8s-0.6,0.3-0.9,0.4s-0.9,0.1-1.6,0.1H290.7z M292.5,263.8v5.6h1.6c0.4,0,0.7,0,0.9-0.1s0.5-0.2,0.6-0.4
		s0.3-0.4,0.4-0.7c0.2-0.5,0.2-1.1,0.2-1.7c0-0.4,0-0.8-0.1-1.2s-0.2-0.7-0.4-0.9s-0.4-0.4-0.6-0.5s-0.6-0.1-1-0.1H292.5z"/>
	<path class="st0" d="M299.3,271v-8.6h1.8v8.6H299.3z"/>
	<path class="st0" d="M304,268.3c0,0.3,0.1,0.5,0.2,0.7c0.1,0.2,0.3,0.4,0.6,0.5s0.7,0.2,1.1,0.2c0.6,0,1.1-0.1,1.4-0.4
		c0.2-0.2,0.4-0.4,0.4-0.7c0-0.2-0.1-0.4-0.2-0.5s-0.3-0.2-0.5-0.3c-0.2-0.1-0.5-0.2-0.9-0.3l-0.9-0.2c-0.6-0.1-1-0.3-1.3-0.4
		c-0.4-0.1-0.6-0.3-0.8-0.5s-0.3-0.4-0.4-0.7s-0.2-0.6-0.2-0.9c0-0.6,0.2-1.1,0.5-1.5s0.7-0.7,1.2-0.9s1-0.3,1.6-0.3
		c0.4,0,0.9,0,1.2,0.1s0.7,0.2,1,0.4s0.5,0.4,0.7,0.6s0.3,0.5,0.4,0.7s0.1,0.6,0.1,0.9h-1.7c0-0.3-0.1-0.5-0.2-0.7s-0.3-0.3-0.6-0.5
		s-0.6-0.2-1-0.2c-0.5,0-0.9,0.1-1.2,0.3s-0.4,0.5-0.4,0.8c0,0.3,0.1,0.5,0.3,0.6c0.1,0.1,0.4,0.2,1,0.3l1.8,0.4
		c0.5,0.1,0.8,0.2,1.1,0.4c0.4,0.2,0.7,0.5,0.9,0.8s0.3,0.7,0.3,1.2c0,0.4-0.1,0.7-0.2,1s-0.3,0.6-0.5,0.8s-0.4,0.4-0.7,0.5
		s-0.6,0.3-1,0.3s-0.8,0.1-1.2,0.1c-0.5,0-1-0.1-1.5-0.2c-0.3-0.1-0.6-0.2-0.9-0.4s-0.4-0.4-0.6-0.6s-0.3-0.5-0.4-0.7
		s-0.1-0.6-0.1-0.9H304z"/>
	<path class="st0" d="M310.7,271v-8.6h3.8c0.5,0,0.9,0,1.2,0.1s0.5,0.2,0.7,0.3s0.3,0.3,0.5,0.5s0.2,0.4,0.3,0.6
		c0.1,0.4,0.2,0.8,0.2,1.2c0,0.5-0.1,1-0.2,1.4s-0.4,0.7-0.6,0.9s-0.6,0.4-1,0.5c-0.3,0.1-0.7,0.1-1.1,0.1h-1.8v3.1H310.7z
		 M312.5,263.8v2.5h1.7c0.3,0,0.6-0.1,0.8-0.2s0.3-0.3,0.4-0.5s0.1-0.4,0.1-0.7c0-0.4-0.1-0.7-0.3-0.9s-0.5-0.3-1-0.3H312.5z"/>
	<path class="st0" d="M317.4,266.7c0-0.9,0.2-1.7,0.5-2.4s0.8-1.2,1.5-1.6s1.3-0.5,2.1-0.5c0.8,0,1.6,0.2,2.2,0.6s1.1,0.9,1.5,1.6
		s0.5,1.5,0.5,2.3c0,0.9-0.2,1.6-0.5,2.4s-0.9,1.3-1.5,1.6s-1.4,0.5-2.2,0.5c-0.8,0-1.5-0.2-2.2-0.6s-1.1-0.9-1.4-1.6
		S317.4,267.5,317.4,266.7z M321.6,269.6c0.4,0,0.8-0.1,1.2-0.3s0.6-0.6,0.8-1.1s0.3-1,0.3-1.6c0-0.6-0.1-1.1-0.3-1.6
		s-0.5-0.8-0.8-1.1s-0.8-0.4-1.2-0.4c-0.4,0-0.8,0.1-1.2,0.4s-0.6,0.6-0.8,1.1s-0.3,1-0.3,1.6c0,0.6,0.1,1.1,0.3,1.5
		s0.5,0.8,0.8,1.1S321.1,269.6,321.6,269.6z"/>
	<path class="st0" d="M328.4,268.3c0,0.3,0.1,0.5,0.2,0.7c0.1,0.2,0.3,0.4,0.6,0.5s0.7,0.2,1.1,0.2c0.6,0,1.1-0.1,1.4-0.4
		c0.2-0.2,0.4-0.4,0.4-0.7c0-0.2-0.1-0.4-0.2-0.5s-0.3-0.2-0.5-0.3c-0.2-0.1-0.5-0.2-0.9-0.3l-0.9-0.2c-0.6-0.1-1-0.3-1.3-0.4
		c-0.4-0.1-0.6-0.3-0.8-0.5s-0.3-0.4-0.4-0.7s-0.2-0.6-0.2-0.9c0-0.6,0.2-1.1,0.5-1.5s0.7-0.7,1.2-0.9s1-0.3,1.6-0.3
		c0.4,0,0.9,0,1.2,0.1s0.7,0.2,1,0.4s0.5,0.4,0.7,0.6s0.3,0.5,0.4,0.7s0.1,0.6,0.1,0.9h-1.7c0-0.3-0.1-0.5-0.2-0.7s-0.3-0.3-0.6-0.5
		s-0.6-0.2-1-0.2c-0.5,0-0.9,0.1-1.2,0.3s-0.4,0.5-0.4,0.8c0,0.3,0.1,0.5,0.3,0.6c0.1,0.1,0.4,0.2,1,0.3l1.8,0.4
		c0.5,0.1,0.8,0.2,1.1,0.4c0.4,0.2,0.7,0.5,0.9,0.8s0.3,0.7,0.3,1.2c0,0.4-0.1,0.7-0.2,1s-0.3,0.6-0.5,0.8s-0.4,0.4-0.7,0.5
		s-0.6,0.3-1,0.3s-0.8,0.1-1.2,0.1c-0.5,0-1-0.1-1.5-0.2c-0.3-0.1-0.6-0.2-0.9-0.4s-0.4-0.4-0.6-0.6s-0.3-0.5-0.4-0.7
		s-0.1-0.6-0.1-0.9H328.4z"/>
	<path class="st0" d="M335,271v-8.6h1.8v8.6H335z"/>
	<path class="st0" d="M344,265.2c-0.1-0.5-0.3-0.8-0.6-1c-0.3-0.3-0.8-0.4-1.3-0.4c-0.4,0-0.8,0.1-1.2,0.3s-0.6,0.6-0.8,1
		s-0.3,1-0.3,1.6s0.1,1.2,0.3,1.6s0.4,0.8,0.8,1s0.7,0.3,1.1,0.3c0.3,0,0.6-0.1,0.9-0.2s0.5-0.3,0.6-0.5s0.3-0.5,0.4-0.9h1.8
		c-0.1,0.5-0.2,0.8-0.3,1.1c-0.2,0.4-0.4,0.7-0.7,1s-0.7,0.6-1.2,0.8s-0.9,0.3-1.4,0.3c-0.6,0-1.1-0.1-1.6-0.3s-0.9-0.5-1.3-0.9
		s-0.6-0.9-0.8-1.5s-0.3-1.2-0.3-1.8c0-0.8,0.1-1.5,0.4-2.2c0.2-0.5,0.4-0.9,0.7-1.2s0.7-0.6,1.1-0.8c0.5-0.3,1.1-0.4,1.8-0.4
		c0.6,0,1.1,0.1,1.6,0.3s0.9,0.4,1.2,0.7s0.5,0.7,0.7,1.1c0.1,0.3,0.2,0.6,0.2,1H344z"/>
	<path class="st0" d="M347,271v-8.6h1.8v8.6H347z"/>
	<path class="st0" d="M350.1,266.7c0-0.9,0.2-1.7,0.5-2.4s0.8-1.2,1.5-1.6s1.3-0.5,2.1-0.5c0.8,0,1.6,0.2,2.2,0.6s1.1,0.9,1.5,1.6
		s0.5,1.5,0.5,2.3c0,0.9-0.2,1.6-0.5,2.4s-0.9,1.3-1.5,1.6s-1.4,0.5-2.2,0.5c-0.8,0-1.5-0.2-2.2-0.6s-1.1-0.9-1.4-1.6
		S350.1,267.5,350.1,266.7z M354.3,269.6c0.4,0,0.8-0.1,1.2-0.3s0.6-0.6,0.8-1.1s0.3-1,0.3-1.6c0-0.6-0.1-1.1-0.3-1.6
		s-0.5-0.8-0.8-1.1s-0.8-0.4-1.2-0.4c-0.4,0-0.8,0.1-1.2,0.4s-0.6,0.6-0.8,1.1s-0.3,1-0.3,1.6c0,0.6,0.1,1.1,0.3,1.5
		s0.5,0.8,0.8,1.1S353.8,269.6,354.3,269.6z M353.4,261.7l1.1-1.7h1.9l-1.8,1.7H353.4z"/>
	<path class="st0" d="M359.7,271v-8.6h1.9l3.4,6v-6h1.7v8.6H365l-3.5-6.1v6.1H359.7z"/>
</g>
<g>
	<path class="st24" d="M235.7,440.1v-11.8h0.3l7.8,9v-9h1.2v11.8h-0.3l-7.8-8.9v8.9H235.7z"/>
	<path class="st24" d="M247.5,431.4h1.1v4.1c0,1,0.1,1.7,0.2,2c0.1,0.5,0.5,1,0.9,1.3c0.5,0.3,1,0.5,1.6,0.5c0.6,0,1.1-0.1,1.6-0.4
		c0.4-0.3,0.7-0.7,0.9-1.2c0.1-0.3,0.2-1,0.2-2.1v-4.1h1.1v4.3c0,1.2-0.1,2.1-0.4,2.7c-0.3,0.6-0.7,1.1-1.3,1.4
		c-0.6,0.4-1.4,0.5-2.1,0.5c-0.7,0-1.5-0.2-2.1-0.5c-0.6-0.3-1-0.8-1.3-1.4c-0.3-0.6-0.4-1.5-0.4-2.8V431.4z"/>
	<path class="st24" d="M258.5,428.2h1.1v3.2h1.8v1h-1.8v7.7h-1.1v-7.7H257v-1h1.5V428.2z"/>
	<path class="st24" d="M262.7,431.4h1.1v1.3c0.3-0.4,0.7-0.8,1.1-1.1c0.3-0.2,0.8-0.4,1.2-0.4c0.4,0,0.7,0.1,1,0.3l-0.6,0.9
		c-0.2-0.1-0.4-0.1-0.6-0.2c-0.4,0-0.8,0.2-1.1,0.5c-0.3,0.3-0.6,0.8-0.8,1.4c-0.1,0.5-0.2,1.5-0.2,3v2.9h-1.1V431.4z"/>
	<path class="st24" d="M268.4,427.8c0.5,0,0.9,0.4,0.9,0.9c0,0.2-0.1,0.5-0.3,0.7c-0.4,0.3-1,0.3-1.3-0.1c-0.3-0.4-0.3-0.9,0-1.2
		C268,427.9,268.2,427.8,268.4,427.8z M267.9,431.4h1.1v8.7h-1.1V431.4z"/>
	<path class="st24" d="M271,440.1l1.7-11.8h0.2l4.8,9.7l4.7-9.7h0.2l1.7,11.8h-1.2l-1.2-8.4l-4.2,8.4h-0.3l-4.2-8.5l-1.2,8.5H271z"
		/>
	<path class="st24" d="M295.1,431.4v8.7H294v-1.5c-0.4,0.5-1,1-1.6,1.3c-1.7,0.8-3.8,0.5-5.1-0.9c-0.9-0.9-1.3-2-1.3-3.3
		c0-1.2,0.5-2.4,1.3-3.2c0.8-0.9,2-1.4,3.2-1.3c0.7,0,1.3,0.1,1.9,0.5c0.6,0.3,1.1,0.8,1.5,1.4v-1.6H295.1z M290.6,432.3
		c-1.2,0-2.4,0.7-3,1.7c-0.6,1.1-0.6,2.4,0,3.5c0.3,0.5,0.7,1,1.3,1.3c0.5,0.3,1.1,0.5,1.7,0.5c0.6,0,1.2-0.2,1.7-0.5
		c0.5-0.3,1-0.7,1.3-1.3c0.3-0.5,0.5-1.2,0.4-1.8c0-0.9-0.3-1.9-1-2.5C292.4,432.6,291.5,432.2,290.6,432.3L290.6,432.3z"/>
	<path class="st24" d="M297.2,431.4h1.1v1.3c0.3-0.4,0.7-0.8,1.1-1.1c0.3-0.2,0.8-0.4,1.2-0.4c0.4,0,0.7,0.1,1,0.3l-0.6,0.9
		c-0.2-0.1-0.4-0.1-0.6-0.2c-0.4,0-0.8,0.2-1.1,0.5c-0.3,0.3-0.6,0.8-0.8,1.4c-0.1,0.5-0.2,1.5-0.2,3v3h-1.1L297.2,431.4z"/>
	<ellipse class="st24" cx="214.2" cy="434.1" rx="15.8" ry="8.5"/>
	<path class="st20" d="M218.9,441.4c-1.3,0.1-2.8,0.1-3.9-0.6c-1.2-0.8-1.8-2.2-2-3.6c-0.2-1.4,0-2.8,0.1-4.3c0-1,0-2.1-0.4-3
		c-0.7-1.6-2.1-2.5-3.5-3.3c0.2,0.1,0.7,0,0.8,0c0.4,0,0.8,0,1.2,0c0.9,0.1,1.7,0.4,2.4,0.9c1.1,0.7,1.8,1.8,2.2,3.1
		c0.3,1.1,0.2,2.2,0.1,3.4c-0.1,1.1-0.3,2.2-0.2,3.4s0.5,2.3,1.3,3c0.6,0.6,1.5,0.9,2.3,1.1C219.1,441.4,219,441.4,218.9,441.4z"/>
	<path class="st20" d="M223.6,441c-1.2,0.1-2.4,0.1-3.4-0.6c-1.1-0.7-1.6-2-1.7-3.3c-0.1-1.3,0.1-2.5,0.1-3.8c0-0.9,0-1.8-0.3-2.7
		c-0.6-1.4-1.8-2.3-3.1-3c0.1,0.1,0.6,0,0.8,0c0.4,0,0.7,0,1.1,0c0.8,0.1,1.5,0.4,2.1,0.8c0.9,0.7,1.6,1.7,1.9,2.8c0.2,1,0.1,2,0,3
		s-0.3,2-0.2,3c0.1,1,0.4,2,1.1,2.7c0.6,0.5,1.3,0.8,2,1L223.6,441z"/>
	<path class="st20" d="M212.6,440.5c-1.2,0.1-2.4,0.1-3.4-0.6c-1.1-0.7-1.6-2-1.7-3.3s0.1-2.5,0.1-3.8c0-0.9,0-1.8-0.3-2.7
		c-0.6-1.4-1.8-2.3-3.1-3c0.1,0.1,0.6,0,0.8,0c0.4,0,0.7,0,1.1,0c0.8,0.1,1.5,0.4,2.1,0.8c0.9,0.7,1.6,1.7,1.9,2.8c0.2,1,0.1,2,0,3
		s-0.3,2-0.2,3c0.1,1,0.4,2,1.1,2.7c0.6,0.5,1.3,0.8,2,1L212.6,440.5z"/>
</g>
</svg>
