<?xml version="1.0" encoding="utf-8"?>
<!-- Generator: Adobe Illustrator 22.0.0, SVG Export Plug-In . SVG Version: 6.00 Build 0)  -->
<svg version="1.1" id="Capa_1" xmlns="http://www.w3.org/2000/svg" xmlns:xlink="http://www.w3.org/1999/xlink" x="0px" y="0px"
	 viewBox="0 0 500 300" style="enable-background:new 0 0 500 300;" xml:space="preserve">
<style type="text/css">
	.st0{fill:#6D6D70;}
	.st1{fill:#808184;}
	.st2{fill:#43626D;}
	.st3{fill:#E3B73E;}
	.st4{fill:#D28F3D;}
	.st5{fill:#96692D;}
	.st6{fill:#4E707A;}
	.st7{fill:#696965;}
	.st8{fill:#41403E;}
	.st9{fill:#8E8E89;}
	.st10{fill:#363636;}
	.st11{fill:#CBCACA;}
	.st12{fill:#C3DEE3;}
	.st13{fill:#B78B2A;}
	.st14{fill:#A98025;}
	.st15{fill:#C9A338;}
	.st16{fill:#2E333B;}
	.st17{fill:#C6A037;}
	.st18{fill:#C85A34;}
	.st19{fill:#3D4A5D;}
	.st20{fill:#FFFFFF;}
	.st21{fill:#343D4D;}
	.st22{fill:#E6E6E7;}
	.st23{fill:#D1A93A;}
</style>
<g>
	<path class="st0" d="M76.5,139.5c0.1,1.7,0.4,3.1,0.9,4c0.8,1.3,2,2.3,3.8,3.1s3.9,1.1,6.4,1.1c3.7,0,6.6-0.8,8.5-2.3
		c1.4-1.1,2.1-2.5,2.1-4.3c0-1.1-0.3-2.1-0.9-2.9s-1.6-1.4-2.8-1.9c-1.2-0.5-3.1-1-5.6-1.6l-5.6-1.3c-3.5-0.8-6.1-1.6-7.8-2.2
		c-2.2-0.9-3.8-1.9-5-3c-1.1-1.1-2-2.4-2.7-4.1c-0.6-1.6-1-3.5-1-5.6c0-3.8,0.9-6.9,2.8-9.3s4.3-4.2,7.3-5.3s6.2-1.6,9.6-1.6
		c2.6,0,5.1,0.3,7.4,0.9c2.3,0.6,4.3,1.4,5.9,2.4s2.9,2.2,4,3.6s1.8,2.8,2.3,4.2s0.7,3.3,0.8,5.7H96.7c-0.1-1.6-0.4-3-1.1-4.1
		s-1.8-2-3.4-2.7c-1.6-0.7-3.6-1.1-5.9-1.1c-3.2,0-5.6,0.6-7.1,1.8S77,116,77,117.9c0,1.7,0.6,2.9,1.8,3.8c0.7,0.5,2.6,1.1,5.8,1.8
		l10.6,2.5c2.7,0.6,5,1.4,6.6,2.4c2.3,1.3,4,2.9,5.2,4.8c1.1,1.9,1.7,4.3,1.7,7c0,2.3-0.4,4.4-1.1,6.2s-1.7,3.3-2.8,4.5
		s-2.5,2.2-4.2,3.1s-3.7,1.6-6.2,2.1s-4.9,0.8-7.4,0.8c-3.1,0-6.1-0.4-9-1.3c-2-0.6-3.7-1.4-5.2-2.4s-2.7-2.2-3.7-3.6
		s-1.7-2.8-2.2-4.3s-0.7-3.4-0.9-5.7H76.5z"/>
	<path class="st0" d="M116.1,155.5v-51.7h10.8v51.7H116.1z"/>
	<path class="st0" d="M130.3,112.7v-8.9h42.3v8.9h-15.8v42.8H146v-42.8H130.3z"/>
	<path class="st0" d="M178,155.5v-51.7h10.8v51.7H178z"/>
	<path class="st0" d="M196.6,129.6c0-5.4,1-10.2,3-14.4s4.9-7.4,8.8-9.5c3.8-2.1,8.1-3.2,12.8-3.2c5.1,0,9.6,1.2,13.4,3.5
		c3.9,2.3,6.8,5.6,8.8,9.9s3,8.8,3,13.7c0,5.2-1.1,9.9-3.2,14.2s-5.1,7.5-9.1,9.7s-8.2,3.2-12.9,3.2c-4.8,0-9.1-1.1-13-3.3
		s-6.7-5.4-8.6-9.7S196.6,134.8,196.6,129.6z M221.5,147.4c2.6,0,5-0.7,7.2-2.1s3.9-3.5,5.1-6.3s1.8-6,1.8-9.4
		c0-3.4-0.6-6.5-1.7-9.4c-1.2-2.8-2.8-4.9-5-6.3s-4.6-2.1-7.2-2.1c-2.6,0-5.1,0.7-7.3,2.1s-3.9,3.5-5,6.3c-1.2,2.8-1.7,5.9-1.7,9.4
		c0,3.3,0.6,6.4,1.7,9.2s2.8,5,5,6.4S218.7,147.4,221.5,147.4z"/>
	<path class="st0" d="M270.5,103.8H282l8.3,37.8l7.3-37.8h11.4l7.8,37.8l8.5-37.8h11l-14.6,51.7h-10.3l-8.1-40.3l-8.1,40.3h-10.1
		L270.5,103.8z"/>
	<path class="st0" d="M342.9,155.5v-51.7h38.4v8.9h-27.6v11.5H379v8.9h-25.3v13.5h28.8v8.9H342.9z"/>
	<path class="st0" d="M390.5,155.5v-51.7h25.3c3.7,0,6.7,0.5,9,1.5c2.3,1,4.1,2.6,5.4,4.7s1.9,4.5,1.9,7.1c0,2.6-0.5,4.7-1.5,6.3
		c-1,1.6-2.6,3-4.9,4.1c2,0.9,3.5,1.8,4.6,2.7c1,1,1.9,2.3,2.5,3.9c0.6,1.6,0.9,3.5,0.9,5.7c0,3.1-0.6,5.7-1.7,7.8s-2.6,3.8-4.3,4.9
		s-3.9,1.9-6.3,2.4c-1.8,0.4-4.5,0.6-8,0.6L390.5,155.5z M401.3,112.7v11.5h12.9c2.7,0,4.6-0.5,5.8-1.6c1.2-1.1,1.8-2.5,1.8-4.4
		c0-1.7-0.5-3-1.6-4s-3-1.4-5.7-1.4H401.3z M401.3,132.6v13.9h13c1.4,0,2.4-0.1,3.2-0.2c1.1-0.2,2.1-0.6,2.8-1.1s1.4-1.3,1.9-2.4
		s0.8-2.3,0.8-3.6c0-1.4-0.3-2.6-1-3.7c-0.6-1.1-1.5-1.8-2.5-2.3s-2.9-0.6-5.5-0.6H401.3z"/>
</g>
<g>
	<g>
		<rect x="306" y="113.6" class="st1" width="0.8" height="39.2"/>
		<rect x="331.1" y="113.6" class="st1" width="0.8" height="39.2"/>
		<rect x="318.6" y="113.6" class="st1" width="0.8" height="39.2"/>
		<rect x="293.5" y="113.6" class="st1" width="0.8" height="39.2"/>
		<rect x="280.9" y="113.6" class="st1" width="0.8" height="39.2"/>
	</g>
	<g>
		<rect x="271" y="116.5" class="st1" width="70.9" height="0.8"/>
		<rect x="271" y="127.3" class="st1" width="70.9" height="0.8"/>
		<rect x="271" y="138.2" class="st1" width="70.9" height="0.8"/>
		<rect x="271" y="149.1" class="st1" width="70.9" height="0.8"/>
	</g>
</g>
<rect x="60" y="179.2" class="st0" width="337.7" height="1"/>
<g>
	<g>
		<g>
			<path class="st2" d="M446.1,53.4c0.1,0,0.2-0.1,0.3-0.2c0.1-0.2,0-0.4-0.1-0.5l-27.5-14c-0.1,0-0.1,0-0.2,0l-48.6,7.9
				c-0.2,0-0.3,0.2-0.3,0.4c0,0.2,0.2,0.3,0.4,0.3l48.5-7.9l27.4,13.9C446,53.4,446,53.4,446.1,53.4z"/>
		</g>
	</g>
	
		<rect x="419.1" y="52.6" transform="matrix(-1 -1.224647e-16 1.224647e-16 -1 861.7607 108.4475)" class="st3" width="23.5" height="3.2"/>
	<path class="st4" d="M441.1,57.5h11.8c2,0,3.5-1.6,3.5-3.5v-1.3c0-0.6-0.5-1-1-1h-16.8c-0.6,0-1,0.5-1,1V54
		C437.6,55.9,439.2,57.5,441.1,57.5z"/>
	<path class="st3" d="M419,41.2c-0.1-0.4-0.6-0.4-0.7,0l-2.2,12.3h-0.8l2.8-14.6c0.1-0.6,0.9-0.6,1,0l2.8,14.6h-0.8L419,41.2z"/>
	<path class="st3" d="M415.2,54.6v9.2h7.8v-9.2H415.2z M415.9,55.4h6.4V63h-6.4V55.4z"/>
	<g>
		<g>
			<path class="st4" d="M415.9,79.4C415.9,79.4,416,79.3,415.9,79.4l5.6-2l-5.5-1.9c0,0-0.1,0-0.1-0.1c0,0,0-0.1,0.1-0.1l5.7-2
				c0.1,0,0.2,0,0.2,0c0.1,0,0,0.1,0,0.1l-5.5,1.9l5.5,1.9c0,0,0,0,0,0c0,0,0,0,0,0c0,0,0,0,0,0c0,0,0,0,0,0c0,0,0,0,0,0
				c0,0,0,0,0,0c0,0,0,0,0,0c0,0,0,0.1-0.1,0.1l-5.5,1.9l5.5,1.9c0,0,0,0,0,0c0,0,0,0,0,0c0,0,0,0,0,0c0,0,0,0,0,0c0,0,0,0,0,0
				c0,0,0,0,0,0c0,0,0,0,0,0c0,0,0,0,0,0v0c0,0,0,0,0,0c0,0,0,0,0,0l-5.5,1.9l5.5,1.9c0,0,0,0,0,0c0,0,0,0,0,0c0,0,0,0,0,0
				c0,0,0,0,0,0c0,0,0,0,0,0c0,0,0,0,0,0c0,0,0,0,0,0c0,0,0,0,0,0c0,0,0,0,0,0c0,0,0,0,0,0c0,0,0,0,0,0l-5.5,1.9l5.5,1.9
				c0,0,0,0,0,0c0,0,0,0,0,0c0,0,0,0,0,0c0,0,0,0,0,0c0,0,0,0,0,0c0,0,0,0,0,0c0,0,0,0,0,0c0,0,0,0,0,0v0c0,0,0,0,0,0c0,0,0,0,0,0
				l-5.5,1.9l5.5,1.9c0,0,0,0,0,0c0,0,0,0,0,0c0,0,0,0,0,0c0,0,0,0,0,0c0,0,0,0,0,0c0,0,0,0,0,0c0,0,0,0,0,0c0,0,0,0,0,0v0
				c0,0,0,0,0,0c0,0,0,0,0,0l-5.5,1.9l5.5,1.9c0,0,0,0,0,0c0,0,0,0,0,0c0,0,0,0,0,0c0,0,0,0,0,0c0,0,0,0,0,0c0,0,0,0,0,0
				c0,0,0,0,0,0c0,0,0,0,0,0v0c0,0,0,0,0,0c0,0,0,0,0,0l-5.5,1.9l5.5,1.9c0,0,0.1,0,0.1,0.1c0,0,0,0,0,0c-0.1,0-0.2,0.1-0.2,0
				l-5.7-2c0,0-0.1,0-0.1-0.1c0,0,0-0.1,0.1-0.1l5.5-1.9l-5.5-1.9c0,0-0.1,0-0.1-0.1c0,0,0-0.1,0.1-0.1l5.5-1.9l-5.5-1.9
				c0,0-0.1,0-0.1-0.1c0,0,0-0.1,0.1-0.1l5.5-1.9l-5.5-1.9c0,0-0.1,0-0.1-0.1c0,0,0-0.1,0.1-0.1l5.5-1.9l-5.5-1.9c0,0-0.1,0-0.1-0.1
				c0,0,0-0.1,0.1-0.1l5.5-1.9L415.9,79.4C416,79.4,415.9,79.4,415.9,79.4z"/>
			<path class="st4" d="M415.9,103.3C415.9,103.2,416,103.2,415.9,103.3l5.8-2c0.1,0,0.2,0,0.2,0c0.1,0,0,0.1,0,0.1l-5.5,1.9
				l5.5,1.9c0,0,0,0,0,0c0,0,0,0,0,0c0,0,0,0,0,0c0,0,0,0,0,0c0,0,0,0,0,0c0,0,0,0,0,0c0,0,0,0,0,0c0,0,0,0.1-0.1,0.1l-5.5,1.9
				l5.5,1.9c0,0,0,0,0,0c0,0,0,0,0,0c0,0,0,0,0,0c0,0,0,0,0,0c0,0,0,0,0,0c0,0,0,0,0,0c0,0,0,0,0,0c0,0,0,0,0,0l0,0c0,0,0,0,0,0
				c0,0,0,0,0,0l-5.5,1.9l5.5,1.9c0,0,0,0,0,0c0,0,0,0,0,0c0,0,0,0,0,0c0,0,0,0,0,0c0,0,0,0,0,0c0,0,0,0,0,0c0,0,0,0,0,0
				c0,0,0,0,0,0l0,0c0,0,0,0,0,0c0,0,0,0,0,0l-5.5,1.9l5.5,1.9c0,0,0,0,0,0c0,0,0,0,0,0c0,0,0,0,0,0c0,0,0,0,0,0c0,0,0,0,0,0
				c0,0,0,0,0,0c0,0,0,0,0,0c0,0,0,0,0,0l0,0c0,0,0,0,0,0c0,0,0,0,0,0l-5.5,1.9l5.5,1.9c0,0,0,0,0,0c0,0,0,0,0,0c0,0,0,0,0,0
				c0,0,0,0,0,0c0,0,0,0,0,0c0,0,0,0,0,0c0,0,0,0,0,0c0,0,0,0,0,0l0,0c0,0,0,0,0,0c0,0,0,0,0,0l-5.5,1.9l5.5,1.9c0,0,0,0,0,0
				c0,0,0,0,0,0c0,0,0,0,0,0c0,0,0,0,0,0c0,0,0,0,0,0c0,0,0,0,0,0c0,0,0,0,0,0c0,0,0,0,0,0l0,0c0,0,0,0,0,0c0,0,0,0,0,0l-5.5,1.9
				l5.5,1.9c0,0,0.1,0,0.1,0.1c0,0,0,0,0,0c0,0,0,0.1-0.1,0.1l-5.5,1.9l5.5,1.9c0,0,0,0,0,0c0,0,0,0,0,0c0,0,0,0,0,0c0,0,0,0,0,0
				c0,0,0,0,0,0c0,0,0,0,0,0c0,0,0,0,0,0c0,0,0,0,0,0v0c0,0,0,0,0,0c0,0,0,0,0,0l-5.5,1.9l5.5,1.9c0,0,0,0,0,0c0,0,0,0,0,0
				c0,0,0,0,0,0c0,0,0,0,0,0c0,0,0,0,0,0c0,0,0,0,0,0c0,0,0,0,0,0c0,0,0,0,0,0l0,0c0,0,0,0,0,0c0,0,0,0,0,0l-5.5,1.9l5.5,1.9
				c0,0,0,0,0,0c0,0,0,0,0,0c0,0,0,0,0,0c0,0,0,0,0,0c0,0,0,0,0,0c0,0,0,0,0,0c0,0,0,0,0,0c0,0,0,0,0,0v0c0,0,0,0,0,0c0,0,0,0,0,0
				l-5.5,1.9l5.5,1.9c0,0,0.1,0,0.1,0.1c0,0,0,0,0,0.1c-0.1,0-0.2,0.1-0.2,0l-5.7-2c0,0-0.1,0-0.1-0.1s0-0.1,0.1-0.1l5.5-1.9
				l-5.5-1.9c0,0-0.1,0-0.1-0.1s0-0.1,0.1-0.1l5.5-1.9L416,135c0,0-0.1,0-0.1-0.1s0-0.1,0.1-0.1l5.5-1.9L416,131c0,0-0.1,0-0.1-0.1
				c0,0,0-0.1,0.1-0.1l5.5-1.9L416,127c0,0-0.1,0-0.1-0.1c0,0,0-0.1,0.1-0.1l5.5-1.9l-5.5-1.9c0,0-0.1,0-0.1-0.1c0,0,0-0.1,0.1-0.1
				l5.5-1.9l-5.5-1.9c0,0-0.1,0-0.1-0.1c0,0,0-0.1,0.1-0.1l5.5-1.9l-5.5-1.9c0,0-0.1,0-0.1-0.1c0,0,0-0.1,0.1-0.1l5.5-1.9l-5.5-1.9
				c0,0-0.1,0-0.1-0.1c0,0,0-0.1,0.1-0.1l5.5-1.9l-5.5-1.9c0,0-0.1,0-0.1-0.1c0,0,0-0.1,0.1-0.1l5.5-1.9L415.9,103.3
				C416,103.3,415.9,103.3,415.9,103.3z"/>
		</g>
	</g>
	<g>
		<g>
			<path class="st5" d="M349.7,47.5C349.7,47.5,349.7,47.5,349.7,47.5l-2,5.6l-1.9-5.5c0,0,0-0.1-0.1-0.1s-0.1,0-0.1,0.1l-2,5.7
				c0,0.1,0,0.2,0,0.2c0,0.1,0.1,0,0.1,0l1.9-5.5l1.9,5.5c0,0,0,0,0,0c0,0,0,0,0,0c0,0,0,0,0,0c0,0,0,0,0,0c0,0,0,0,0,0c0,0,0,0,0,0
				c0,0,0,0,0,0c0,0,0.1,0,0.1-0.1l1.9-5.5l1.9,5.5c0,0,0,0,0,0c0,0,0,0,0,0c0,0,0,0,0,0c0,0,0,0,0,0c0,0,0,0,0,0c0,0,0,0,0,0
				c0,0,0,0,0,0c0,0,0,0,0,0c0,0,0,0,0,0c0,0,0,0,0,0c0,0,0,0,0,0l1.9-5.5l1.9,5.5c0,0,0,0,0,0c0,0,0,0,0,0c0,0,0,0,0,0c0,0,0,0,0,0
				c0,0,0,0,0,0c0,0,0,0,0,0c0,0,0,0,0,0c0,0,0,0,0,0c0,0,0,0,0,0c0,0,0,0,0,0c0,0,0,0,0,0l1.9-5.5l1.9,5.5c0,0,0,0,0,0c0,0,0,0,0,0
				c0,0,0,0,0,0c0,0,0,0,0,0c0,0,0,0,0,0c0,0,0,0,0,0c0,0,0,0,0,0c0,0,0,0,0,0c0,0,0,0,0,0c0,0,0,0,0,0c0,0,0,0,0,0l1.9-5.5l1.9,5.5
				c0,0,0,0,0,0c0,0,0,0,0,0c0,0,0,0,0,0c0,0,0,0,0,0c0,0,0,0,0,0c0,0,0,0,0,0c0,0,0,0,0,0c0,0,0,0,0,0c0,0,0,0,0,0c0,0,0,0,0,0
				c0,0,0,0,0,0l1.9-5.5l1.9,5.5c0,0,0,0,0,0c0,0,0,0,0,0c0,0,0,0,0,0c0,0,0,0,0,0c0,0,0,0,0,0c0,0,0,0,0,0c0,0,0,0,0,0c0,0,0,0,0,0
				c0,0,0,0,0,0c0,0,0,0,0,0c0,0,0,0,0,0l1.9-5.5l1.9,5.5c0,0,0,0.1,0.1,0.1c0,0,0,0,0,0c0-0.1,0.1-0.2,0-0.2l-2-5.7
				c0,0,0-0.1-0.1-0.1s-0.1,0-0.1,0.1l-1.9,5.5l-1.9-5.5c0,0,0-0.1-0.1-0.1s-0.1,0-0.1,0.1l-1.9,5.5l-1.9-5.5c0,0,0-0.1-0.1-0.1
				s-0.1,0-0.1,0.1l-1.9,5.5l-1.9-5.5c0,0,0-0.1-0.1-0.1s-0.1,0-0.1,0.1l-1.9,5.5l-1.9-5.5c0,0,0-0.1-0.1-0.1s-0.1,0-0.1,0.1
				l-1.9,5.5L349.7,47.5C349.8,47.5,349.8,47.5,349.7,47.5z"/>
			<path class="st5" d="M373.6,47.5C373.6,47.5,373.6,47.5,373.6,47.5l-2,5.8c0,0.1,0,0.2,0,0.2c0,0.1,0.1,0,0.1,0l1.9-5.5l1.9,5.5
				c0,0,0,0,0,0c0,0,0,0,0,0c0,0,0,0,0,0c0,0,0,0,0,0c0,0,0,0,0,0c0,0,0,0,0,0c0,0,0,0,0,0c0,0,0.1,0,0.1-0.1l1.9-5.5l1.9,5.5
				c0,0,0,0,0,0c0,0,0,0,0,0c0,0,0,0,0,0c0,0,0,0,0,0c0,0,0,0,0,0c0,0,0,0,0,0c0,0,0,0,0,0c0,0,0,0,0,0c0,0,0,0,0,0c0,0,0,0,0,0
				c0,0,0,0,0,0l1.9-5.5l1.9,5.5c0,0,0,0,0,0c0,0,0,0,0,0c0,0,0,0,0,0c0,0,0,0,0,0c0,0,0,0,0,0c0,0,0,0,0,0c0,0,0,0,0,0c0,0,0,0,0,0
				c0,0,0,0,0,0c0,0,0,0,0,0c0,0,0,0,0,0l1.9-5.5l1.9,5.5c0,0,0,0,0,0c0,0,0,0,0,0c0,0,0,0,0,0c0,0,0,0,0,0c0,0,0,0,0,0c0,0,0,0,0,0
				c0,0,0,0,0,0c0,0,0,0,0,0c0,0,0,0,0,0c0,0,0,0,0,0c0,0,0,0,0,0l1.9-5.5l1.9,5.5c0,0,0,0,0,0c0,0,0,0,0,0c0,0,0,0,0,0c0,0,0,0,0,0
				c0,0,0,0,0,0c0,0,0,0,0,0c0,0,0,0,0,0c0,0,0,0,0,0c0,0,0,0,0,0c0,0,0,0,0,0c0,0,0,0,0,0l1.9-5.5l1.9,5.5c0,0,0,0,0,0c0,0,0,0,0,0
				c0,0,0,0,0,0c0,0,0,0,0,0c0,0,0,0,0,0c0,0,0,0,0,0c0,0,0,0,0,0c0,0,0,0,0,0c0,0,0,0,0,0c0,0,0,0,0,0c0,0,0,0,0,0l1.9-5.5l1.9,5.5
				c0,0,0,0.1,0.1,0.1c0,0,0,0,0,0c0,0,0.1,0,0.1-0.1l1.9-5.5l1.9,5.5c0,0,0,0,0,0c0,0,0,0,0,0c0,0,0,0,0,0c0,0,0,0,0,0c0,0,0,0,0,0
				c0,0,0,0,0,0c0,0,0,0,0,0c0,0,0,0,0,0c0,0,0,0,0,0c0,0,0,0,0,0c0,0,0,0,0,0l1.9-5.5l1.9,5.5c0,0,0,0,0,0c0,0,0,0,0,0c0,0,0,0,0,0
				c0,0,0,0,0,0c0,0,0,0,0,0c0,0,0,0,0,0c0,0,0,0,0,0c0,0,0,0,0,0c0,0,0,0,0,0c0,0,0,0,0,0c0,0,0,0,0,0l1.9-5.5l1.9,5.5c0,0,0,0,0,0
				c0,0,0,0,0,0c0,0,0,0,0,0c0,0,0,0,0,0c0,0,0,0,0,0c0,0,0,0,0,0c0,0,0,0,0,0c0,0,0,0,0,0c0,0,0,0,0,0c0,0,0,0,0,0c0,0,0,0,0,0
				l1.9-5.5l1.9,5.5c0,0,0,0.1,0.1,0.1c0,0,0,0,0,0c0-0.1,0.1-0.2,0-0.2l-2-5.7c0,0,0-0.1-0.1-0.1s-0.1,0-0.1,0.1l-1.9,5.5l-1.9-5.5
				c0,0,0-0.1-0.1-0.1c0,0-0.1,0-0.1,0.1l-1.9,5.5l-1.9-5.5c0,0,0-0.1-0.1-0.1c0,0-0.1,0-0.1,0.1l-1.9,5.5l-1.9-5.5
				c0,0,0-0.1-0.1-0.1c0,0-0.1,0-0.1,0.1l-1.9,5.5l-1.9-5.5c0,0,0-0.1-0.1-0.1c0,0-0.1,0-0.1,0.1l-1.9,5.5l-1.9-5.5
				c0,0,0-0.1-0.1-0.1s-0.1,0-0.1,0.1l-1.9,5.5l-1.9-5.5c0,0,0-0.1-0.1-0.1c0,0-0.1,0-0.1,0.1l-1.9,5.5l-1.9-5.5c0,0,0-0.1-0.1-0.1
				c0,0-0.1,0-0.1,0.1l-1.9,5.5l-1.9-5.5c0,0,0-0.1-0.1-0.1c0,0-0.1,0-0.1,0.1l-1.9,5.5l-1.9-5.5c0,0,0-0.1-0.1-0.1s-0.1,0-0.1,0.1
				l-1.9,5.5L373.6,47.5C373.7,47.5,373.6,47.5,373.6,47.5z"/>
		</g>
	</g>
	<path class="st3" d="M415.2,72.8v72.7h7.5V72.8H415.2z M416.1,74.2h5.6V144h-5.6V74.2z"/>
	
		<rect x="415.8" y="77.2" transform="matrix(-1 -1.224647e-16 1.224647e-16 -1 837.7813 154.6867)" class="st3" width="6.2" height="0.3"/>
	
		<rect x="415.8" y="81.2" transform="matrix(-1 -1.224647e-16 1.224647e-16 -1 837.7813 162.6222)" class="st3" width="6.2" height="0.3"/>
	
		<rect x="415.8" y="85.1" transform="matrix(-1 -1.224647e-16 1.224647e-16 -1 837.7813 170.5548)" class="st3" width="6.2" height="0.3"/>
	
		<rect x="415.8" y="89.1" transform="matrix(-1 -1.224647e-16 1.224647e-16 -1 837.7813 178.4904)" class="st3" width="6.2" height="0.3"/>
	
		<rect x="415.8" y="93.1" transform="matrix(-1 -1.224647e-16 1.224647e-16 -1 837.7813 186.424)" class="st3" width="6.2" height="0.3"/>
	
		<rect x="415.8" y="97" transform="matrix(-1 -1.224647e-16 1.224647e-16 -1 837.7813 194.3596)" class="st3" width="6.2" height="0.3"/>
	
		<rect x="415.8" y="101" transform="matrix(-1 -1.224647e-16 1.224647e-16 -1 837.7813 202.2931)" class="st3" width="6.2" height="0.3"/>
	
		<rect x="415.8" y="105" transform="matrix(-1 -1.224647e-16 1.224647e-16 -1 837.7813 210.2277)" class="st3" width="6.2" height="0.3"/>
	
		<rect x="415.8" y="108.9" transform="matrix(-1 -1.224647e-16 1.224647e-16 -1 837.7813 218.1613)" class="st3" width="6.2" height="0.3"/>
	
		<rect x="415.8" y="112.9" transform="matrix(-1 -1.224647e-16 1.224647e-16 -1 837.7813 226.0968)" class="st3" width="6.2" height="0.3"/>
	
		<rect x="415.8" y="116.9" transform="matrix(-1 -1.224647e-16 1.224647e-16 -1 837.7813 234.0304)" class="st3" width="6.2" height="0.3"/>
	
		<rect x="415.8" y="120.8" transform="matrix(-1 -1.224647e-16 1.224647e-16 -1 837.7813 241.966)" class="st3" width="6.2" height="0.3"/>
	
		<rect x="415.8" y="124.8" transform="matrix(-1 -1.224647e-16 1.224647e-16 -1 837.7813 249.8996)" class="st3" width="6.2" height="0.3"/>
	
		<rect x="415.8" y="128.8" transform="matrix(-1 -1.224647e-16 1.224647e-16 -1 837.7813 257.8342)" class="st3" width="6.2" height="0.3"/>
	
		<rect x="415.8" y="132.7" transform="matrix(-1 -1.224647e-16 1.224647e-16 -1 837.7813 265.7688)" class="st3" width="6.2" height="0.3"/>
	
		<rect x="415.8" y="136.7" transform="matrix(-1 -1.224647e-16 1.224647e-16 -1 837.7813 273.7033)" class="st3" width="6.2" height="0.3"/>
	
		<rect x="415.8" y="140.7" transform="matrix(-1 -1.224647e-16 1.224647e-16 -1 837.7813 281.6378)" class="st3" width="6.2" height="0.3"/>
	
		<rect x="343.1" y="53.1" transform="matrix(-1 -1.224647e-16 1.224647e-16 -1 758.2813 107.6828)" class="st3" width="72.1" height="1.5"/>
	<path class="st3" d="M345.7,47.7h67.6l0,0c0-0.8-0.7-1.5-1.5-1.5h-66.1V47.7z"/>
	<path class="st4" d="M414,72.8h10c0.8,0,1.5-0.7,1.5-1.5l0,0c0-0.8-0.7-1.5-1.5-1.5h-10c-0.8,0-1.5,0.7-1.5,1.5l0,0
		C412.5,72.1,413.1,72.8,414,72.8z"/>
	<path class="st3" d="M423.6,64.3v5.5h-9.9v-5.6c0-0.6,0.5-1.2,1.2-1.2h7.5C423,63,423.6,63.5,423.6,64.3z"/>
	<polygon class="st3" points="415.6,62.7 422.7,55.7 422,55.1 415.3,61.8 	"/>
	<path class="st6" d="M416,64.1v3.7c0,0.5-0.4,0.8-0.8,0.8h-2.6c-0.7,0-1.2-0.5-1.2-1.2v-1c0-1.9,1.6-3.5,3.5-3.5l0,0
		C415.5,63,416,63.5,416,64.1z"/>
	<path class="st4" d="M415,55.8h8.3c0.9,0,1.6-0.7,1.6-1.6l0,0c0-0.9-0.7-1.6-1.6-1.6H415c-0.9,0-1.6,0.7-1.6,1.6l0,0
		C413.4,55.1,414.1,55.8,415,55.8z"/>
	
		<rect x="416.4" y="49" transform="matrix(-1 -1.224647e-16 1.224647e-16 -1 837.2324 98.8146)" class="st3" width="4.4" height="0.7"/>
	
		<rect x="417.3" y="45" transform="matrix(-1 -1.224647e-16 1.224647e-16 -1 837.2324 90.6847)" class="st3" width="2.7" height="0.7"/>
	<path class="st4" d="M363.8,56.4h8.3c0.7,0,1.3-0.6,1.3-1.3l0,0c0-0.7-0.6-1.3-1.3-1.3h-8.3c-0.7,0-1.3,0.6-1.3,1.3l0,0
		C362.5,55.8,363.1,56.4,363.8,56.4z"/>
	<path class="st7" d="M412.4,149.8h13v-2.3c0-1.1-0.9-2-2-2h-8.9c-1.1,0-2,0.9-2,2V149.8z"/>
	<path class="st8" d="M411,152.4h15.8c0.5,0,0.8-0.4,0.8-0.8v-0.8c0-0.6-0.5-1.1-1.1-1.1h-15.4c-0.6,0-1.1,0.5-1.1,1.1v0.8
		C410.2,152,410.5,152.4,411,152.4z"/>
	<path class="st3" d="M353.6,105.3c0.1,0,0.1,0,0.2-0.1l14.3-10.9c0.1-0.1,0.2-0.3,0.1-0.5c-0.1-0.1-0.3-0.2-0.5-0.1l-14.3,10.9
		c-0.1,0.1-0.2,0.3-0.1,0.5C353.4,105.3,353.5,105.3,353.6,105.3z"/>
	<path class="st6" d="M366.8,91.2c0.2-0.1,0.3-0.3,0.3-0.6v-2h1.6v2c0,0.9-0.4,1.6-1.1,2c-0.3,0.1-0.4,0.4-0.4,0.7
		c0,0.4,0.3,0.8,0.8,0.8c0.4,0,0.8-0.3,0.8-0.8c0-0.4,0.3-0.8,0.8-0.8c0.4,0,0.8,0.3,0.8,0.8c0,1.3-1,2.3-2.3,2.3
		c-1.3,0-2.3-1-2.3-2.3C365.6,92.4,366.1,91.6,366.8,91.2L366.8,91.2z"/>
	
		<rect x="367.1" y="56.4" transform="matrix(-1 -1.224647e-16 1.224647e-16 -1 735.8379 140.8605)" class="st6" width="1.6" height="28.1"/>
	<path class="st3" d="M367.9,89.6L367.9,89.6c1,0,1.9-0.8,1.9-1.9v-3.3c0-1-0.8-1.9-1.9-1.9l0,0c-1,0-1.9,0.8-1.9,1.9v3.3
		C366,88.8,366.9,89.6,367.9,89.6z"/>
	<path class="st3" d="M382.2,105.3c0.1,0,0.2,0,0.3-0.1c0.1-0.1,0.1-0.4-0.1-0.5l-14.3-10.9c-0.1-0.1-0.4-0.1-0.5,0.1
		c-0.1,0.1-0.1,0.4,0.1,0.5l14.3,10.9C382.1,105.3,382.2,105.3,382.2,105.3z"/>
	<path class="st9" d="M352.9,106.4h29.3c0.5,0,0.8-0.4,0.8-0.8V105c0-0.5-0.4-0.8-0.8-0.8h-29.3c-0.5,0-0.8,0.4-0.8,0.8v0.6
		C352.1,106.1,352.5,106.4,352.9,106.4z"/>
</g>
<g>
	<path class="st10" d="M66.5,148.5l0.2-0.1c0.1-0.1,0.1-0.2,0-0.2l-1-1.4c-0.1-0.1-0.2-0.1-0.2,0l-0.2,0.1c-0.1,0.1-0.1,0.2,0,0.2
		l1,1.4C66.3,148.5,66.4,148.5,66.5,148.5z"/>
	
		<rect x="64.9" y="145.8" transform="matrix(-0.8111 0.585 -0.585 -0.8111 203.3228 226.8979)" class="st11" width="0.2" height="1.1"/>
	<path class="st10" d="M54.9,145.4c0.3,0,0.6,0.2,0.7,0.5l0.7,3.6H53v-4.2L54.9,145.4z"/>
	<path class="st3" d="M45,146.8l0.5-0.5l1.2-3c0.1-0.3,0.4-0.5,0.8-0.5h4.7c0.4,0,0.7,0.3,0.7,0.7v7.9h-7.4h-0.5
		c-0.3,0-0.6-0.3-0.6-0.6V148C44.5,147.6,44.7,147.1,45,146.8z"/>
	<path class="st12" d="M52,143.9v1.6c0,0.2-0.2,0.4-0.4,0.4H47c-0.3,0-0.5-0.3-0.4-0.6l0.6-1.6c0.1-0.2,0.2-0.3,0.4-0.3h3.9
		C51.8,143.5,52,143.7,52,143.9z"/>
	<path class="st13" d="M52.9,151.4H74v-0.7c0-0.2-0.1-0.3-0.3-0.3H52.9V151.4z"/>
	<path class="st10" d="M45.7,152.8h27.5c0.4,0,0.8-0.4,0.8-0.8v-0.6h-29v0.7C45.1,152.5,45.4,152.8,45.7,152.8z"/>
	<path class="st14" d="M73.6,149.8v0.6H53v-1h19.9C73.3,149.4,73.6,149.4,73.6,149.8z"/>
	<path class="st13" d="M45,146.8l0.3-0.2H53v0.3L45,146.8C45,146.8,45,146.8,45,146.8z"/>
	<path class="st15" d="M51.4,150.2c-1.5,0-2.7,1-3.1,2.4c-0.1,0.4-0.5,0.7-0.9,0.7l0,0c0,0-0.1,0-0.1-0.1c0-2.2,1.8-4,4.1-4
		c2.2,0,4,1.8,4.1,4c0,0,0,0.1-0.1,0.1l0,0c-0.4,0-0.8-0.3-0.9-0.7C54.1,151.2,52.9,150.2,51.4,150.2z"/>
	<path class="st13" d="M48.3,152.6c0.3-1.4,1.6-2.4,3.1-2.4c1.5,0,2.7,1,3.1,2.4c0,0.1,0,0.1,0.1,0.2h-6.3
		C48.2,152.7,48.3,152.6,48.3,152.6z"/>
	<path class="st16" d="M48.5,153.3c0,1.6,1.3,2.9,2.9,2.9c1.6,0,2.9-1.3,2.9-2.9s-1.3-2.9-2.9-2.9C49.8,150.4,48.5,151.7,48.5,153.3
		z"/>
	<path class="st3" d="M50.4,153.3c0,0.6,0.4,1,1,1c0.6,0,1-0.4,1-1c0-0.6-0.4-1-1-1C50.8,152.3,50.4,152.8,50.4,153.3z"/>
	<path class="st11" d="M46,151.3v0.9c0,0.5-0.4,0.9-0.9,0.9h-0.7c-0.5,0-0.9-0.4-0.9-0.9v-0.6c0-0.5,0.4-0.9,0.9-0.9h1
		C45.7,150.7,46,151,46,151.3z"/>
	<path class="st15" d="M63.6,149.3h6.9c2.2,0,4,1.8,4.1,4c0,0,0,0.1-0.1,0.1c-0.4,0-0.8-0.3-0.9-0.7c-0.3-1.4-1.6-2.4-3.1-2.4v0
		h-6.9v0c-1.5,0-2.7,1-3.1,2.4c-0.1,0.4-0.5,0.7-0.9,0.7c0,0-0.1,0-0.1-0.1C59.6,151,61.4,149.3,63.6,149.3z"/>
	<path class="st14" d="M60.5,152.6c0.3-1.4,1.6-2.4,3.1-2.4v0h6.9v0c1.5,0,2.7,1,3.1,2.4c0,0.1,0,0.1,0.1,0.2H60.5
		C60.5,152.7,60.5,152.6,60.5,152.6z"/>
	<path class="st16" d="M60.9,153.3c0,1.6,1.3,2.9,2.9,2.9c1.6,0,2.9-1.3,2.9-2.9s-1.3-2.9-2.9-2.9C62.2,150.4,60.9,151.7,60.9,153.3
		z"/>
	<path class="st3" d="M62.8,153.3c0,0.6,0.4,1,1,1c0.6,0,1-0.4,1-1c0-0.6-0.4-1-1-1C63.3,152.3,62.8,152.8,62.8,153.3z"/>
	<path class="st16" d="M67.5,153.3c0,1.6,1.3,2.9,2.9,2.9c1.6,0,2.9-1.3,2.9-2.9s-1.3-2.9-2.9-2.9C68.8,150.4,67.5,151.7,67.5,153.3
		z"/>
	<path class="st3" d="M69.4,153.3c0,0.6,0.4,1,1,1c0.6,0,1-0.4,1-1c0-0.6-0.4-1-1-1C69.8,152.3,69.4,152.8,69.4,153.3z"/>
	<path class="st14" d="M66.2,149.3h4.5v-0.6c0-0.3-0.2-0.6-0.6-0.6h-3.4c-0.3,0-0.6,0.2-0.6,0.6V149.3z"/>
	<g>
		<path class="st3" d="M71.7,148.8l-15.3-6.3c-0.4-0.2-0.7-0.6-0.6-1.1l0.7-7.3c0-0.5-0.2-1-0.7-1.2l-3.1-1.3
			c-0.2-0.1-0.4-0.3-0.4-0.6l0,0c0-0.4,0.3-0.7,0.7-0.6l4.2,0.5c0.2,0,0.3,0.1,0.5,0.2L78,143.4c0.4,0.2,0.5,0.8,0.3,1.2l-1.9,2.9
			l-3.1,1.4C72.8,149,72.2,149,71.7,148.8z"/>
		<path class="st17" d="M57.4,141.8l2.3-5.5c0.1-0.1,0-0.3-0.1-0.3l0,0c-0.1,0-0.3,0-0.3,0.1l-2.3,5.5c-0.1,0.1,0,0.3,0.1,0.3l0,0
			C57.2,141.9,57.4,141.9,57.4,141.8z"/>
		<path class="st17" d="M60.1,142.8l2.3-5.5c0.1-0.1,0-0.3-0.1-0.3l0,0c-0.1-0.1-0.3,0-0.3,0.1l-2.3,5.5c-0.1,0.1,0,0.3,0.1,0.3l0,0
			C59.9,143,60,143,60.1,142.8z"/>
		<path class="st17" d="M62.7,143.9l2.3-5.5c0.1-0.1,0-0.3-0.1-0.3l0,0c-0.1-0.1-0.3,0-0.3,0.1l-2.3,5.5c-0.1,0.1,0,0.3,0.1,0.3l0,0
			C62.5,144.1,62.7,144.1,62.7,143.9z"/>
		<path class="st17" d="M65.3,145l2.3-5.5c0.1-0.1,0-0.3-0.1-0.3l0,0c-0.1-0.1-0.3,0-0.3,0.1l-2.3,5.5c-0.1,0.1,0,0.3,0.1,0.3l0,0
			C65.2,145.2,65.3,145.1,65.3,145z"/>
		<path class="st17" d="M68,146.1l2.3-5.5c0.1-0.1,0-0.3-0.1-0.3l0,0c-0.1-0.1-0.3,0-0.3,0.1l-2.3,5.5c-0.1,0.1,0,0.3,0.1,0.3l0,0
			C67.8,146.3,67.9,146.2,68,146.1z"/>
		<path class="st17" d="M70.6,147.2l2.3-5.5c0.1-0.1,0-0.3-0.1-0.3l0,0c-0.1,0-0.3,0-0.3,0.1l-2.3,5.5c0,0.1,0,0.3,0.1,0.3l0,0
			C70.4,147.4,70.6,147.3,70.6,147.2z"/>
		<path class="st17" d="M73.3,148.3l2.3-5.5c0.1-0.1,0-0.3-0.1-0.3l0,0c-0.1-0.1-0.3,0-0.3,0.1l-2.3,5.5c-0.1,0.1,0,0.3,0.1,0.3l0,0
			C73.1,148.5,73.2,148.4,73.3,148.3z"/>
	</g>
	<path class="st13" d="M50.3,147.7H51c0.1,0,0.2-0.1,0.2-0.2l0,0c0-0.1-0.1-0.2-0.2-0.2h-0.7c-0.1,0-0.2,0.1-0.2,0.2l0,0
		C50.1,147.7,50.2,147.7,50.3,147.7z"/>
</g>
<g>
	<path class="st18" d="M147.6,148h-1.4v-1c0-0.4,0.3-0.7,0.7-0.7h0c0.4,0,0.7,0.3,0.7,0.7L147.6,148L147.6,148L147.6,148z"/>
	<path class="st19" d="M147.8,148.2h-1.7V148c0-0.1,0.1-0.1,0.2-0.1h1.4c0.1,0,0.1,0.1,0.1,0.1L147.8,148.2L147.8,148.2L147.8,148.2
		z"/>
	<path class="st20" d="M146.7,146.9c-0.1,0.1-0.2,0.1-0.3,0.1c-0.1-0.1,0-0.2,0.1-0.3c0.1-0.1,0.2-0.1,0.3-0.1
		C146.9,146.6,146.8,146.8,146.7,146.9L146.7,146.9z"/>
	<path class="st18" d="M157.1,148h-1.4v-1c0-0.4,0.3-0.7,0.7-0.7h0c0.4,0,0.7,0.3,0.7,0.7L157.1,148L157.1,148L157.1,148z"/>
	<path class="st19" d="M157.2,148.2h-1.7V148c0-0.1,0.1-0.1,0.1-0.1h1.4c0.1,0,0.2,0.1,0.2,0.1L157.2,148.2L157.2,148.2L157.2,148.2
		z"/>
	<path class="st20" d="M156.2,146.9c-0.1,0.1-0.2,0.1-0.3,0.1c-0.1-0.1,0-0.2,0.1-0.3c0.1-0.1,0.2-0.1,0.3-0.1
		C156.4,146.6,156.3,146.8,156.2,146.9L156.2,146.9z"/>
	<polygon class="st21" points="155.4,152.3 156.4,152.3 156.4,156.2 155.4,156.2 155.4,152.3 	"/>
	<path class="st19" d="M157.1,156.2v-0.3c0-0.2-0.1-0.3-0.3-0.3H155c-0.2,0-0.3,0.1-0.3,0.3v0.3H157.1L157.1,156.2z"/>
	<polygon class="st21" points="146.9,152.3 148,152.3 148,156.2 146.9,156.2 146.9,152.3 	"/>
	<path class="st22" d="M157.8,148.2h-12.3c-0.1,0-0.2,0.1-0.2,0.2v3.8c0,0.1,0.1,0.2,0.2,0.2h12.3c0.1,0,0.2-0.1,0.2-0.2v-3.8
		C158,148.3,157.9,148.2,157.8,148.2L157.8,148.2z"/>
	<polygon class="st18" points="157.2,152.3 156,152.3 155.1,148.2 156.4,148.2 157.2,152.3 	"/>
	<polygon class="st18" points="154.2,152.3 153,152.3 152.1,148.2 153.4,148.2 154.2,152.3 	"/>
	<polygon class="st18" points="151.2,152.3 149.9,152.3 149.1,148.2 150.3,148.2 151.2,152.3 	"/>
	<polygon class="st18" points="148.2,152.3 146.9,152.3 146.1,148.2 147.3,148.2 148.2,152.3 	"/>
	<path class="st19" d="M148.6,156.2v-0.3c0-0.2-0.1-0.3-0.3-0.3h-1.7c-0.2,0-0.3,0.1-0.3,0.3v0.3H148.6L148.6,156.2z"/>
</g>
<g>
	<g>
		<rect x="102.5" y="116.5" class="st1" width="39.2" height="0.8"/>
		<rect x="102.5" y="91.3" class="st1" width="39.2" height="0.8"/>
		<rect x="102.5" y="103.9" class="st1" width="39.2" height="0.8"/>
		<rect x="102.5" y="129" class="st1" width="39.2" height="0.8"/>
		<rect x="102.5" y="141.6" class="st1" width="39.2" height="0.8"/>
	</g>
	<g>
		<rect x="105.4" y="81.5" class="st1" width="0.8" height="70.9"/>
		<rect x="116.2" y="81.5" class="st1" width="0.8" height="70.9"/>
		<rect x="127.1" y="81.5" class="st1" width="0.8" height="70.9"/>
		<rect x="138" y="81.5" class="st1" width="0.8" height="70.9"/>
	</g>
</g>
<g>
	<path class="st11" d="M391.5,151.1c0,2.8,2.3,5.1,5.1,5.1c2.8,0,5.1-2.3,5.1-5.1c0-2.8-2.3-5.1-5.1-5.1
		C393.8,145.9,391.5,148.2,391.5,151.1z"/>
	<path class="st3" d="M370.2,153v-5.8c0,0-0.5-3.4,12-3.4h9.8c0.4,0,0.7,0.2,0.9,0.5l0.3,0.4c0.2,0.4,0.2,0.8-0.1,1.2l-3.3,3.7v3.4
		H370.2z"/>
	<path class="st10" d="M392,143.8l-1-7.2c-0.1-0.6-0.6-1.1-1.3-1.1h-6.7c-0.7,0-1.3,0.6-1.3,1.3v7H392z"/>
	<path class="st12" d="M390.2,136.8l0.8,5.4c0.1,0.3-0.2,0.7-0.6,0.7h-2.2v-6.5h1.4C389.9,136.4,390.1,136.6,390.2,136.8z"/>
	<path class="st12" d="M383.3,142.9h4.3v-6.5h-4.3c-0.4,0-0.6,0.3-0.6,0.6v5.2C382.7,142.6,383,142.9,383.3,142.9z"/>
	<path class="st13" d="M392.3,151.1c0,2.4,1.9,4.3,4.3,4.3c2.4,0,4.3-1.9,4.3-4.3c0-2.4-1.9-4.3-4.3-4.3
		C394.2,146.8,392.3,148.7,392.3,151.1z"/>
	<path class="st13" d="M373.3,149.7c0.8-1.5,2.5-2.6,4.3-2.6c1.9,0,3.5,1,4.3,2.6h7.8v3.4h-7.3h-9.6h-2.5v-3.4H373.3z"/>
	<path class="st10" d="M372.5,150.4v2c0,0.6-0.5,1.1-1.1,1.1h-1.3c-0.2,0-0.5-0.1-0.7-0.2l-1.3-0.8c-0.2-0.2-0.4-0.4-0.4-0.7v-1.3
		c0-0.5,0.4-0.8,0.8-0.8h3.2C372.2,149.7,372.5,150,372.5,150.4z"/>
	<path class="st3" d="M387.7,153.4l15.6-0.4c0.4,0,0.7-0.3,0.7-0.7v-1.1c0-0.4-0.3-0.7-0.7-0.7l-15.6-0.4c-0.3,0-0.6,0.2-0.6,0.6
		v2.3C387.1,153.1,387.4,153.4,387.7,153.4z"/>
	<path class="st13" d="M396.1,151.6c0,0.3,0.2,0.5,0.5,0.5c0.3,0,0.5-0.2,0.5-0.5s-0.2-0.5-0.5-0.5
		C396.3,151.1,396.1,151.3,396.1,151.6z"/>
	<path class="st16" d="M373.4,152c0,2.3,1.9,4.2,4.2,4.2c2.3,0,4.2-1.9,4.2-4.2c0-2.3-1.9-4.2-4.2-4.2
		C375.3,147.8,373.4,149.6,373.4,152z"/>
	<path class="st3" d="M375.5,152c0,1.2,0.9,2.1,2.1,2.1c1.2,0,2.1-0.9,2.1-2.1c0-1.2-0.9-2.1-2.1-2.1
		C376.4,149.9,375.5,150.8,375.5,152z"/>
	<path class="st13" d="M384.8,148.8h2.6c0.2,0,0.3-0.1,0.4-0.3l0.2-0.6c0.1-0.3-0.1-0.6-0.4-0.6h-2.9c-0.3,0-0.5,0.3-0.4,0.6
		l0.2,0.6C384.4,148.7,384.6,148.8,384.8,148.8z"/>
	<path class="st23" d="M381.7,147.1L381.7,147.1c0.1,0,0.1,0,0.1-0.1v-2.5c0-0.1-0.1-0.1-0.1-0.1l0,0c-0.1,0-0.1,0.1-0.1,0.1v2.5
		C381.6,147,381.6,147.1,381.7,147.1z"/>
	<path class="st23" d="M381.2,147.1L381.2,147.1c0.1,0,0.1,0,0.1-0.1v-2.5c0-0.1-0.1-0.1-0.1-0.1l0,0c-0.1,0-0.1,0.1-0.1,0.1v2.5
		C381.1,147,381.2,147.1,381.2,147.1z"/>
	<path class="st23" d="M380.8,147.1L380.8,147.1c0.1,0,0.1,0,0.1-0.1v-2.5c0-0.1,0-0.1-0.1-0.1l0,0c-0.1,0-0.1,0.1-0.1,0.1v2.5
		C380.7,147,380.8,147.1,380.8,147.1z"/>
	<path class="st23" d="M380.4,147.1L380.4,147.1c0.1,0,0.1,0,0.1-0.1v-2.5c0-0.1,0-0.1-0.1-0.1l0,0c-0.1,0-0.1,0.1-0.1,0.1v2.5
		C380.3,147,380.3,147.1,380.4,147.1z"/>
</g>
<g>
	<path class="st18" d="M349.2,148h-1.4v-1c0-0.4,0.3-0.7,0.7-0.7h0c0.4,0,0.7,0.3,0.7,0.7L349.2,148L349.2,148L349.2,148z"/>
	<path class="st19" d="M349.4,148.2h-1.7V148c0-0.1,0.1-0.1,0.2-0.1h1.4c0.1,0,0.1,0.1,0.1,0.1L349.4,148.2L349.4,148.2L349.4,148.2
		z"/>
	<path class="st20" d="M348.3,146.9c-0.1,0.1-0.2,0.1-0.3,0.1c-0.1-0.1,0-0.2,0.1-0.3c0.1-0.1,0.2-0.1,0.3-0.1
		C348.5,146.6,348.4,146.8,348.3,146.9L348.3,146.9z"/>
	<path class="st18" d="M358.7,148h-1.4v-1c0-0.4,0.3-0.7,0.7-0.7h0c0.4,0,0.7,0.3,0.7,0.7L358.7,148L358.7,148L358.7,148z"/>
	<path class="st19" d="M358.9,148.2h-1.7V148c0-0.1,0.1-0.1,0.1-0.1h1.4c0.1,0,0.2,0.1,0.2,0.1L358.9,148.2L358.9,148.2L358.9,148.2
		z"/>
	<path class="st20" d="M357.8,146.9c-0.1,0.1-0.2,0.1-0.3,0.1c-0.1-0.1,0-0.2,0.1-0.3c0.1-0.1,0.2-0.1,0.3-0.1
		C358,146.6,357.9,146.8,357.8,146.9L357.8,146.9z"/>
	<polygon class="st21" points="357,152.3 358,152.3 358,156.2 357,156.2 357,152.3 	"/>
	<path class="st19" d="M358.7,156.2v-0.3c0-0.2-0.1-0.3-0.3-0.3h-1.7c-0.2,0-0.3,0.1-0.3,0.3v0.3H358.7L358.7,156.2z"/>
	<polygon class="st21" points="348.5,152.3 349.6,152.3 349.6,156.2 348.5,156.2 348.5,152.3 	"/>
	<path class="st22" d="M359.4,148.2h-12.3c-0.1,0-0.2,0.1-0.2,0.2v3.8c0,0.1,0.1,0.2,0.2,0.2h12.3c0.1,0,0.2-0.1,0.2-0.2v-3.8
		C359.6,148.3,359.5,148.2,359.4,148.2L359.4,148.2z"/>
	<polygon class="st18" points="358.9,152.3 357.6,152.3 356.7,148.2 358,148.2 358.9,152.3 	"/>
	<polygon class="st18" points="355.8,152.3 354.6,152.3 353.7,148.2 355,148.2 355.8,152.3 	"/>
	<polygon class="st18" points="352.8,152.3 351.6,152.3 350.7,148.2 352,148.2 352.8,152.3 	"/>
	<polygon class="st18" points="349.8,152.3 348.5,152.3 347.7,148.2 349,148.2 349.8,152.3 	"/>
	<path class="st19" d="M350.2,156.2v-0.3c0-0.2-0.1-0.3-0.3-0.3h-1.7c-0.2,0-0.3,0.1-0.3,0.3v0.3H350.2L350.2,156.2z"/>
</g>
<g>
	<path class="st0" d="M135.6,209.7v-17.2h12.8v3h-9.2v3.8h8.4v3h-8.4v4.5h9.6v3H135.6z"/>
	<path class="st0" d="M151.4,209.7v-17.2h3.8l6.9,12v-12h3.4v17.2h-3.6l-7.1-12.3v12.3H151.4z"/>
	<path class="st0" d="M186.6,198.1c-0.3-1-0.7-1.7-1.1-2.1c-0.7-0.6-1.5-0.9-2.6-0.9c-0.9,0-1.7,0.2-2.3,0.6s-1.2,1.1-1.6,2.1
		s-0.6,2-0.6,3.3s0.2,2.3,0.6,3.3s0.9,1.6,1.5,2s1.4,0.6,2.2,0.6c0.6,0,1.2-0.1,1.8-0.4s1-0.6,1.3-1s0.6-1.1,0.8-1.8h3.6
		c-0.2,0.9-0.4,1.7-0.6,2.2c-0.3,0.7-0.8,1.4-1.4,2.1s-1.4,1.2-2.3,1.5s-1.9,0.5-2.9,0.5c-1.2,0-2.3-0.2-3.3-0.6s-1.9-1-2.6-1.7
		s-1.3-1.8-1.6-2.9s-0.6-2.4-0.6-3.7c0-1.6,0.3-3.1,0.8-4.4c0.4-1,0.8-1.8,1.5-2.4s1.3-1.2,2.2-1.6c1.1-0.5,2.3-0.8,3.6-0.8
		c1.1,0,2.2,0.2,3.1,0.6s1.7,0.9,2.3,1.5s1.1,1.3,1.4,2.1c0.2,0.5,0.4,1.2,0.5,1.9H186.6z"/>
	<path class="st0" d="M191.5,201.1c0-1.8,0.3-3.4,1-4.8s1.6-2.5,2.9-3.2s2.7-1.1,4.3-1.1c1.7,0,3.2,0.4,4.5,1.2s2.3,1.9,2.9,3.3
		s1,2.9,1,4.6c0,1.7-0.4,3.3-1.1,4.7s-1.7,2.5-3,3.2s-2.7,1.1-4.3,1.1c-1.6,0-3-0.4-4.3-1.1s-2.2-1.8-2.9-3.2
		S191.5,202.8,191.5,201.1z M199.8,207c0.9,0,1.7-0.2,2.4-0.7s1.3-1.2,1.7-2.1s0.6-2,0.6-3.1c0-1.1-0.2-2.2-0.6-3.1
		s-0.9-1.6-1.7-2.1s-1.5-0.7-2.4-0.7c-0.9,0-1.7,0.2-2.4,0.7s-1.3,1.2-1.7,2.1s-0.6,2-0.6,3.1c0,1.1,0.2,2.1,0.6,3.1
		s0.9,1.7,1.7,2.1S198.9,207,199.8,207z"/>
	<path class="st0" d="M210.8,209.7v-17.2h3.8l6.9,12v-12h3.4v17.2h-3.6l-7.1-12.3v12.3H210.8z"/>
	<path class="st0" d="M230.9,204.4c0,0.6,0.1,1,0.3,1.3c0.3,0.4,0.7,0.8,1.3,1s1.3,0.4,2.1,0.4c1.2,0,2.2-0.3,2.8-0.8
		c0.5-0.4,0.7-0.8,0.7-1.4c0-0.4-0.1-0.7-0.3-1s-0.5-0.5-0.9-0.6c-0.4-0.2-1-0.3-1.9-0.5l-1.9-0.4c-1.2-0.3-2-0.5-2.6-0.7
		c-0.7-0.3-1.3-0.6-1.7-1s-0.7-0.8-0.9-1.4s-0.3-1.2-0.3-1.9c0-1.3,0.3-2.3,0.9-3.1s1.4-1.4,2.4-1.8s2.1-0.5,3.2-0.5
		c0.9,0,1.7,0.1,2.5,0.3s1.4,0.5,2,0.8s1,0.7,1.3,1.2s0.6,0.9,0.8,1.4s0.2,1.1,0.3,1.9h-3.5c0-0.5-0.1-1-0.4-1.4s-0.6-0.7-1.1-0.9
		s-1.2-0.4-2-0.4c-1.1,0-1.9,0.2-2.4,0.6s-0.8,0.9-0.8,1.5c0,0.6,0.2,1,0.6,1.3c0.2,0.2,0.9,0.4,1.9,0.6l3.5,0.8
		c0.9,0.2,1.7,0.5,2.2,0.8c0.8,0.4,1.3,1,1.7,1.6s0.6,1.4,0.6,2.3c0,0.8-0.1,1.5-0.4,2.1s-0.6,1.1-0.9,1.5s-0.8,0.7-1.4,1
		s-1.2,0.5-2.1,0.7s-1.6,0.3-2.5,0.3c-1,0-2-0.1-3-0.4c-0.7-0.2-1.2-0.5-1.7-0.8s-0.9-0.7-1.2-1.2s-0.6-0.9-0.7-1.4
		s-0.2-1.1-0.3-1.9H230.9z"/>
	<path class="st0" d="M241.8,195.4v-3h14.1v3h-5.3v14.3H247v-14.3H241.8z"/>
	<path class="st0" d="M257.8,192.5h8.5c1.3,0,2.4,0.2,3.1,0.6s1.4,1,1.8,1.7s0.7,1.6,0.7,2.6c0,1-0.2,1.9-0.7,2.6s-1.1,1.2-2,1.5
		c0.9,0.3,1.5,0.8,1.8,1.5c0.2,0.5,0.4,1.3,0.4,2.5v1.2c0,1,0.1,1.7,0.2,2c0.1,0.2,0.3,0.4,0.6,0.6v0.4h-4c-0.3-0.8-0.4-1.6-0.4-2.4
		v-1.6c0-0.8-0.1-1.4-0.3-1.7s-0.4-0.6-0.8-0.8s-0.9-0.2-1.7-0.2h-3.7v6.8h-3.6V192.5z M261.4,195.4v4.6h4.1c0.9,0,1.6-0.1,2-0.4
		c0.6-0.4,0.9-1,0.9-1.9c0-0.9-0.3-1.5-0.9-1.9c-0.4-0.3-1-0.4-1.9-0.4H261.4z"/>
	<path class="st0" d="M284.4,192.5h3.6V203c0,1-0.1,1.8-0.2,2.4c-0.2,0.8-0.4,1.5-0.8,2.1s-0.8,1-1.4,1.4s-1.2,0.6-2,0.9
		s-1.6,0.3-2.6,0.3c-1,0-1.9-0.1-2.8-0.4s-1.5-0.6-2.1-1s-1-0.9-1.3-1.5s-0.5-1.2-0.7-2.1c-0.1-0.5-0.1-1.2-0.1-2.1v-10.6h3.6v10.9
		c0,0.8,0.1,1.5,0.2,1.9c0.1,0.4,0.5,0.8,1,1.2s1.2,0.5,2.1,0.5c0.9,0,1.6-0.1,2-0.4s0.8-0.6,1-1.1s0.3-1.2,0.3-2.1V192.5z"/>
	<path class="st0" d="M301.5,198.1c-0.3-1-0.7-1.7-1.1-2.1c-0.7-0.6-1.5-0.9-2.6-0.9c-0.9,0-1.7,0.2-2.3,0.6s-1.2,1.1-1.6,2.1
		s-0.6,2-0.6,3.3s0.2,2.3,0.6,3.3s0.9,1.6,1.5,2s1.4,0.6,2.2,0.6c0.6,0,1.2-0.1,1.8-0.4s1-0.6,1.3-1s0.6-1.1,0.8-1.8h3.6
		c-0.2,0.9-0.4,1.7-0.6,2.2c-0.3,0.7-0.8,1.4-1.4,2.1s-1.4,1.2-2.3,1.5s-1.9,0.5-2.9,0.5c-1.2,0-2.3-0.2-3.3-0.6s-1.9-1-2.6-1.7
		s-1.3-1.8-1.6-2.9s-0.6-2.4-0.6-3.7c0-1.6,0.3-3.1,0.8-4.4c0.4-1,0.8-1.8,1.5-2.4s1.3-1.2,2.2-1.6c1.1-0.5,2.3-0.8,3.6-0.8
		c1.1,0,2.2,0.2,3.1,0.6s1.7,0.9,2.3,1.5s1.1,1.3,1.4,2.1c0.2,0.5,0.4,1.2,0.5,1.9H301.5z"/>
	<path class="st0" d="M318.9,198.1c-0.3-1-0.7-1.7-1.1-2.1c-0.7-0.6-1.5-0.9-2.6-0.9c-0.9,0-1.7,0.2-2.3,0.6s-1.2,1.1-1.6,2.1
		s-0.6,2-0.6,3.3s0.2,2.3,0.6,3.3s0.9,1.6,1.5,2s1.4,0.6,2.2,0.6c0.6,0,1.2-0.1,1.8-0.4s1-0.6,1.3-1s0.6-1.1,0.8-1.8h3.6
		c-0.2,0.9-0.4,1.7-0.6,2.2c-0.3,0.7-0.8,1.4-1.4,2.1s-1.4,1.2-2.3,1.5s-1.9,0.5-2.9,0.5c-1.2,0-2.3-0.2-3.3-0.6s-1.9-1-2.6-1.7
		s-1.3-1.8-1.6-2.9s-0.6-2.4-0.6-3.7c0-1.6,0.3-3.1,0.8-4.4c0.4-1,0.8-1.8,1.5-2.4s1.3-1.2,2.2-1.6c1.1-0.5,2.3-0.8,3.6-0.8
		c1.1,0,2.2,0.2,3.1,0.6s1.7,0.9,2.3,1.5s1.1,1.3,1.4,2.1c0.2,0.5,0.4,1.2,0.5,1.9H318.9z"/>
	<path class="st0" d="M324.9,209.7v-17.2h3.6v17.2H324.9z"/>
	<path class="st0" d="M331.1,201.1c0-1.8,0.3-3.4,1-4.8s1.6-2.5,2.9-3.2s2.7-1.1,4.3-1.1c1.7,0,3.2,0.4,4.5,1.2s2.3,1.9,2.9,3.3
		s1,2.9,1,4.6c0,1.7-0.4,3.3-1.1,4.7s-1.7,2.5-3,3.2s-2.7,1.1-4.3,1.1c-1.6,0-3-0.4-4.3-1.1s-2.2-1.8-2.9-3.2
		S331.1,202.8,331.1,201.1z M339.4,207c0.9,0,1.7-0.2,2.4-0.7s1.3-1.2,1.7-2.1s0.6-2,0.6-3.1c0-1.1-0.2-2.2-0.6-3.1
		s-0.9-1.6-1.7-2.1s-1.5-0.7-2.4-0.7c-0.9,0-1.7,0.2-2.4,0.7s-1.3,1.2-1.7,2.1s-0.6,2-0.6,3.1c0,1.1,0.2,2.1,0.6,3.1
		s0.9,1.7,1.7,2.1S338.5,207,339.4,207z M337.8,191.2l2.2-3.5h3.7l-3.6,3.5H337.8z"/>
	<path class="st0" d="M350.4,209.7v-17.2h3.8l6.9,12v-12h3.4v17.2h-3.6l-7.1-12.3v12.3H350.4z"/>
</g>
<g>
	<path class="st0" d="M144.5,235.7v-8.6h3.8c0.5,0,0.9,0,1.2,0.1s0.5,0.2,0.7,0.3s0.3,0.3,0.5,0.5s0.2,0.4,0.3,0.6
		c0.1,0.4,0.2,0.8,0.2,1.2c0,0.5-0.1,1-0.2,1.4s-0.4,0.7-0.6,0.9s-0.6,0.4-1,0.5c-0.3,0.1-0.7,0.1-1.1,0.1h-1.8v3.1H144.5z
		 M146.3,228.6v2.5h1.7c0.3,0,0.6-0.1,0.8-0.2s0.3-0.3,0.4-0.5s0.1-0.4,0.1-0.7c0-0.4-0.1-0.7-0.3-0.9s-0.5-0.3-1-0.3H146.3z"/>
	<path class="st0" d="M152.5,227.1h4.3c0.7,0,1.2,0.1,1.6,0.3s0.7,0.5,0.9,0.9s0.3,0.8,0.3,1.3c0,0.5-0.1,0.9-0.4,1.3
		s-0.6,0.6-1,0.8c0.4,0.2,0.7,0.4,0.9,0.8c0.1,0.2,0.2,0.7,0.2,1.3v0.6c0,0.5,0,0.8,0.1,1c0,0.1,0.1,0.2,0.3,0.3v0.2h-2
		c-0.1-0.4-0.2-0.8-0.2-1.2v-0.8c0-0.4,0-0.7-0.1-0.9s-0.2-0.3-0.4-0.4s-0.5-0.1-0.9-0.1h-1.9v3.4h-1.8V227.1z M154.3,228.6v2.3h2
		c0.5,0,0.8-0.1,1-0.2c0.3-0.2,0.5-0.5,0.5-1c0-0.4-0.1-0.8-0.4-0.9c-0.2-0.1-0.5-0.2-1-0.2H154.3z"/>
	<path class="st0" d="M160.5,231.4c0-0.9,0.2-1.7,0.5-2.4s0.8-1.2,1.5-1.6s1.3-0.5,2.1-0.5c0.8,0,1.6,0.2,2.2,0.6s1.1,0.9,1.5,1.6
		s0.5,1.5,0.5,2.3c0,0.9-0.2,1.6-0.5,2.4s-0.9,1.3-1.5,1.6s-1.4,0.5-2.2,0.5c-0.8,0-1.5-0.2-2.2-0.6s-1.1-0.9-1.4-1.6
		S160.5,232.2,160.5,231.4z M164.7,234.3c0.4,0,0.8-0.1,1.2-0.3s0.6-0.6,0.8-1.1s0.3-1,0.3-1.6c0-0.6-0.1-1.1-0.3-1.6
		s-0.5-0.8-0.8-1.1s-0.8-0.4-1.2-0.4c-0.4,0-0.8,0.1-1.2,0.4s-0.6,0.6-0.8,1.1s-0.3,1-0.3,1.6c0,0.6,0.1,1.1,0.3,1.5
		s0.5,0.8,0.8,1.1S164.2,234.3,164.7,234.3z"/>
	<path class="st0" d="M170.1,235.7v-8.6h1.9l3.4,6v-6h1.7v8.6h-1.8l-3.5-6.1v6.1H170.1z"/>
	<path class="st0" d="M177.8,228.6v-1.5h7.1v1.5h-2.6v7.1h-1.8v-7.1H177.8z"/>
	<path class="st0" d="M184.8,231.4c0-0.9,0.2-1.7,0.5-2.4s0.8-1.2,1.5-1.6s1.3-0.5,2.1-0.5c0.8,0,1.6,0.2,2.2,0.6s1.1,0.9,1.5,1.6
		s0.5,1.5,0.5,2.3c0,0.9-0.2,1.6-0.5,2.4s-0.9,1.3-1.5,1.6s-1.4,0.5-2.2,0.5c-0.8,0-1.5-0.2-2.2-0.6s-1.1-0.9-1.4-1.6
		S184.8,232.2,184.8,231.4z M188.9,234.3c0.4,0,0.8-0.1,1.2-0.3s0.6-0.6,0.8-1.1s0.3-1,0.3-1.6c0-0.6-0.1-1.1-0.3-1.6
		s-0.5-0.8-0.8-1.1s-0.8-0.4-1.2-0.4c-0.4,0-0.8,0.1-1.2,0.4s-0.6,0.6-0.8,1.1s-0.3,1-0.3,1.6c0,0.6,0.1,1.1,0.3,1.5
		s0.5,0.8,0.8,1.1S188.5,234.3,188.9,234.3z"/>
	<path class="st0" d="M197.1,228.6v-1.5h7.1v1.5h-2.6v7.1h-1.8v-7.1H197.1z"/>
	<path class="st0" d="M205.2,235.7v-8.6h6.4v1.5H207v1.9h4.2v1.5H207v2.2h4.8v1.5H205.2z"/>
	<path class="st0" d="M213.1,235.7v-8.6h1.9l3.4,6v-6h1.7v8.6h-1.8l-3.5-6.1v6.1H213.1z"/>
	<path class="st0" d="M221.8,235.7v-8.6h3.8c1.1,0,2,0.3,2.5,0.9c0.7,0.8,1,1.8,1,3.2c0,0.7-0.1,1.3-0.2,1.8s-0.3,1-0.6,1.4
		s-0.5,0.6-0.8,0.8s-0.6,0.3-0.9,0.4s-0.9,0.1-1.6,0.1H221.8z M223.6,228.6v5.6h1.6c0.4,0,0.7,0,0.9-0.1s0.5-0.2,0.6-0.4
		s0.3-0.4,0.4-0.7c0.2-0.5,0.2-1.1,0.2-1.7c0-0.4,0-0.8-0.1-1.2s-0.2-0.7-0.4-0.9s-0.4-0.4-0.6-0.5s-0.6-0.1-1-0.1H223.6z"/>
	<path class="st0" d="M230.4,227.1h4.3c0.7,0,1.2,0.1,1.6,0.3s0.7,0.5,0.9,0.9s0.3,0.8,0.3,1.3c0,0.5-0.1,0.9-0.4,1.3
		s-0.6,0.6-1,0.8c0.4,0.2,0.7,0.4,0.9,0.8c0.1,0.2,0.2,0.7,0.2,1.3v0.6c0,0.5,0,0.8,0.1,1c0,0.1,0.1,0.2,0.3,0.3v0.2h-2
		c-0.1-0.4-0.2-0.8-0.2-1.2v-0.8c0-0.4,0-0.7-0.1-0.9s-0.2-0.3-0.4-0.4s-0.5-0.1-0.9-0.1h-1.9v3.4h-1.8V227.1z M232.2,228.6v2.3h2
		c0.5,0,0.8-0.1,1-0.2c0.3-0.2,0.5-0.5,0.5-1c0-0.4-0.1-0.8-0.4-0.9c-0.2-0.1-0.5-0.2-1-0.2H232.2z"/>
	<path class="st0" d="M239.2,235.7v-8.6h6.4v1.5H241v1.9h4.2v1.5H241v2.2h4.8v1.5H239.2z"/>
	<path class="st0" d="M247.1,235.7v-8.6h2.6l1.6,6.7h0l1.5-6.7h2.6v8.6h-1.7v-7.2h0l-1.6,7.2h-1.8l-1.6-7.2h0v7.2H247.1z"/>
	<path class="st0" d="M256.8,231.4c0-0.9,0.2-1.7,0.5-2.4s0.8-1.2,1.5-1.6s1.3-0.5,2.1-0.5c0.8,0,1.6,0.2,2.2,0.6s1.1,0.9,1.5,1.6
		s0.5,1.5,0.5,2.3c0,0.9-0.2,1.6-0.5,2.4s-0.9,1.3-1.5,1.6s-1.4,0.5-2.2,0.5c-0.8,0-1.5-0.2-2.2-0.6s-1.1-0.9-1.4-1.6
		S256.8,232.2,256.8,231.4z M260.9,234.3c0.4,0,0.8-0.1,1.2-0.3s0.6-0.6,0.8-1.1s0.3-1,0.3-1.6c0-0.6-0.1-1.1-0.3-1.6
		s-0.5-0.8-0.8-1.1s-0.8-0.4-1.2-0.4c-0.4,0-0.8,0.1-1.2,0.4s-0.6,0.6-0.8,1.1s-0.3,1-0.3,1.6c0,0.6,0.1,1.1,0.3,1.5
		s0.5,0.8,0.8,1.1S260.5,234.3,260.9,234.3z"/>
	<path class="st0" d="M267.8,233c0,0.3,0.1,0.5,0.2,0.7c0.1,0.2,0.3,0.4,0.6,0.5s0.7,0.2,1.1,0.2c0.6,0,1.1-0.1,1.4-0.4
		c0.2-0.2,0.4-0.4,0.4-0.7c0-0.2-0.1-0.4-0.2-0.5s-0.3-0.2-0.5-0.3c-0.2-0.1-0.5-0.2-0.9-0.3l-0.9-0.2c-0.6-0.1-1-0.3-1.3-0.4
		c-0.4-0.1-0.6-0.3-0.8-0.5s-0.3-0.4-0.4-0.7s-0.2-0.6-0.2-0.9c0-0.6,0.2-1.1,0.5-1.5s0.7-0.7,1.2-0.9s1-0.3,1.6-0.3
		c0.4,0,0.9,0,1.2,0.1s0.7,0.2,1,0.4s0.5,0.4,0.7,0.6s0.3,0.5,0.4,0.7s0.1,0.6,0.1,0.9h-1.7c0-0.3-0.1-0.5-0.2-0.7s-0.3-0.3-0.6-0.5
		s-0.6-0.2-1-0.2c-0.5,0-0.9,0.1-1.2,0.3s-0.4,0.5-0.4,0.8c0,0.3,0.1,0.5,0.3,0.6c0.1,0.1,0.4,0.2,1,0.3l1.8,0.4
		c0.5,0.1,0.8,0.2,1.1,0.4c0.4,0.2,0.7,0.5,0.9,0.8s0.3,0.7,0.3,1.2c0,0.4-0.1,0.7-0.2,1s-0.3,0.6-0.5,0.8s-0.4,0.4-0.7,0.5
		s-0.6,0.3-1,0.3s-0.8,0.1-1.2,0.1c-0.5,0-1-0.1-1.5-0.2c-0.3-0.1-0.6-0.2-0.9-0.4s-0.4-0.4-0.6-0.6s-0.3-0.5-0.4-0.7
		s-0.1-0.6-0.1-0.9H267.8z"/>
	<path class="st0" d="M283.3,229.9c-0.1-0.5-0.3-0.8-0.6-1c-0.3-0.3-0.8-0.4-1.3-0.4c-0.4,0-0.8,0.1-1.2,0.3s-0.6,0.6-0.8,1
		s-0.3,1-0.3,1.6s0.1,1.2,0.3,1.6s0.4,0.8,0.8,1s0.7,0.3,1.1,0.3c0.3,0,0.6-0.1,0.9-0.2s0.5-0.3,0.6-0.5s0.3-0.5,0.4-0.9h1.8
		c-0.1,0.5-0.2,0.8-0.3,1.1c-0.2,0.4-0.4,0.7-0.7,1s-0.7,0.6-1.2,0.8s-0.9,0.3-1.4,0.3c-0.6,0-1.1-0.1-1.6-0.3s-0.9-0.5-1.3-0.9
		s-0.6-0.9-0.8-1.5s-0.3-1.2-0.3-1.8c0-0.8,0.1-1.5,0.4-2.2c0.2-0.5,0.4-0.9,0.7-1.2s0.7-0.6,1.1-0.8c0.5-0.3,1.1-0.4,1.8-0.4
		c0.6,0,1.1,0.1,1.6,0.3s0.9,0.4,1.2,0.7s0.5,0.7,0.7,1.1c0.1,0.3,0.2,0.6,0.2,1H283.3z"/>
	<path class="st0" d="M285.8,231.4c0-0.9,0.2-1.7,0.5-2.4s0.8-1.2,1.5-1.6s1.3-0.5,2.1-0.5c0.8,0,1.6,0.2,2.2,0.6s1.1,0.9,1.5,1.6
		s0.5,1.5,0.5,2.3c0,0.9-0.2,1.6-0.5,2.4s-0.9,1.3-1.5,1.6s-1.4,0.5-2.2,0.5c-0.8,0-1.5-0.2-2.2-0.6s-1.1-0.9-1.4-1.6
		S285.8,232.2,285.8,231.4z M289.9,234.3c0.4,0,0.8-0.1,1.2-0.3s0.6-0.6,0.8-1.1s0.3-1,0.3-1.6c0-0.6-0.1-1.1-0.3-1.6
		s-0.5-0.8-0.8-1.1s-0.8-0.4-1.2-0.4c-0.4,0-0.8,0.1-1.2,0.4s-0.6,0.6-0.8,1.1s-0.3,1-0.3,1.6c0,0.6,0.1,1.1,0.3,1.5
		s0.5,0.8,0.8,1.1S289.5,234.3,289.9,234.3z"/>
	<path class="st0" d="M295.4,235.7v-8.6h1.9l3.4,6v-6h1.7v8.6h-1.8l-3.5-6.1v6.1H295.4z"/>
	<path class="st0" d="M303.1,228.6v-1.5h7.1v1.5h-2.6v7.1h-1.8v-7.1H303.1z"/>
	<path class="st0" d="M311.2,235.7v-8.6h6.4v1.5H313v1.9h4.2v1.5H313v2.2h4.8v1.5H311.2z"/>
	<path class="st0" d="M319.1,235.7v-8.6h1.9l3.4,6v-6h1.7v8.6h-1.8l-3.5-6.1v6.1H319.1z"/>
	<path class="st0" d="M327.7,235.7v-8.6h1.8v8.6H327.7z"/>
	<path class="st0" d="M331.1,235.7v-8.6h3.8c1.1,0,2,0.3,2.5,0.9c0.7,0.8,1,1.8,1,3.2c0,0.7-0.1,1.3-0.2,1.8s-0.3,1-0.6,1.4
		s-0.5,0.6-0.8,0.8s-0.6,0.3-0.9,0.4s-0.9,0.1-1.6,0.1H331.1z M332.9,228.6v5.6h1.6c0.4,0,0.7,0,0.9-0.1s0.5-0.2,0.6-0.4
		s0.3-0.4,0.4-0.7c0.2-0.5,0.2-1.1,0.2-1.7c0-0.4,0-0.8-0.1-1.2s-0.2-0.7-0.4-0.9s-0.4-0.4-0.6-0.5s-0.6-0.1-1-0.1H332.9z"/>
	<path class="st0" d="M339.5,231.4c0-0.9,0.2-1.7,0.5-2.4s0.8-1.2,1.5-1.6s1.3-0.5,2.1-0.5c0.8,0,1.6,0.2,2.2,0.6s1.1,0.9,1.5,1.6
		s0.5,1.5,0.5,2.3c0,0.9-0.2,1.6-0.5,2.4s-0.9,1.3-1.5,1.6s-1.4,0.5-2.2,0.5c-0.8,0-1.5-0.2-2.2-0.6s-1.1-0.9-1.4-1.6
		S339.5,232.2,339.5,231.4z M343.6,234.3c0.4,0,0.8-0.1,1.2-0.3s0.6-0.6,0.8-1.1s0.3-1,0.3-1.6c0-0.6-0.1-1.1-0.3-1.6
		s-0.5-0.8-0.8-1.1s-0.8-0.4-1.2-0.4c-0.4,0-0.8,0.1-1.2,0.4s-0.6,0.6-0.8,1.1s-0.3,1-0.3,1.6c0,0.6,0.1,1.1,0.3,1.5
		s0.5,0.8,0.8,1.1S343.2,234.3,343.6,234.3z"/>
	<path class="st0" d="M350.5,233c0,0.3,0.1,0.5,0.2,0.7c0.1,0.2,0.3,0.4,0.6,0.5s0.7,0.2,1.1,0.2c0.6,0,1.1-0.1,1.4-0.4
		c0.2-0.2,0.4-0.4,0.4-0.7c0-0.2-0.1-0.4-0.2-0.5s-0.3-0.2-0.5-0.3c-0.2-0.1-0.5-0.2-0.9-0.3l-0.9-0.2c-0.6-0.1-1-0.3-1.3-0.4
		c-0.4-0.1-0.6-0.3-0.8-0.5s-0.3-0.4-0.4-0.7s-0.2-0.6-0.2-0.9c0-0.6,0.2-1.1,0.5-1.5s0.7-0.7,1.2-0.9s1-0.3,1.6-0.3
		c0.4,0,0.9,0,1.2,0.1s0.7,0.2,1,0.4s0.5,0.4,0.7,0.6s0.3,0.5,0.4,0.7s0.1,0.6,0.1,0.9h-1.7c0-0.3-0.1-0.5-0.2-0.7s-0.3-0.3-0.6-0.5
		s-0.6-0.2-1-0.2c-0.5,0-0.9,0.1-1.2,0.3s-0.4,0.5-0.4,0.8c0,0.3,0.1,0.5,0.3,0.6c0.1,0.1,0.4,0.2,1,0.3l1.8,0.4
		c0.5,0.1,0.8,0.2,1.1,0.4c0.4,0.2,0.7,0.5,0.9,0.8s0.3,0.7,0.3,1.2c0,0.4-0.1,0.7-0.2,1s-0.3,0.6-0.5,0.8s-0.4,0.4-0.7,0.5
		s-0.6,0.3-1,0.3s-0.8,0.1-1.2,0.1c-0.5,0-1-0.1-1.5-0.2c-0.3-0.1-0.6-0.2-0.9-0.4s-0.4-0.4-0.6-0.6s-0.3-0.5-0.4-0.7
		s-0.1-0.6-0.1-0.9H350.5z"/>
	<path class="st0" d="M133.2,250.1v-8.6h3.8c1.1,0,2,0.3,2.5,0.9c0.7,0.8,1,1.8,1,3.2c0,0.7-0.1,1.3-0.2,1.8s-0.3,1-0.6,1.4
		s-0.5,0.6-0.8,0.8s-0.6,0.3-0.9,0.4s-0.9,0.1-1.6,0.1H133.2z M135,243v5.6h1.6c0.4,0,0.7,0,0.9-0.1s0.5-0.2,0.6-0.4
		s0.3-0.4,0.4-0.7c0.2-0.5,0.2-1.1,0.2-1.7c0-0.4,0-0.8-0.1-1.2s-0.2-0.7-0.4-0.9s-0.4-0.4-0.6-0.5s-0.6-0.1-1-0.1H135z"/>
	<path class="st0" d="M142,250.1v-8.6h6.4v1.5h-4.6v1.9h4.2v1.5h-4.2v2.2h4.8v1.5H142z"/>
	<path class="st0" d="M153.2,250.1v-8.6h2.6l1.6,6.7h0l1.5-6.7h2.6v8.6h-1.7v-7.2h0l-1.6,7.2h-1.8l-1.6-7.2h0v7.2H153.2z"/>
	<path class="st0" d="M168.4,241.5h1.8v5.3c0,0.5,0,0.9-0.1,1.2c-0.1,0.4-0.2,0.8-0.4,1.1s-0.4,0.5-0.7,0.7s-0.6,0.3-1,0.4
		s-0.8,0.2-1.3,0.2c-0.5,0-1-0.1-1.4-0.2s-0.8-0.3-1-0.5s-0.5-0.5-0.6-0.7s-0.3-0.6-0.3-1c0-0.2-0.1-0.6-0.1-1.1v-5.3h1.8v5.5
		c0,0.4,0,0.7,0.1,1c0.1,0.2,0.2,0.4,0.5,0.6s0.6,0.3,1.1,0.3c0.4,0,0.8-0.1,1-0.2s0.4-0.3,0.5-0.5s0.2-0.6,0.2-1.1V241.5z"/>
	<path class="st0" d="M177,244.3c-0.1-0.5-0.3-0.8-0.6-1c-0.3-0.3-0.8-0.4-1.3-0.4c-0.4,0-0.8,0.1-1.2,0.3s-0.6,0.6-0.8,1
		s-0.3,1-0.3,1.6s0.1,1.2,0.3,1.6s0.4,0.8,0.8,1s0.7,0.3,1.1,0.3c0.3,0,0.6-0.1,0.9-0.2s0.5-0.3,0.6-0.5s0.3-0.5,0.4-0.9h1.8
		c-0.1,0.5-0.2,0.8-0.3,1.1c-0.2,0.4-0.4,0.7-0.7,1s-0.7,0.6-1.2,0.8s-0.9,0.3-1.4,0.3c-0.6,0-1.1-0.1-1.6-0.3s-0.9-0.5-1.3-0.9
		s-0.6-0.9-0.8-1.5s-0.3-1.2-0.3-1.8c0-0.8,0.1-1.5,0.4-2.2c0.2-0.5,0.4-0.9,0.7-1.2s0.7-0.6,1.1-0.8c0.5-0.3,1.1-0.4,1.8-0.4
		c0.6,0,1.1,0.1,1.6,0.3s0.9,0.4,1.2,0.7s0.5,0.7,0.7,1.1c0.1,0.3,0.2,0.6,0.2,1H177z"/>
	<path class="st0" d="M180.1,250.1v-8.6h1.8v3.3h3.4v-3.3h1.8v8.6h-1.8v-3.8h-3.4v3.8H180.1z"/>
	<path class="st0" d="M188.1,250.1l3.1-8.6h2.1l3,8.6h-2l-0.6-1.8h-3.2l-0.6,1.8H188.1z M191.1,246.8h2.2l-1.1-3.4h0L191.1,246.8z"
		/>
	<path class="st0" d="M205.9,241.5h1.8v5.3c0,0.5,0,0.9-0.1,1.2c-0.1,0.4-0.2,0.8-0.4,1.1s-0.4,0.5-0.7,0.7s-0.6,0.3-1,0.4
		s-0.8,0.2-1.3,0.2c-0.5,0-1-0.1-1.4-0.2s-0.8-0.3-1-0.5s-0.5-0.5-0.6-0.7s-0.3-0.6-0.3-1c0-0.2-0.1-0.6-0.1-1.1v-5.3h1.8v5.5
		c0,0.4,0,0.7,0.1,1c0.1,0.2,0.2,0.4,0.5,0.6s0.6,0.3,1.1,0.3c0.4,0,0.8-0.1,1-0.2s0.4-0.3,0.5-0.5s0.2-0.6,0.2-1.1V241.5z"/>
	<path class="st0" d="M208.3,243v-1.5h7.1v1.5h-2.6v7.1h-1.8V243H208.3z"/>
	<path class="st0" d="M216.3,250.1v-8.6h1.8v8.6H216.3z"/>
	<path class="st0" d="M219.7,250.1v-8.6h1.8v7.1h4.3v1.6H219.7z"/>
	<path class="st0" d="M226.9,250.1v-8.6h1.8v8.6H226.9z"/>
	<path class="st0" d="M230.3,250.1v-8.6h3.8c1.1,0,2,0.3,2.5,0.9c0.7,0.8,1,1.8,1,3.2c0,0.7-0.1,1.3-0.2,1.8s-0.3,1-0.6,1.4
		s-0.5,0.6-0.8,0.8s-0.6,0.3-0.9,0.4s-0.9,0.1-1.6,0.1H230.3z M232.1,243v5.6h1.6c0.4,0,0.7,0,0.9-0.1s0.5-0.2,0.6-0.4
		s0.3-0.4,0.4-0.7c0.2-0.5,0.2-1.1,0.2-1.7c0-0.4,0-0.8-0.1-1.2s-0.2-0.7-0.4-0.9s-0.4-0.4-0.6-0.5s-0.6-0.1-1-0.1H232.1z"/>
	<path class="st0" d="M237.4,250.1l3.1-8.6h2.1l3,8.6h-2l-0.6-1.8h-3.2l-0.6,1.8H237.4z M240.4,246.8h2.2l-1.1-3.4h0L240.4,246.8z"
		/>
	<path class="st0" d="M246.7,250.1v-8.6h3.8c1.1,0,2,0.3,2.5,0.9c0.7,0.8,1,1.8,1,3.2c0,0.7-0.1,1.3-0.2,1.8s-0.3,1-0.6,1.4
		s-0.5,0.6-0.8,0.8s-0.6,0.3-0.9,0.4s-0.9,0.1-1.6,0.1H246.7z M248.5,243v5.6h1.6c0.4,0,0.7,0,0.9-0.1s0.5-0.2,0.6-0.4
		s0.3-0.4,0.4-0.7c0.2-0.5,0.2-1.1,0.2-1.7c0-0.4,0-0.8-0.1-1.2s-0.2-0.7-0.4-0.9s-0.4-0.4-0.6-0.5s-0.6-0.1-1-0.1H248.5z"/>
	<path class="st0" d="M258.1,250.1l3.1-8.6h2.1l3,8.6h-2l-0.6-1.8h-3.2l-0.6,1.8H258.1z M261,246.8h2.2l-1.1-3.4h0L261,246.8z"/>
	<path class="st0" d="M272,247.4c0,0.3,0.1,0.5,0.2,0.7c0.1,0.2,0.3,0.4,0.6,0.5s0.7,0.2,1.1,0.2c0.6,0,1.1-0.1,1.4-0.4
		c0.2-0.2,0.4-0.4,0.4-0.7c0-0.2-0.1-0.4-0.2-0.5s-0.3-0.2-0.5-0.3c-0.2-0.1-0.5-0.2-0.9-0.3l-0.9-0.2c-0.6-0.1-1-0.3-1.3-0.4
		c-0.4-0.1-0.6-0.3-0.8-0.5s-0.3-0.4-0.4-0.7s-0.2-0.6-0.2-0.9c0-0.6,0.2-1.1,0.5-1.5s0.7-0.7,1.2-0.9s1-0.3,1.6-0.3
		c0.4,0,0.9,0,1.2,0.1s0.7,0.2,1,0.4s0.5,0.4,0.7,0.6s0.3,0.5,0.4,0.7s0.1,0.6,0.1,0.9h-1.7c0-0.3-0.1-0.5-0.2-0.7s-0.3-0.3-0.6-0.5
		s-0.6-0.2-1-0.2c-0.5,0-0.9,0.1-1.2,0.3s-0.4,0.5-0.4,0.8c0,0.3,0.1,0.5,0.3,0.6c0.1,0.1,0.4,0.2,1,0.3l1.8,0.4
		c0.5,0.1,0.8,0.2,1.1,0.4c0.4,0.2,0.7,0.5,0.9,0.8s0.3,0.7,0.3,1.2c0,0.4-0.1,0.7-0.2,1s-0.3,0.6-0.5,0.8s-0.4,0.4-0.7,0.5
		s-0.6,0.3-1,0.3s-0.8,0.1-1.2,0.1c-0.5,0-1-0.1-1.5-0.2c-0.3-0.1-0.6-0.2-0.9-0.4s-0.4-0.4-0.6-0.6s-0.3-0.5-0.4-0.7
		s-0.1-0.6-0.1-0.9H272z"/>
	<path class="st0" d="M283.8,241.5h1.8v5.3c0,0.5,0,0.9-0.1,1.2c-0.1,0.4-0.2,0.8-0.4,1.1s-0.4,0.5-0.7,0.7s-0.6,0.3-1,0.4
		s-0.8,0.2-1.3,0.2c-0.5,0-1-0.1-1.4-0.2s-0.8-0.3-1-0.5s-0.5-0.5-0.6-0.7s-0.3-0.6-0.3-1c0-0.2-0.1-0.6-0.1-1.1v-5.3h1.8v5.5
		c0,0.4,0,0.7,0.1,1c0.1,0.2,0.2,0.4,0.5,0.6s0.6,0.3,1.1,0.3c0.4,0,0.8-0.1,1-0.2s0.4-0.3,0.5-0.5s0.2-0.6,0.2-1.1V241.5z"/>
	<path class="st0" d="M290.7,250.1v-8.6h3.8c1.1,0,2,0.3,2.5,0.9c0.7,0.8,1,1.8,1,3.2c0,0.7-0.1,1.3-0.2,1.8s-0.3,1-0.6,1.4
		s-0.5,0.6-0.8,0.8s-0.6,0.3-0.9,0.4s-0.9,0.1-1.6,0.1H290.7z M292.5,243v5.6h1.6c0.4,0,0.7,0,0.9-0.1s0.5-0.2,0.6-0.4
		s0.3-0.4,0.4-0.7c0.2-0.5,0.2-1.1,0.2-1.7c0-0.4,0-0.8-0.1-1.2s-0.2-0.7-0.4-0.9s-0.4-0.4-0.6-0.5s-0.6-0.1-1-0.1H292.5z"/>
	<path class="st0" d="M299.3,250.1v-8.6h1.8v8.6H299.3z"/>
	<path class="st0" d="M304,247.4c0,0.3,0.1,0.5,0.2,0.7c0.1,0.2,0.3,0.4,0.6,0.5s0.7,0.2,1.1,0.2c0.6,0,1.1-0.1,1.4-0.4
		c0.2-0.2,0.4-0.4,0.4-0.7c0-0.2-0.1-0.4-0.2-0.5s-0.3-0.2-0.5-0.3c-0.2-0.1-0.5-0.2-0.9-0.3l-0.9-0.2c-0.6-0.1-1-0.3-1.3-0.4
		c-0.4-0.1-0.6-0.3-0.8-0.5s-0.3-0.4-0.4-0.7s-0.2-0.6-0.2-0.9c0-0.6,0.2-1.1,0.5-1.5s0.7-0.7,1.2-0.9s1-0.3,1.6-0.3
		c0.4,0,0.9,0,1.2,0.1s0.7,0.2,1,0.4s0.5,0.4,0.7,0.6s0.3,0.5,0.4,0.7s0.1,0.6,0.1,0.9h-1.7c0-0.3-0.1-0.5-0.2-0.7s-0.3-0.3-0.6-0.5
		s-0.6-0.2-1-0.2c-0.5,0-0.9,0.1-1.2,0.3s-0.4,0.5-0.4,0.8c0,0.3,0.1,0.5,0.3,0.6c0.1,0.1,0.4,0.2,1,0.3l1.8,0.4
		c0.5,0.1,0.8,0.2,1.1,0.4c0.4,0.2,0.7,0.5,0.9,0.8s0.3,0.7,0.3,1.2c0,0.4-0.1,0.7-0.2,1s-0.3,0.6-0.5,0.8s-0.4,0.4-0.7,0.5
		s-0.6,0.3-1,0.3s-0.8,0.1-1.2,0.1c-0.5,0-1-0.1-1.5-0.2c-0.3-0.1-0.6-0.2-0.9-0.4s-0.4-0.4-0.6-0.6s-0.3-0.5-0.4-0.7
		s-0.1-0.6-0.1-0.9H304z"/>
	<path class="st0" d="M310.7,250.1v-8.6h3.8c0.5,0,0.9,0,1.2,0.1s0.5,0.2,0.7,0.3s0.3,0.3,0.5,0.5s0.2,0.4,0.3,0.6
		c0.1,0.4,0.2,0.8,0.2,1.2c0,0.5-0.1,1-0.2,1.4s-0.4,0.7-0.6,0.9s-0.6,0.4-1,0.5c-0.3,0.1-0.7,0.1-1.1,0.1h-1.8v3.1H310.7z
		 M312.5,243v2.5h1.7c0.3,0,0.6-0.1,0.8-0.2s0.3-0.3,0.4-0.5s0.1-0.4,0.1-0.7c0-0.4-0.1-0.7-0.3-0.9s-0.5-0.3-1-0.3H312.5z"/>
	<path class="st0" d="M317.4,245.8c0-0.9,0.2-1.7,0.5-2.4s0.8-1.2,1.5-1.6s1.3-0.5,2.1-0.5c0.8,0,1.6,0.2,2.2,0.6s1.1,0.9,1.5,1.6
		s0.5,1.5,0.5,2.3c0,0.9-0.2,1.6-0.5,2.4s-0.9,1.3-1.5,1.6s-1.4,0.5-2.2,0.5c-0.8,0-1.5-0.2-2.2-0.6s-1.1-0.9-1.4-1.6
		S317.4,246.6,317.4,245.8z M321.6,248.7c0.4,0,0.8-0.1,1.2-0.3s0.6-0.6,0.8-1.1s0.3-1,0.3-1.6c0-0.6-0.1-1.1-0.3-1.6
		s-0.5-0.8-0.8-1.1s-0.8-0.4-1.2-0.4c-0.4,0-0.8,0.1-1.2,0.4s-0.6,0.6-0.8,1.1s-0.3,1-0.3,1.6c0,0.6,0.1,1.1,0.3,1.5
		s0.5,0.8,0.8,1.1S321.1,248.7,321.6,248.7z"/>
	<path class="st0" d="M328.4,247.4c0,0.3,0.1,0.5,0.2,0.7c0.1,0.2,0.3,0.4,0.6,0.5s0.7,0.2,1.1,0.2c0.6,0,1.1-0.1,1.4-0.4
		c0.2-0.2,0.4-0.4,0.4-0.7c0-0.2-0.1-0.4-0.2-0.5s-0.3-0.2-0.5-0.3c-0.2-0.1-0.5-0.2-0.9-0.3l-0.9-0.2c-0.6-0.1-1-0.3-1.3-0.4
		c-0.4-0.1-0.6-0.3-0.8-0.5s-0.3-0.4-0.4-0.7s-0.2-0.6-0.2-0.9c0-0.6,0.2-1.1,0.5-1.5s0.7-0.7,1.2-0.9s1-0.3,1.6-0.3
		c0.4,0,0.9,0,1.2,0.1s0.7,0.2,1,0.4s0.5,0.4,0.7,0.6s0.3,0.5,0.4,0.7s0.1,0.6,0.1,0.9h-1.7c0-0.3-0.1-0.5-0.2-0.7s-0.3-0.3-0.6-0.5
		s-0.6-0.2-1-0.2c-0.5,0-0.9,0.1-1.2,0.3s-0.4,0.5-0.4,0.8c0,0.3,0.1,0.5,0.3,0.6c0.1,0.1,0.4,0.2,1,0.3l1.8,0.4
		c0.5,0.1,0.8,0.2,1.1,0.4c0.4,0.2,0.7,0.5,0.9,0.8s0.3,0.7,0.3,1.2c0,0.4-0.1,0.7-0.2,1s-0.3,0.6-0.5,0.8s-0.4,0.4-0.7,0.5
		s-0.6,0.3-1,0.3s-0.8,0.1-1.2,0.1c-0.5,0-1-0.1-1.5-0.2c-0.3-0.1-0.6-0.2-0.9-0.4s-0.4-0.4-0.6-0.6s-0.3-0.5-0.4-0.7
		s-0.1-0.6-0.1-0.9H328.4z"/>
	<path class="st0" d="M335,250.1v-8.6h1.8v8.6H335z"/>
	<path class="st0" d="M344,244.3c-0.1-0.5-0.3-0.8-0.6-1c-0.3-0.3-0.8-0.4-1.3-0.4c-0.4,0-0.8,0.1-1.2,0.3s-0.6,0.6-0.8,1
		s-0.3,1-0.3,1.6s0.1,1.2,0.3,1.6s0.4,0.8,0.8,1s0.7,0.3,1.1,0.3c0.3,0,0.6-0.1,0.9-0.2s0.5-0.3,0.6-0.5s0.3-0.5,0.4-0.9h1.8
		c-0.1,0.5-0.2,0.8-0.3,1.1c-0.2,0.4-0.4,0.7-0.7,1s-0.7,0.6-1.2,0.8s-0.9,0.3-1.4,0.3c-0.6,0-1.1-0.1-1.6-0.3s-0.9-0.5-1.3-0.9
		s-0.6-0.9-0.8-1.5s-0.3-1.2-0.3-1.8c0-0.8,0.1-1.5,0.4-2.2c0.2-0.5,0.4-0.9,0.7-1.2s0.7-0.6,1.1-0.8c0.5-0.3,1.1-0.4,1.8-0.4
		c0.6,0,1.1,0.1,1.6,0.3s0.9,0.4,1.2,0.7s0.5,0.7,0.7,1.1c0.1,0.3,0.2,0.6,0.2,1H344z"/>
	<path class="st0" d="M347,250.1v-8.6h1.8v8.6H347z"/>
	<path class="st0" d="M350.1,245.8c0-0.9,0.2-1.7,0.5-2.4s0.8-1.2,1.5-1.6s1.3-0.5,2.1-0.5c0.8,0,1.6,0.2,2.2,0.6s1.1,0.9,1.5,1.6
		s0.5,1.5,0.5,2.3c0,0.9-0.2,1.6-0.5,2.4s-0.9,1.3-1.5,1.6s-1.4,0.5-2.2,0.5c-0.8,0-1.5-0.2-2.2-0.6s-1.1-0.9-1.4-1.6
		S350.1,246.6,350.1,245.8z M354.3,248.7c0.4,0,0.8-0.1,1.2-0.3s0.6-0.6,0.8-1.1s0.3-1,0.3-1.6c0-0.6-0.1-1.1-0.3-1.6
		s-0.5-0.8-0.8-1.1s-0.8-0.4-1.2-0.4c-0.4,0-0.8,0.1-1.2,0.4s-0.6,0.6-0.8,1.1s-0.3,1-0.3,1.6c0,0.6,0.1,1.1,0.3,1.5
		s0.5,0.8,0.8,1.1S353.8,248.7,354.3,248.7z M353.4,240.9l1.1-1.7h1.9l-1.8,1.7H353.4z"/>
	<path class="st0" d="M359.7,250.1v-8.6h1.9l3.4,6v-6h1.7v8.6H365l-3.5-6.1v6.1H359.7z"/>
</g>
</svg>
