<svg id="Capa_1" data-name="Capa 1" xmlns="http://www.w3.org/2000/svg" viewBox="0 0 640 120"><defs><style>.cls-1{fill:#47998a;}.cls-2{fill:#fff;stroke:#fafafa;stroke-miterlimit:10;}</style></defs><title>logo_vert</title><path class="cls-1" d="M235.77,95.75V26h1.51l46.43,53.47V26h6.87V95.75H289L243,42.93V95.75Z"/><path class="cls-1" d="M305.62,44.16h6.63V68.25q0,8.82.95,12.14a13.55,13.55,0,0,0,5.44,7.49,16.49,16.49,0,0,0,9.57,2.75A16.12,16.12,0,0,0,337.64,88a13.66,13.66,0,0,0,5.34-7q1-3,1-12.66V44.16h6.78V69.48q0,10.68-2.49,16.08A19,19,0,0,1,340.78,94a23.68,23.68,0,0,1-12.54,3.06A24,24,0,0,1,315.64,94a18.77,18.77,0,0,1-7.53-8.53Q305.62,80,305.62,69Z"/><path class="cls-1" d="M371.29,25h6.64V44.16h10.53V49.9H377.93V95.75h-6.64V49.9h-9.06V44.16h9.06Z"/><path class="cls-1" d="M395.9,44.16h6.78V51.7A23.85,23.85,0,0,1,409.09,45a12.61,12.61,0,0,1,7-2.21A12.08,12.08,0,0,1,422,44.59l-3.46,5.59a9.23,9.23,0,0,0-3.51-.9,9.6,9.6,0,0,0-6.4,2.73q-3.08,2.73-4.69,8.46-1.25,4.41-1.24,17.83V95.75H395.9Z"/><path class="cls-1" d="M429.93,22.92a5.47,5.47,0,0,1,3.87,9.34,5.46,5.46,0,0,1-7.7-7.73A5.24,5.24,0,0,1,429.93,22.92Zm-3.3,21.24h6.64V95.75h-6.64Z"/><path class="cls-1" d="M445,95.75,455,26h1.13l28.36,57.24L512.54,26h1.12l10,69.75h-6.84L510,45.87,485.31,95.75h-1.78l-25-50.26-6.85,50.26Z"/><path class="cls-1" d="M587.72,44.16V95.75h-6.55V86.89a28.36,28.36,0,0,1-9.36,7.63,26.18,26.18,0,0,1-30.07-5.38A26.66,26.66,0,0,1,534,69.82a26.15,26.15,0,0,1,7.83-19.07,25.5,25.5,0,0,1,18.82-7.92,24.24,24.24,0,0,1,11.5,2.71,26.06,26.06,0,0,1,9,8.11V44.16Zm-26.53,5.08a20,20,0,0,0-17.7,10.37,20.89,20.89,0,0,0,0,20.84A20.18,20.18,0,0,0,551,88.19,19.59,19.59,0,0,0,561.14,91a20.72,20.72,0,0,0,10.32-2.75A19.12,19.12,0,0,0,579,80.78a21.24,21.24,0,0,0,2.63-10.56,20.5,20.5,0,0,0-5.9-15A19.52,19.52,0,0,0,561.19,49.24Z"/><path class="cls-1" d="M600.14,44.16h6.78V51.7A23.85,23.85,0,0,1,613.33,45a12.61,12.61,0,0,1,7-2.21,12.08,12.08,0,0,1,5.88,1.76l-3.46,5.59a9.23,9.23,0,0,0-3.51-.9,9.6,9.6,0,0,0-6.4,2.73q-3.08,2.73-4.69,8.46-1.24,4.41-1.24,17.83V95.75h-6.78Z"/><ellipse class="cls-1" cx="108.75" cy="60" rx="93.69" ry="50.37"/><path class="cls-2" d="M136.29,103.42c-7.95.61-16.33.72-23.07-3.61-7.12-4.58-10.77-13.23-11.78-21.62s.17-16.82.47-25.23c.21-6-.07-12.21-2.35-17.83-3.87-9.53-12.31-15-20.82-19.83,1,.55,3.9.14,5,.21,2.43.14,4.85-.22,7.3,0a31,31,0,0,1,14.12,5.13A31.77,31.77,0,0,1,118,38.94c1.65,6.49,1.15,13.28.37,19.88s-1.84,13.23-1.28,19.88,2.92,13.49,7.92,18c3.78,3.39,8.68,5.13,13.5,6.58C137.76,103.31,137,103.37,136.29,103.42Z"/><path class="cls-2" d="M164.42,100.85c-7.07.41-14.51.37-20.43-3.58-6.24-4.18-9.34-11.92-10.11-19.39s.43-14.92.82-22.39c.29-5.33.14-10.84-1.79-15.86-3.29-8.52-10.69-13.52-18.16-18,.85.51,3.45.19,4.46.27,2.15.17,4.3-.11,6.48.15a27.5,27.5,0,0,1,12.45,4.78A28.2,28.2,0,0,1,149.2,43.3c1.36,5.8.81,11.81,0,17.66s-1.84,11.71-1.46,17.63,2.38,12,6.74,16.08c3.3,3.06,7.63,4.69,11.88,6Z"/><path class="cls-2" d="M99.28,98.16c-7.08.42-14.51.38-20.43-3.58C72.61,90.4,69.5,82.66,68.74,75.2s.42-14.93.82-22.39c.28-5.34.14-10.84-1.8-15.87C64.48,28.42,57.07,23.42,49.6,19c.86.5,3.46.19,4.46.27,2.16.17,4.31-.12,6.48.14A27.4,27.4,0,0,1,73,24.2,28.23,28.23,0,0,1,84.06,40.62c1.35,5.79.81,11.81,0,17.65S82.22,70,82.6,75.9,85,87.93,89.35,92c3.3,3.07,7.63,4.69,11.88,6.06Z"/></svg>